<svg width="31" height="31" viewBox="0 0 31 31" fill="none" xmlns="http://www.w3.org/2000/svg">
<g clip-path="url(#clip0_202_308)">
<path d="M20.1553 18.3233H19.1724L18.8241 17.9874C20.0433 16.5691 20.7773 14.7278 20.7773 12.7248C20.7773 8.25852 17.157 4.63818 12.6907 4.63818C8.22434 4.63818 4.604 8.25852 4.604 12.7248C4.604 17.1912 8.22434 20.8115 12.6907 20.8115C14.6937 20.8115 16.5349 20.0775 17.9532 18.8583L18.2891 19.2066V20.1894L24.5096 26.3975L26.3633 24.5438L20.1553 18.3233ZM12.6907 18.3233C9.59285 18.3233 7.09221 15.8226 7.09221 12.7248C7.09221 9.62703 9.59285 7.12638 12.6907 7.12638C15.7885 7.12638 18.2891 9.62703 18.2891 12.7248C18.2891 15.8226 15.7885 18.3233 12.6907 18.3233Z" fill="white"/>
</g>
<defs>
<clipPath id="clip0_202_308">
<rect width="29.8584" height="29.8584" fill="white" transform="translate(0.871582 0.905762)"/>
</clipPath>
</defs>
</svg>
