<svg xmlns="http://www.w3.org/2000/svg" width="761" height="928" viewBox="0 0 761 928" fill="none">
  <path fill-rule="evenodd" clip-rule="evenodd" d="M497.135 550.327C511.313 538.985 556.114 502.123 567.456 495.885C572.56 489.647 589.573 476.603 598.08 469.798C599.214 468.664 600.348 468.097 602.05 466.395C603.751 465.261 606.019 463.56 608.288 461.859C618.496 454.486 629.838 445.413 630.972 439.174C630.972 435.205 630.405 432.369 629.271 430.101C627.57 427.265 625.301 425.564 622.466 424.997C614.526 422.728 610.556 425.564 606.019 428.966L604.885 430.101L446.096 547.492C445.529 548.059 444.395 549.193 442.693 550.327C437.589 554.297 430.784 559.968 423.979 562.236C415.472 565.639 406.966 564.505 402.996 553.163C397.892 540.686 405.831 535.582 412.637 531.045C413.771 529.911 414.905 529.344 415.472 528.777L590.708 399.477C592.976 397.209 596.379 394.94 599.781 392.672C602.617 390.97 605.452 388.702 608.855 386.434C611.123 384.732 613.959 382.464 617.929 380.195C631.539 370.555 653.089 355.243 654.791 348.438C654.791 347.303 654.791 345.602 654.791 343.901C654.791 337.663 654.791 336.528 650.821 332.559C640.613 323.485 630.972 331.424 620.197 339.364C617.362 341.632 614.526 343.901 611.123 346.169C606.587 349.005 602.05 352.407 598.08 355.81C593.543 359.213 589.573 362.615 584.469 366.018C580.5 368.853 576.53 371.689 572.56 373.957C568.023 377.927 562.92 381.33 557.248 385.299L385.416 511.197H384.848C380.312 513.465 375.775 513.465 372.372 512.331C369.537 511.764 366.701 510.063 365 507.794C362.731 505.526 361.597 502.69 361.03 499.288C360.463 495.885 361.597 491.915 363.866 487.945C365 485.677 416.039 447.114 458.572 415.923C483.525 397.776 505.642 381.897 513.581 377.36C517.551 372.256 525.491 366.585 531.162 362.615L533.997 360.914L582.768 325.186L583.902 324.052C586.738 322.351 586.738 321.784 588.439 317.814C590.708 312.143 590.141 307.039 587.872 303.069C586.738 301.368 585.604 299.099 583.902 297.965C582.201 296.264 580.5 295.13 578.231 294.563C574.262 292.861 569.725 292.861 565.188 295.13L442.693 375.659C441.559 376.793 439.291 377.927 436.455 380.195C419.442 392.105 375.208 422.728 361.597 427.832C357.627 433.503 348.554 439.741 338.346 445.98C318.497 457.889 292.977 469.798 285.605 473.201C281.635 474.902 277.666 476.603 274.263 478.305C264.622 482.274 255.548 486.244 247.609 492.482C241.938 496.452 237.968 500.989 234.566 504.959C224.358 516.868 217.552 523.673 201.673 510.063L199.972 508.361V506.093C199.972 489.647 209.046 482.274 218.12 474.902C224.358 469.798 230.029 464.694 232.864 456.188C237.968 436.906 241.938 419.893 244.206 402.313C247.042 384.732 248.176 366.018 248.176 343.334C247.609 328.022 239.102 311.576 230.029 303.069C227.193 300.234 224.925 298.532 222.656 297.965C220.955 297.398 219.254 297.398 218.12 297.965C216.418 299.099 214.717 303.069 213.583 309.307C213.016 312.71 213.016 315.545 212.448 318.381C211.314 326.32 209.613 334.827 209.613 341.632V342.767V343.334C205.643 352.974 205.076 359.78 204.509 366.585C203.375 382.464 202.241 400.044 167.08 455.62C159.141 468.097 158.006 472.066 156.872 476.036C156.305 478.872 155.738 481.707 152.902 487.378L152.335 487.945L151.768 489.08C151.768 496.452 148.366 510.63 145.53 520.838C144.963 523.106 144.396 525.374 144.396 527.076L123.413 641.064C122.846 645.601 122.279 648.436 121.712 651.272C117.175 680.194 116.041 686.432 90.5208 704.013L41.1827 737.472C46.8537 746.545 66.1353 770.364 77.4774 783.974C80.3129 787.944 83.1484 791.347 84.2827 792.481L130.218 851.46C133.054 855.43 135.322 857.698 137.591 860.534C144.396 869.607 151.201 878.114 158.006 887.188L239.67 819.702C244.206 815.732 251.579 809.494 259.518 802.689C274.263 790.212 291.276 776.035 297.514 772.632C302.051 769.797 306.021 768.663 309.991 766.961C311.692 765.827 313.96 765.26 315.662 764.126C337.212 754.485 358.194 741.442 378.043 726.697C397.892 711.385 416.606 694.372 434.187 677.926L501.672 616.111H502.239C506.776 612.709 508.477 610.44 511.313 607.605C512.447 607.038 513.014 605.903 515.283 604.202C529.46 591.726 543.071 579.249 556.681 567.34C559.517 565.072 561.785 562.803 564.054 561.102C565.755 558.834 567.456 557.132 570.292 554.864L573.127 552.595C586.171 541.82 595.244 533.881 592.976 515.734C585.037 521.405 569.158 534.448 561.218 541.253C558.95 542.955 557.816 544.656 557.248 544.656L451.2 629.722C443.827 635.393 438.156 635.96 433.052 633.691C428.516 631.99 425.68 627.453 422.277 621.215L421.71 620.081V617.812C423.979 608.172 429.083 604.769 435.321 600.232C436.455 599.098 437.589 598.531 438.723 597.397L494.3 553.163L497.135 550.327ZM66.7024 455.62C67.2695 461.859 67.2695 468.097 67.2695 472.066L89.9537 622.349V622.917C89.9537 637.661 83.7156 648.436 76.3432 660.913C74.0748 665.449 71.2392 669.986 68.9708 675.09C67.8366 677.359 66.1353 679.627 65.0011 681.895C75.209 675.09 84.2827 668.852 86.5511 661.48C88.8195 654.674 92.2221 630.856 96.759 603.068C104.131 556.565 113.205 499.288 120.577 485.677C121.145 475.469 124.547 466.963 127.95 458.456L128.517 456.755C130.785 451.651 132.487 448.248 134.755 444.845C132.487 446.547 129.651 447.114 126.816 446.547H125.681L125.114 445.98C118.876 443.144 114.906 440.309 113.205 436.339C110.937 431.802 110.937 426.698 114.906 418.759L126.248 396.642V396.074C131.352 388.135 130.218 376.793 127.95 364.316C127.383 356.944 126.248 349.005 125.681 340.498C124.547 336.528 122.846 326.888 121.145 317.247C120.01 310.441 118.876 304.203 117.742 301.368L117.175 297.965C114.339 286.623 111.504 276.415 107.534 266.774C104.131 259.969 98.4603 252.597 91.655 246.359C85.984 241.255 79.7458 237.285 73.5077 236.151C68.9708 235.016 66.1353 236.718 63.8669 238.986C63.8669 246.359 65.5682 253.731 67.2695 260.536C68.9708 267.909 70.6721 275.281 71.2392 283.22C72.3734 291.16 75.209 302.502 76.3432 314.411C78.0445 326.888 79.1787 339.931 78.0445 349.572C76.9103 356.377 74.0748 372.823 71.2392 386.434C69.5379 395.507 67.2695 403.447 65.5682 407.416C65.0011 410.252 65.0011 413.088 64.434 415.356C63.8669 422.161 63.2998 427.832 64.434 438.04C65.5682 442.577 66.1353 449.382 66.7024 455.62ZM31.5419 413.088V405.148L32.109 404.014C33.2432 401.745 36.6458 390.403 38.9143 378.494C41.7498 366.018 44.5853 353.541 44.5853 349.005C45.7195 331.991 43.4511 320.649 41.7498 308.74C40.6156 301.935 39.4814 295.13 38.9143 286.623C37.78 283.788 36.6458 277.549 35.5116 271.311C33.8103 262.238 32.109 253.164 31.5419 251.463C30.9748 242.956 31.5419 236.151 32.6761 229.913C34.3774 223.674 37.2129 218.57 41.7498 214.034C46.2866 209.497 51.3906 206.661 56.4945 204.393C66.1353 201.557 76.3432 201.557 87.1182 205.527C97.3261 208.93 107.534 215.735 116.608 224.809C127.383 236.151 137.591 250.895 143.829 269.043C146.664 277.549 150.634 292.861 154.037 308.173C156.305 320.082 158.006 331.424 158.006 339.364L160.842 359.213C168.214 353.542 176.154 346.736 176.154 338.23V337.095V336.528C178.422 329.723 178.989 321.784 180.123 314.411C181.258 301.368 182.392 288.891 189.764 279.818C195.435 271.878 203.942 267.341 213.016 265.64C220.955 264.506 229.462 265.64 237.968 269.043C239.102 267.909 240.237 266.207 241.371 265.073C243.072 262.805 245.341 260.536 247.609 258.835L353.658 119.894L354.792 118.76C361.597 109.686 368.402 100.045 378.043 93.8073C383.147 90.4046 388.818 88.1362 394.489 87.002C405.264 84.1665 415.472 85.3007 424.546 89.2704C433.62 92.6731 441.559 98.9112 446.096 105.716C446.663 106.851 447.23 107.985 447.797 109.686C448.931 108.552 450.066 107.985 451.2 106.851C454.602 104.582 457.438 102.314 461.975 100.613C474.451 96.0757 487.494 96.0757 498.269 100.045C509.612 104.015 518.685 112.522 523.789 123.297C536.833 151.085 525.49 166.397 513.581 182.843C512.447 184.544 511.313 186.245 510.179 187.38C509.044 189.081 507.91 190.215 507.343 191.916C505.642 193.618 504.508 195.319 503.373 197.588C507.343 198.722 511.88 200.423 515.283 203.259C522.088 207.795 526.625 214.034 530.027 220.839C533.43 228.211 535.698 237.852 535.131 246.359C534.564 253.731 532.296 260.536 527.192 265.073C524.923 271.311 519.82 279.251 514.716 287.19L513.014 288.891C529.46 277.549 551.01 263.939 559.517 261.67C563.487 261.103 566.889 260.536 570.292 260.536C583.335 260.536 594.677 264.506 603.751 271.311C612.825 278.117 619.063 287.757 621.331 298.532V299.099C628.137 296.831 634.942 295.697 641.747 295.697C650.821 295.697 659.327 298.532 667.267 303.636C673.505 308.173 679.176 313.844 683.146 320.649C686.548 328.022 688.817 336.528 688.817 347.303C688.25 354.109 685.981 360.914 683.146 366.018C679.176 373.39 673.505 379.061 668.401 383.031C666.7 384.732 663.297 387.001 659.327 389.836C654.223 393.239 649.119 397.209 645.15 400.044C647.985 402.313 650.254 404.014 652.522 406.282C655.925 410.252 658.76 414.789 661.029 421.027C667.267 439.741 662.73 454.486 653.089 466.963C644.583 477.17 632.106 486.244 620.764 493.616L621.898 497.019C625.868 502.69 627.002 510.63 627.002 519.136C627.002 528.777 624.734 538.985 621.331 546.924C616.794 555.998 606.587 567.34 595.244 578.115C584.469 588.323 572.56 597.397 564.621 604.202L505.642 657.51C501.672 661.48 498.837 663.181 496.001 666.016C494.3 667.151 492.598 668.852 490.33 670.553C488.629 672.255 486.927 673.956 485.226 675.657C482.391 677.926 480.122 680.194 476.152 683.597L433.052 723.861C420.009 735.203 402.429 749.381 384.281 762.424C366.134 775.468 347.419 787.377 332.108 793.048L330.406 793.615C324.168 796.451 319.064 798.152 313.393 801.555C308.856 803.823 279.934 828.209 255.548 849.192C240.804 861.668 227.76 872.443 222.089 877.547C206.21 889.456 194.301 899.664 185.794 907.603C172.751 918.378 165.946 924.616 159.708 926.318C150.067 929.72 145.53 924.616 135.322 912.14C134.188 910.439 132.487 908.17 130.218 905.335C127.95 903.066 126.248 900.798 124.547 898.53C123.413 896.261 122.279 894.56 120.577 892.859L92.7892 857.698C89.9537 853.728 87.1182 849.759 83.7156 845.789C80.3129 841.252 77.4774 837.849 74.6419 833.88C71.2393 829.91 67.8366 824.806 63.8669 820.269C61.0314 816.867 58.1958 812.897 55.9274 810.061C44.0182 795.316 36.6458 785.676 30.4077 777.736C12.8274 756.186 4.32081 745.411 1.48529 738.039C-1.91734 730.099 0.918204 726.13 6.02215 718.757C8.85768 715.355 12.2603 710.818 15.6629 704.013L38.3471 662.047L39.4813 660.345C41.7498 655.809 42.884 652.973 45.7195 648.436L46.8537 646.168C51.3906 638.795 56.4945 630.856 55.9274 619.514C55.3603 609.306 51.9577 589.457 47.9879 567.34C42.3169 535.015 35.5116 497.019 35.5116 473.201C31.5419 462.426 31.5419 431.235 31.5419 413.088ZM324.168 282.653L341.181 259.402L395.623 180.574C398.459 177.172 400.16 174.903 401.862 172.068C404.13 168.665 406.398 165.263 409.234 161.293L422.277 141.444C423.412 138.041 423.412 134.072 421.71 130.102C421.143 127.834 419.442 125.565 417.741 123.864C416.039 122.163 413.771 120.461 411.502 119.894C407.533 118.193 402.996 118.193 398.459 119.894C391.087 122.73 350.822 177.739 341.748 189.648L340.614 191.349C334.943 198.722 330.406 204.96 325.302 211.198C320.766 216.869 315.662 223.107 311.125 228.778V229.345L282.77 265.64C279.367 270.177 275.964 274.147 272.562 278.684C269.726 282.653 266.323 287.19 262.921 291.16C266.891 295.13 270.293 301.368 273.129 307.606C277.098 318.381 279.934 330.857 281.635 341.065V341.632V343.901C288.441 331.991 299.216 317.247 307.155 306.472C311.125 301.368 313.96 297.398 315.662 295.13L316.796 293.995C319.064 290.026 320.766 287.19 324.168 282.653ZM297.514 372.823C292.41 375.091 286.739 374.524 281.068 368.853C279.934 394.373 276.531 409.118 273.696 422.728C271.995 430.101 270.86 436.339 269.726 444.278C281.635 440.309 292.977 433.503 303.752 427.265C308.289 424.43 312.826 421.594 317.363 419.893V419.326C320.198 418.191 329.272 412.52 337.212 406.849C338.346 406.282 339.48 405.715 340.614 404.581H339.48C338.913 404.581 338.346 404.014 336.645 404.014L333.809 403.447L333.242 400.044C332.675 398.91 332.675 397.776 332.108 396.642C330.406 388.135 329.272 385.299 336.077 376.226L409.801 271.878C415.472 264.506 420.576 257.134 425.113 250.328C429.083 245.224 432.485 239.553 435.888 235.584L461.975 198.722C463.109 197.02 464.81 194.752 466.512 192.484C477.287 178.873 497.135 152.786 495.434 143.145C495.434 140.31 493.733 137.474 492.031 135.206C489.763 132.938 487.494 131.236 484.092 130.669C473.317 128.401 467.646 136.34 460.841 147.115C458.572 149.951 456.871 152.786 454.602 155.622C452.334 159.024 450.066 161.86 447.797 164.695C446.096 168.098 443.827 170.934 441.559 174.336C439.291 177.172 437.022 180.007 434.754 183.41C433.052 186.245 430.784 189.081 428.516 192.484L376.909 265.073L312.259 357.511C307.722 363.749 303.185 369.988 297.514 372.823ZM737.588 188.514C755.735 188.514 760.839 190.782 760.839 208.363C760.839 220.839 748.363 223.107 735.319 223.107C733.051 223.107 730.216 223.107 727.38 223.107C725.112 223.107 722.843 222.54 720.575 222.54H635.509C633.808 222.54 632.106 223.107 629.838 223.107C626.435 223.107 623.033 223.674 620.197 223.107C610.556 223.107 603.184 219.705 603.751 206.661C604.318 189.081 624.734 189.648 648.552 190.782C659.327 191.349 670.67 191.916 680.877 190.782C687.683 189.648 693.921 189.648 700.726 189.081C707.531 189.081 714.904 189.081 722.843 189.081C725.679 189.081 728.514 189.081 731.35 189.081L737.588 188.514ZM574.829 147.115C567.456 147.115 554.98 147.115 554.98 131.236V130.102L612.258 13.2783C616.227 5.33885 621.331 1.36911 626.435 0.234903C629.271 -0.332202 632.106 0.234902 634.375 0.802007C636.643 1.93622 638.912 3.63753 640.613 5.33885C644.583 9.87569 646.284 15.5467 644.583 21.7849C643.448 25.7546 640.613 30.8586 638.344 35.3954C637.21 37.0967 636.643 38.7981 635.509 39.9323C631.539 49.006 632.106 47.8717 623.6 64.3178L599.781 111.388C599.214 112.522 598.647 114.79 597.513 117.059C592.409 128.401 583.902 147.115 574.829 147.115ZM445.529 278.116L371.238 384.165C387.684 373.39 410.368 358.078 424.546 348.438C430.217 344.468 434.754 341.632 436.455 340.498C445.529 334.827 445.529 334.26 449.498 327.455L451.767 324.052L492.598 259.969C493.733 258.835 494.3 257.701 494.867 256.566C499.404 250.328 504.508 242.389 499.404 233.882C499.404 233.315 498.837 232.748 498.269 232.181C496.001 229.913 493.166 228.778 490.33 228.211C487.494 227.644 484.659 228.211 481.823 229.913C481.256 230.48 480.122 231.047 479.555 232.181C475.585 235.584 469.347 244.657 463.109 253.731C457.438 262.805 450.633 272.445 445.529 278.116ZM585.037 170.366C584.47 169.232 584.469 167.531 584.469 165.83C584.469 156.756 591.275 152.786 597.513 149.384C598.647 148.816 599.781 148.249 600.916 147.682L684.847 97.2099C687.683 95.5086 690.518 93.8073 693.354 92.1059C696.189 90.4046 699.025 89.2704 701.86 87.002C717.739 76.227 718.306 76.227 731.35 79.6296L735.887 80.7639L738.722 95.5086V96.0757C738.722 106.284 690.518 133.505 671.237 144.28C667.267 146.548 664.998 147.682 664.431 148.249C646.284 156.756 624.167 171.501 606.587 182.276H606.019C604.318 182.843 603.184 182.843 602.05 182.843C598.647 182.843 595.245 181.709 591.842 180.007C589.006 177.739 586.171 174.903 585.037 170.366Z" fill="url(#paint0_linear_202_353)"/>
  <defs>
    <linearGradient id="paint0_linear_202_353" x1="0.351081" y1="463.56" x2="760.839" y2="463.56" gradientUnits="userSpaceOnUse">
      <stop stop-color="#FF5C77"/>
      <stop offset="1" stop-color="#0097A7"/>
    </linearGradient>
  </defs>
</svg>