<svg xmlns="http://www.w3.org/2000/svg" width="685" height="684" viewBox="0 0 685 684" fill="none">
  <path fill-rule="evenodd" clip-rule="evenodd" d="M322.417 36.4239C339.65 36.4239 347.092 32.899 374.508 37.2073L421.898 45.0404L425.814 46.9986C428.164 47.782 428.556 47.782 431.298 48.5653L463.413 59.9233C475.555 65.4064 490.438 73.2396 501.404 79.8977C520.203 91.2557 533.911 102.614 550.361 116.322C555.844 121.022 559.369 126.896 565.244 130.421C567.594 134.338 570.727 138.254 574.252 141.779C596.185 164.495 618.509 206.011 629.867 235.385C667.466 333.299 647.491 449.229 583.652 531.085C566.027 553.801 560.936 556.934 541.744 574.95C535.87 580.433 520.595 590.225 518.245 594.141C512.762 596.491 511.587 597.666 506.887 600.799C493.179 610.199 464.588 623.907 448.922 629.782L422.681 638.398C422.289 638.79 421.898 638.79 421.898 639.182C415.24 639.182 372.941 649.365 342 649.365C311.843 649.365 269.936 639.182 262.886 639.182C257.403 636.048 251.136 635.265 245.261 633.307C239.386 631.348 234.687 629.39 228.42 627.04C216.279 621.949 206.487 617.249 195.913 611.766C162.622 594.533 159.097 585.917 139.123 572.6L119.148 553.409C103.482 537.351 79.9826 503.669 70.5829 484.478C52.9584 448.837 36.5089 405.363 36.5089 362.281C36.1172 343.09 33.7673 356.798 36.1172 325.857C39.2505 287.475 40.4254 270.242 56.875 229.118C74.4995 184.861 87.0324 170.37 113.273 137.863C114.84 135.904 116.015 134.338 117.973 131.988C121.498 128.855 124.24 125.721 128.156 122.196C132.464 117.497 135.206 115.93 139.514 112.013C155.572 97.9138 201.396 64.6231 217.454 62.2732C226.07 56.3984 254.661 47.3903 266.411 44.6487C280.902 41.1238 304.01 36.4239 322.417 36.4239ZM518.245 636.048C519.42 634.874 555.452 612.549 575.818 591.791C582.868 584.35 593.835 575.342 601.668 565.159C618.509 542.834 617.726 545.968 634.567 520.118C659.241 481.736 674.907 431.213 681.957 384.606C695.273 295.308 663.941 192.694 606.759 124.938C602.451 119.847 599.318 115.93 594.618 111.23C592.268 108.88 590.31 107.314 588.351 104.572L567.985 85.3809C554.669 68.9314 506.104 41.1238 484.171 30.5491C478.296 27.4159 471.638 25.0659 464.588 22.3243C457.538 19.5828 452.447 17.2328 444.222 15.2746C437.956 13.3163 426.598 10.9663 421.898 8.61641L399.965 4.69986C372.941 -4.37709e-06 351.4 0 322.026 0C296.96 0 246.436 11.358 221.37 21.541C215.495 23.891 218.237 22.716 217.454 24.6743C198.263 25.8493 139.123 64.2315 120.715 81.4643L118.365 83.4226C118.365 83.4226 117.973 83.8142 117.973 84.2059C107.79 90.0807 76.4577 126.113 70.1912 133.946C55.3083 153.137 44.342 172.72 32.984 195.044C1.25988 257.709 -6.57323 331.34 5.17643 403.405C11.4429 441.396 26.3258 479.386 45.1253 511.502C55.3083 529.91 71.7579 554.192 85.8575 569.075L123.848 605.499C128.156 609.416 132.856 613.332 137.556 616.074C139.906 618.816 146.172 622.732 150.089 625.474C154.789 628.999 159.097 631.349 164.189 634.482C173.197 640.357 182.988 645.056 193.171 650.148C209.229 658.373 243.695 671.689 260.927 674.431C284.427 684.222 355.316 685.789 383.516 681.872C390.565 681.089 395.657 680.305 402.315 679.13C409.365 677.956 416.023 675.997 421.898 675.214C433.256 670.122 464.98 665.814 506.495 642.315C511.587 639.573 512.37 638.398 518.245 636.048ZM471.638 250.659C483.779 256.534 487.304 256.926 496.312 266.326C502.971 273.375 506.495 281.209 508.845 292.567C510.804 300.791 508.454 314.108 522.553 318.024C558.194 328.207 551.536 255.359 503.754 226.768C493.571 220.502 487.304 218.544 473.988 215.019C420.331 204.836 370.591 248.31 370.983 298.441C370.983 318.808 387.432 321.549 396.44 316.849C414.848 307.45 396.44 276.9 432.081 256.534C450.88 245.568 461.063 250.659 471.638 250.659ZM217.454 214.627C158.314 215.41 123.065 295.308 144.997 314.499C153.614 321.941 166.538 319.591 172.022 309.799C174.763 304.708 173.588 257.318 215.887 250.659C251.528 245.568 275.027 267.109 278.16 300.008C280.902 327.816 312.234 321.941 313.409 301.575C314.976 263.584 288.343 231.468 256.619 218.935L227.245 213.452C220.195 213.061 223.72 214.236 217.454 214.627ZM382.732 160.97C382.732 190.345 414.848 175.853 423.073 173.503C444.222 168.412 471.638 167.629 493.179 173.503C498.662 174.678 511.979 179.77 515.895 179.77C524.903 179.77 533.52 172.72 533.52 162.537C533.52 146.087 519.812 144.129 506.495 140.213C471.246 129.638 426.598 131.205 393.307 145.304C387.824 147.654 382.732 153.921 382.732 160.97ZM150.872 160.97C150.872 190.345 182.988 175.853 191.213 173.503C212.362 168.412 239.778 167.629 261.319 173.503C266.802 174.678 280.119 179.77 284.035 179.77C293.043 179.77 301.66 172.72 301.66 162.537C301.66 146.087 287.952 144.129 274.635 140.213C239.386 129.638 194.738 131.205 161.447 145.304C155.964 147.654 150.872 153.921 150.872 160.97ZM266.802 459.412C266.802 487.219 271.894 504.844 288.343 524.818C315.759 558.892 367.458 558.892 395.265 525.602C443.439 468.812 408.19 375.598 342 375.598C300.876 375.598 266.802 416.721 266.802 459.412Z" fill="url(#paint0_linear_202_367)"/>
  <defs>
    <linearGradient id="paint0_linear_202_367" x1="0.0849109" y1="341.915" x2="685.09" y2="341.915" gradientUnits="userSpaceOnUse">
      <stop stop-color="#FF5C77"/>
      <stop offset="1" stop-color="#0097A7"/>
    </linearGradient>
  </defs>
</svg>