<svg xmlns="http://www.w3.org/2000/svg" width="650" height="650" viewBox="0 0 650 650" fill="none">
  <path fill-rule="evenodd" clip-rule="evenodd" d="M517.851 649.222H27.3063V647.771L19.5659 644.868L12.7931 639.546H12.3093C10.858 638.579 8.92291 635.676 7.47159 633.257C5.53651 630.839 4.08519 628.42 3.60142 626.485C3.60142 626.001 3.60142 626.001 3.60142 626.485C3.11765 625.033 2.63388 624.066 2.63388 623.582C2.15011 623.098 1.66632 622.131 1.18255 619.228V618.26C1.18255 616.809 1.18256 616.325 0.698793 614.874C0.215021 613.907 0.21501 593.104 0.21501 566.981C-0.268762 523.925 0.21501 466.356 0.21501 460.551C0.21501 457.648 1.66633 454.262 2.63388 451.359C3.11765 449.908 3.60143 448.94 4.0852 447.489L17.147 416.528C17.147 415.56 17.6308 415.56 17.6308 415.076C17.6308 415.076 17.6308 415.076 18.1146 414.593C18.5984 412.657 19.0821 411.69 19.5659 411.206C19.5659 410.722 20.0497 410.239 20.0497 410.239C20.0497 409.755 20.0497 409.755 20.0497 409.755C20.0497 409.271 20.5334 408.787 20.5334 407.82C21.0172 406.368 21.501 405.401 21.9848 404.433C23.9198 399.596 25.3712 394.758 27.79 390.404L28.7576 389.436C28.7576 388.469 29.2413 387.985 29.7251 387.018C33.5953 376.858 37.4655 367.183 41.8194 357.024L47.1409 343.478H47.6247C48.1084 342.027 48.5922 340.092 49.076 338.64C49.5598 337.189 50.0435 335.738 51.0111 334.286C52.4624 330.9 52.4624 330.416 52.4624 325.095V224.954C52.4624 222.051 52.4624 219.632 52.4624 217.214C51.9786 203.668 51.4948 192.541 61.1703 181.414C63.5891 178.996 66.008 176.577 68.9106 174.158C71.3295 172.707 74.7159 170.771 77.6185 169.804C83.4238 167.869 91.1641 167.869 97.9369 168.353C99.3883 168.353 100.84 168.353 102.291 168.353C104.71 168.353 106.645 168.353 108.58 169.32C110.999 169.804 112.934 171.255 114.385 173.674C115.353 175.609 115.837 177.544 116.32 179.479C116.32 181.898 115.837 184.317 114.869 186.252C113.901 188.671 111.966 190.122 110.031 191.574C108.096 192.541 106.161 193.025 104.226 193.509C101.323 193.509 98.4207 193.509 95.0343 193.509C92.1317 193.509 88.7453 193.025 85.8426 193.509C84.8751 193.993 83.4238 194.96 82.4563 195.928C80.5212 197.379 79.5536 199.314 78.5861 200.765C77.1348 204.152 77.6185 211.892 77.6185 218.181C77.6185 220.6 77.6185 222.535 77.6185 223.503V228.824C77.6185 249.143 77.6185 318.806 77.6185 321.225C78.1023 322.676 78.1023 320.257 78.5861 320.257C79.0699 320.257 79.5536 320.257 80.5212 320.257H451.09C452.542 320.257 455.444 320.257 457.863 320.257C463.185 320.257 468.99 320.741 472.86 320.257C473.344 306.228 473.344 242.37 472.86 219.632C472.86 213.343 472.86 214.311 472.86 211.408C472.86 207.538 472.86 204.636 472.376 202.217C471.893 199.798 470.441 197.863 468.022 195.928C465.604 193.509 460.766 193.509 456.896 193.509C455.928 193.509 455.444 193.509 454.961 193.509H286.608C285.64 193.509 285.157 193.993 284.673 193.993C280.803 193.993 276.449 193.993 272.579 191.574V191.09C270.644 189.639 269.192 188.187 268.225 185.768C267.257 183.833 266.773 181.898 267.257 178.512C267.257 176.093 268.708 173.674 270.16 171.739C271.611 170.288 273.546 169.32 275.965 168.353C279.835 167.385 299.67 167.869 319.021 167.869C336.437 168.353 354.336 168.836 357.723 168.836C357.723 165.45 357.723 154.807 357.723 143.68C357.723 132.553 357.723 121.911 357.723 118.04C352.885 117.557 336.436 117.557 324.342 118.04C318.053 118.04 312.732 118.04 310.797 118.04C308.378 118.04 304.991 117.073 302.089 116.105C299.186 115.138 296.767 113.686 294.832 112.235C286.124 103.527 286.124 100.141 286.124 87.0789V35.7991C286.124 34.3478 286.124 33.3803 285.64 31.9289C285.64 26.1237 285.64 19.8346 288.543 14.5131C289.027 13.5456 289.511 13.0618 289.994 12.5781C290.962 11.6105 291.446 10.643 291.446 10.1592C293.865 6.77281 294.348 5.80525 301.121 2.41885C302.089 1.4513 303.056 1.4513 304.024 1.4513C304.508 0.967531 304.991 0.967543 305.475 0.967543L305.959 0H478.665L479.149 0.48376C480.117 0.967532 480.117 0.967531 480.601 1.4513C480.601 1.93507 480.601 1.4513 481.568 1.4513C483.987 2.41885 486.89 3.87018 489.308 6.28904C491.727 8.22413 494.146 11.1268 495.114 13.0618C496.565 15.9645 496.565 16.4483 497.049 17.4158C497.049 17.8996 497.049 18.8671 497.533 19.8346C498.984 24.1886 498.5 40.1531 498.5 49.3447C498.5 50.7961 498.5 51.7636 498.5 53.6987V87.5627V88.0465C498.5 93.8518 498.5 99.1732 495.597 103.527V104.011C494.146 106.43 490.76 112.235 486.89 113.686C485.922 114.654 484.471 115.621 483.019 116.105C482.052 116.589 481.084 117.073 479.633 117.073C479.149 118.524 478.665 118.524 475.763 118.524C470.925 119.008 446.737 119.008 432.707 119.008H427.386V166.901H455.928C456.896 166.901 457.863 166.901 458.347 166.901C461.733 166.901 464.636 166.418 466.571 168.353C473.344 168.353 479.149 172.223 483.019 174.642C483.987 175.609 484.954 176.093 484.954 176.093L486.89 176.577L487.373 178.996C488.341 179.963 489.308 180.931 490.76 182.382C492.211 184.801 494.146 187.703 494.63 189.639C496.565 193.509 496.565 194.476 497.049 196.411C497.049 197.379 497.049 198.346 497.533 199.798C498.016 242.37 498.5 284.942 498.5 327.03C498.5 330.416 498.984 331.384 499.468 333.319C499.951 333.803 500.435 334.77 500.919 335.738C501.403 337.189 501.887 338.64 502.37 339.608C502.854 341.543 503.338 342.994 504.305 344.446L506.724 351.218C507.208 350.735 507.692 350.735 508.659 350.251C515.916 348.316 523.656 346.864 531.397 345.897C538.169 344.929 544.942 344.929 550.747 345.897C552.199 346.381 553.166 346.381 554.134 346.381C555.101 346.381 555.585 346.381 556.553 346.381C558.004 346.865 558.972 346.864 559.455 347.348C559.939 347.348 560.423 347.832 561.874 347.832C566.712 347.832 571.55 349.283 575.904 350.735C580.258 352.186 584.128 354.605 587.998 356.056C588.482 356.54 588.966 356.54 588.966 356.54H589.449C590.417 357.507 592.352 357.991 593.319 358.959C594.771 360.41 596.222 362.345 597.19 365.248C597.673 367.183 598.157 369.602 597.19 372.021C597.19 372.988 596.706 373.472 596.706 374.439C594.771 377.342 592.352 379.277 589.449 380.245C586.547 381.212 583.644 381.212 581.225 380.729C580.741 380.729 580.258 380.245 579.774 380.245L560.907 372.988C559.939 372.988 558.972 372.504 558.488 372.504C558.004 372.021 557.52 372.021 556.069 372.021C554.134 372.021 552.683 371.537 551.231 371.537C548.812 371.053 546.877 371.053 543.975 371.053C541.072 371.053 537.202 371.053 533.332 371.537C530.913 371.537 528.494 372.021 526.559 372.504C525.591 372.988 524.14 372.988 522.205 373.472C518.818 374.439 514.465 375.407 511.562 376.375L496.081 384.599L484.954 392.823L470.925 410.239C469.958 411.206 468.506 414.109 467.055 417.011C464.636 421.849 462.217 427.171 462.217 428.138L460.282 436.362C460.282 437.33 460.282 437.814 459.798 438.297C459.798 438.297 459.798 438.297 459.798 438.781C459.798 439.749 459.798 440.716 459.315 442.168C459.315 443.135 459.315 444.103 459.315 445.07C458.831 449.424 458.831 453.778 458.831 458.132C459.315 462.486 459.798 466.84 460.766 471.194C461.25 474.096 462.701 477.483 463.669 480.386C464.636 482.321 465.12 484.739 465.604 486.191C466.087 488.61 468.506 492.48 471.409 496.834C475.279 502.639 480.117 508.444 483.019 510.863L483.503 511.347C483.987 511.831 484.471 512.315 484.954 512.798C487.857 515.217 492.211 519.571 494.146 521.022L508.176 528.279C509.143 528.763 509.627 528.763 510.594 529.247C512.046 529.73 513.497 530.214 514.465 530.698C514.948 531.182 516.4 531.665 517.367 531.665C518.335 532.149 519.302 532.633 520.27 532.633C523.656 534.084 527.526 534.568 531.397 535.052H534.299C540.104 535.536 544.458 536.019 550.264 535.052C551.231 535.052 552.199 534.568 552.683 534.568C557.52 534.084 566.228 532.149 567.68 531.182C569.131 530.214 571.066 529.73 573.485 528.763C575.42 527.795 577.839 526.828 579.774 525.86L582.193 524.409C588.482 521.022 591.868 519.087 597.673 512.798L604.446 506.025C607.833 502.639 611.703 496.35 615.089 489.577C617.992 483.288 620.411 476.999 621.378 472.645C621.378 471.194 621.862 470.226 621.862 469.742C622.346 469.259 622.346 468.291 622.346 467.324C622.829 465.389 622.829 464.421 623.313 462.97C623.313 461.518 623.797 460.067 623.797 456.197C623.797 448.94 623.313 444.103 622.829 439.265C621.862 434.427 620.411 429.589 617.992 422.817L615.089 416.528C614.122 413.141 611.219 409.271 608.316 405.401C605.897 402.498 603.962 400.079 603.479 398.144C602.511 394.274 602.995 390.888 603.962 387.985C604.93 386.534 606.381 385.082 607.349 384.115C608.8 383.147 610.251 382.18 612.187 381.696C615.089 380.729 618.959 381.212 621.378 382.664C623.797 383.631 625.248 385.566 626.7 387.501C627.183 387.985 627.183 388.953 627.667 389.436C629.602 390.888 630.57 392.823 631.537 394.758C632.021 395.725 632.505 396.693 633.473 397.66C634.924 399.596 635.891 401.531 636.375 403.466C636.859 403.95 637.343 404.917 637.343 405.401C638.794 406.368 638.794 406.368 639.278 408.304C640.245 410.239 641.213 412.174 642.18 415.076C643.632 419.43 645.083 424.752 645.567 426.687C645.567 428.138 646.05 429.106 646.05 430.073C647.018 432.008 647.502 433.943 647.986 438.781C647.986 440.232 647.986 441.2 648.469 442.168C648.469 443.619 648.953 445.554 648.953 447.973C649.437 464.905 647.986 468.775 647.018 471.678C647.018 472.161 646.534 473.129 646.534 474.096C646.534 476.515 646.051 477.483 645.567 478.934C645.567 479.418 645.567 479.902 645.083 480.869V481.353C645.083 482.321 644.599 482.321 644.599 482.804C644.599 483.288 644.115 483.772 644.115 483.772C643.632 486.191 642.664 491.028 640.729 494.415L640.245 495.382C638.31 499.736 634.44 507.961 632.021 510.863C631.054 511.831 630.57 513.282 629.602 514.25C628.635 516.185 627.667 517.636 626.216 519.571C623.797 521.99 621.378 525.376 617.992 528.763C615.089 531.665 612.187 535.052 609.284 536.987C605.898 539.406 602.995 541.341 600.576 543.276C597.673 545.211 594.771 546.662 590.901 548.597C590.417 549.081 589.933 549.081 589.449 549.565L588.482 550.532C583.644 553.435 580.741 553.919 578.322 554.886C576.871 554.886 574.936 555.37 573.001 556.338C572.517 556.821 572.033 557.305 571.066 557.305L570.582 557.789C569.131 557.789 561.874 559.24 556.069 560.208C551.231 560.692 546.393 561.175 544.458 561.175C537.686 561.175 531.397 560.692 525.108 559.724C518.819 558.757 513.013 557.305 506.724 555.37C506.724 559.24 506.724 563.11 506.724 566.981C507.208 575.205 507.692 583.913 504.305 591.169C496.565 606.65 483.019 606.166 468.506 605.682C465.604 605.682 463.185 605.199 460.282 605.199H80.5212C78.5861 605.199 77.6185 605.682 76.651 605.682C67.9431 605.682 59.719 605.682 52.4624 598.91V598.426L45.6896 588.267L45.2058 587.783C43.7545 583.429 43.7545 579.559 43.7545 575.205C43.7545 574.721 43.7545 574.237 43.7545 572.302H44.2383V516.185C44.2383 511.831 45.2058 508.928 46.6571 506.025V505.542C48.5922 501.188 50.5273 499.736 52.9462 498.285C52.9462 497.801 53.4299 497.318 54.3975 496.834C56.8163 494.415 60.2028 492.964 63.5892 491.996C66.4918 491.512 69.8782 491.029 73.2646 491.029H318.053C328.696 491.029 344.177 491.029 359.658 491.512C386.749 491.512 413.84 491.512 440.447 491.029L439.964 488.61C438.512 484.74 437.061 480.385 436.094 478.45C435.61 477.483 435.61 476.515 435.61 475.548C435.61 475.064 435.126 474.097 435.126 473.129H25.3711C25.3711 477.483 25.3711 482.804 25.3711 487.642C25.3711 490.545 25.3711 493.447 25.3711 495.382V597.942C25.3711 599.393 25.3711 600.845 25.3711 602.78C25.3711 607.617 24.8874 613.423 27.3063 617.293C30.6927 624.066 36.4979 624.066 42.7869 623.582C44.2383 623.582 43.7545 623.582 44.722 623.582H507.208H510.594C514.948 624.066 515.916 624.066 521.237 620.679C522.205 619.712 523.172 618.261 524.14 616.809C525.108 614.874 525.108 611.971 525.108 610.036C525.108 609.069 525.108 607.617 525.108 606.166C525.108 598.91 524.624 587.299 527.043 583.429C528.01 581.978 529.461 581.01 530.913 580.043C533.332 578.591 535.751 577.624 538.169 577.624C540.588 577.624 543.007 578.591 545.426 580.043C546.877 581.01 547.845 582.461 548.812 583.913C550.264 586.332 551.231 593.104 551.231 600.845C551.231 610.52 550.264 621.647 549.296 623.582C548.812 624.55 548.329 625.517 547.845 626.485C546.877 628.42 545.91 629.871 544.458 632.29C543.007 634.709 540.588 637.611 537.686 640.03C534.783 642.449 531.88 644.384 529.461 645.352L527.526 646.319C525.108 647.287 523.656 647.771 520.27 648.254L519.786 649.222H517.851ZM455.444 517.636C454.961 517.152 454.477 516.668 453.509 516.668H71.3295C70.362 516.668 69.8782 516.668 69.3944 516.668V578.591C69.3944 579.559 68.9106 580.043 69.3944 580.043C69.3944 580.043 69.8782 580.043 70.8457 580.043H480.117C480.601 580.043 480.117 580.043 480.601 580.043C481.084 580.043 480.601 580.043 481.084 580.043C481.084 579.559 481.084 579.559 481.568 579.559C481.568 579.075 481.568 578.591 481.568 578.107V543.76V543.276C481.568 542.792 481.568 542.792 480.117 541.825C477.214 539.89 472.376 536.019 467.539 531.665C463.668 528.279 460.282 524.893 458.831 522.957C457.863 521.022 456.412 519.571 455.444 517.636ZM283.222 561.175H267.741C262.419 561.175 258.549 558.757 256.13 555.37C254.679 553.919 254.195 551.984 253.712 549.565C253.712 547.63 253.712 545.695 254.679 543.76C255.647 540.373 258.549 536.987 263.387 536.019C264.838 535.536 270.16 535.536 275.481 535.536C281.287 535.536 286.608 535.536 288.543 536.019H289.027C289.511 536.019 289.994 536.503 290.478 536.503C290.962 536.987 291.446 536.987 291.446 537.471C291.446 537.471 291.93 537.954 292.413 538.438C294.348 539.889 295.8 542.308 296.767 545.211C297.251 547.63 296.767 550.049 296.283 552.468C295.316 554.886 293.865 556.821 291.929 558.757C289.511 560.208 286.608 561.175 283.222 561.175ZM245.487 428.622H227.588C224.685 428.622 222.266 428.138 220.331 426.687C218.396 425.719 216.945 423.784 215.494 421.365C215.01 419.914 214.042 416.528 214.526 414.109C215.01 411.69 215.494 409.271 217.429 407.336C220.331 404.917 220.815 404.917 222.266 404.433C222.75 404.433 222.75 404.433 223.234 403.95C223.718 403.95 224.201 403.95 224.201 403.95C225.169 403.466 225.653 402.982 228.072 402.982H244.036C246.455 402.982 248.39 403.466 249.841 403.95C251.293 404.433 252.744 404.917 254.195 406.368C254.679 406.368 254.679 406.852 255.163 407.336C257.098 409.271 258.549 412.174 258.549 415.076C258.549 418.463 258.065 421.365 255.647 424.268C255.163 424.268 255.163 424.752 254.679 424.752C253.228 426.203 252.26 427.171 250.809 427.654C249.358 428.138 247.906 428.622 245.487 428.622ZM400.778 428.622H383.362C380.944 428.622 379.492 428.138 378.041 427.654C376.106 427.171 375.138 426.203 373.687 425.235C372.236 423.3 370.784 421.365 370.301 418.463C369.817 416.528 369.817 414.109 370.784 411.69C371.268 409.271 373.203 407.336 375.622 405.401C377.557 403.95 380.46 402.982 384.33 402.982C385.781 402.982 386.265 402.982 387.233 402.982C392.554 402.982 403.197 402.982 405.616 403.95C407.551 404.433 408.519 404.917 409.97 405.885C410.937 407.336 411.905 408.303 412.872 410.722C415.291 416.044 415.291 416.044 413.84 419.43C413.356 419.914 413.356 420.398 412.872 420.882C411.905 423.3 410.454 425.236 408.519 426.687C406.1 428.138 403.681 428.622 400.778 428.622ZM292.413 414.109C292.897 406.852 298.702 404.917 300.637 403.95C300.637 403.95 301.121 403.95 301.605 403.95C301.605 403.466 302.089 403.466 302.572 403.466H303.056C309.829 403.466 316.602 402.982 323.375 402.982C328.696 403.466 332.083 405.401 334.501 408.304C335.469 410.239 336.436 412.174 336.436 414.109C336.92 416.528 336.437 418.463 335.953 420.398C334.501 423.784 332.083 426.687 327.729 428.138C325.31 428.622 319.988 428.622 315.634 428.622C315.151 428.622 314.183 428.622 312.732 428.622C311.764 428.622 311.28 428.622 310.797 428.622C308.862 428.622 306.443 428.622 304.508 428.622C297.735 427.654 290.962 424.752 292.413 414.109ZM322.407 387.018H305.959C304.024 387.018 302.089 387.018 300.637 386.534C299.186 386.05 298.219 385.082 296.767 384.115C296.283 383.631 295.8 383.631 295.8 383.147C293.381 380.728 292.413 377.826 292.413 374.439C292.413 371.537 293.381 368.15 295.316 365.732C295.8 365.248 295.8 365.248 296.283 364.764C297.251 363.796 298.219 363.313 299.67 362.829L300.154 362.345C302.572 360.894 313.699 361.378 319.988 361.378C320.956 361.378 321.923 361.378 322.891 361.378C326.277 361.378 329.18 362.345 331.599 364.28C333.534 365.732 334.985 367.667 335.953 370.086C336.437 372.504 336.92 374.923 335.953 377.342C335.469 379.761 334.018 382.18 332.083 384.115C330.631 385.082 329.18 386.05 327.729 386.534C326.277 387.018 324.826 387.018 322.407 387.018ZM167.6 428.622H149.701C148.249 428.622 145.83 428.138 144.379 427.654C142.444 427.171 140.993 426.203 139.541 424.752C138.09 422.817 137.606 420.882 137.122 419.43C136.155 416.528 136.155 414.109 137.122 411.69C137.606 409.755 139.058 407.82 140.993 406.368C142.444 404.917 143.895 404.433 145.347 403.95C149.217 402.982 156.957 402.982 162.762 402.982C163.73 402.982 164.697 402.982 166.149 402.982C168.568 402.982 170.503 403.466 171.954 403.95C173.889 404.433 175.34 404.917 176.792 406.368C178.727 408.303 180.178 410.239 180.662 412.658C181.63 415.076 181.146 417.979 180.662 419.914C179.694 422.333 178.243 424.268 175.824 426.203C173.889 427.654 170.986 428.622 167.6 428.622ZM153.571 387.018C152.603 387.018 151.636 387.018 150.184 387.018C146.314 387.018 142.928 385.566 140.993 383.631C138.09 381.212 136.639 378.31 136.639 374.439C136.639 371.537 137.606 369.118 138.574 367.183C140.025 365.248 141.96 363.797 143.895 362.345C146.798 361.378 158.408 361.378 164.697 361.378C165.665 361.378 166.149 361.378 167.6 361.378C171.954 361.378 175.34 363.313 177.759 365.732C179.211 367.183 180.178 369.118 180.662 371.537C181.146 373.472 181.146 375.891 180.662 377.826C179.211 381.212 177.276 384.115 173.405 386.05C170.503 387.501 159.376 387.018 153.571 387.018ZM400.294 387.018H383.846C379.008 387.018 375.138 385.082 373.203 382.664C371.752 381.696 371.268 380.245 370.784 378.793C369.817 377.342 369.817 375.891 369.817 374.439C369.817 371.053 371.268 367.183 373.687 364.764C375.138 363.796 376.59 362.829 378.041 362.345C379.492 361.861 381.427 361.378 383.362 361.378H400.778C407.067 361.378 411.421 364.764 413.356 369.118C414.324 370.569 414.324 372.504 414.324 374.439C414.324 375.891 414.324 377.826 413.356 379.277C411.421 383.631 407.067 387.018 400.294 387.018ZM230.974 387.018C230.007 387.018 229.523 387.018 228.072 387.018C223.718 387.018 220.331 386.05 217.912 384.115C215.494 381.696 214.042 378.31 214.042 373.956C214.042 371.053 215.01 369.118 216.461 367.183C217.912 364.764 220.331 363.313 222.75 362.345C225.169 361.378 236.296 361.378 242.101 361.378C243.069 361.378 243.552 361.378 245.004 361.378C246.939 361.378 248.874 361.861 250.325 362.345C252.26 362.829 253.712 363.796 255.163 365.248C256.13 366.215 257.098 367.667 258.065 369.602C259.033 371.537 259.033 373.956 258.549 376.375C258.549 378.793 257.098 381.212 255.163 383.147C253.712 384.599 252.26 385.566 250.325 386.534C247.906 387.501 236.78 387.018 230.974 387.018ZM199.045 238.016H178.727C176.308 238.016 174.857 238.016 173.405 238.016C171.47 237.532 170.503 236.564 168.568 235.113C166.633 233.662 165.181 231.243 164.697 228.34C164.214 226.405 164.214 223.986 164.697 221.568C165.665 219.149 167.116 216.73 169.051 215.279C171.47 213.827 174.373 212.86 177.759 212.86H199.529C201.948 212.86 204.367 213.343 206.302 214.311C208.237 215.279 210.172 216.73 211.14 218.665C212.591 220.6 213.075 223.019 213.075 225.438C213.075 227.373 213.075 229.308 211.623 231.243C210.656 234.146 208.721 235.597 206.302 237.048C203.883 238.016 201.464 238.016 199.045 238.016ZM182.113 193.509C181.146 193.509 179.694 193.509 177.759 193.509C175.34 193.509 172.922 193.025 170.986 192.057C168.568 190.606 166.633 189.155 165.665 187.22C164.697 185.285 164.214 182.866 164.214 180.931C164.214 178.996 164.697 177.061 165.181 175.125C167.116 172.223 168.568 170.288 170.986 169.32C172.922 168.353 174.857 168.353 178.243 168.353H199.045C201.464 168.353 203.399 168.353 204.851 168.836C206.302 169.32 207.753 170.288 209.205 171.739C211.14 173.19 212.107 174.642 212.591 176.577C213.558 178.996 213.558 181.414 212.591 183.833C212.107 185.768 211.14 187.704 209.688 189.155C208.237 191.09 206.302 192.057 204.367 192.541C200.497 193.993 189.37 193.509 182.113 193.509ZM199.045 148.518H178.243C173.405 148.518 169.535 146.583 167.6 144.164C166.149 142.713 165.665 141.261 165.181 139.81C164.697 138.359 164.214 136.907 164.214 135.456C164.214 132.07 165.665 128.683 168.084 126.264C169.535 124.813 170.987 124.329 172.438 123.846C173.889 123.362 175.34 122.878 177.759 122.878H199.529C201.948 122.878 203.399 123.362 205.334 123.846C206.786 124.329 208.237 125.297 209.688 126.748C211.623 129.167 213.075 132.554 213.075 135.94C213.075 137.875 213.075 139.326 212.591 140.778C211.623 142.229 210.656 143.68 209.688 144.648C207.269 147.067 203.883 148.518 199.045 148.518ZM450.607 72.082H334.501C329.664 72.082 326.277 70.1469 323.858 67.7281C322.891 66.7605 321.923 65.3092 321.44 63.8579C320.956 61.9228 320.472 60.4715 320.472 59.0202C320.472 55.6338 321.923 52.2474 324.826 49.3447C326.277 47.8934 327.729 47.4096 329.18 46.9259C330.631 46.4421 332.566 46.4421 334.501 46.4421H449.639C452.058 46.4421 453.509 46.4421 454.961 46.9259C456.412 47.4096 457.863 48.3772 459.315 49.8285C462.217 52.7311 463.669 56.1175 463.669 59.5039C463.669 62.8904 462.217 65.793 460.282 68.2118L459.798 68.6956C458.347 70.1469 456.896 71.1145 455.444 71.5982C453.509 72.082 452.058 72.082 450.607 72.082ZM536.718 482.321C537.686 482.804 539.137 483.288 541.072 483.288L543.975 482.804C545.426 481.837 546.877 481.353 547.845 479.902C548.812 478.934 549.296 477.967 549.78 476.515C549.78 471.678 549.296 470.71 546.877 468.775L546.393 468.291C543.975 466.356 542.523 466.356 540.588 465.872C537.686 465.872 534.299 465.872 528.494 463.454C526.075 462.486 524.14 461.518 522.205 460.067C520.27 459.1 518.335 457.648 516.883 455.713C511.562 450.392 508.176 443.135 507.208 435.879C506.24 429.106 507.692 421.365 511.562 415.076C513.497 411.206 515.916 408.303 518.819 405.401C521.721 402.982 524.624 401.531 528.494 399.596C528.494 398.628 528.494 398.144 528.494 397.177C528.494 392.339 528.494 386.534 530.913 383.147C532.364 381.212 534.299 379.277 537.202 378.793C539.621 377.826 542.04 377.342 544.458 378.31C554.618 381.212 554.134 388.953 554.134 397.177C554.134 398.144 554.134 398.628 554.134 399.596L554.618 400.079C556.069 400.563 557.036 401.047 558.488 402.014C560.423 402.982 562.358 404.433 563.809 405.885C565.744 407.336 567.196 408.787 568.647 410.722C571.066 413.625 573.001 417.495 573.969 421.365C575.42 424.752 575.904 428.622 575.42 432.492C575.42 437.33 574.452 437.814 572.033 440.232L571.55 440.716C569.615 442.651 566.228 444.103 563.326 444.586C559.939 444.586 557.036 443.619 554.618 441.684C550.747 437.814 550.264 434.427 550.264 431.525C550.264 430.073 549.78 429.106 549.296 428.138C548.812 426.687 547.845 425.236 546.393 424.268C544.942 423.3 543.491 422.817 542.04 422.817C541.556 422.333 541.556 422.333 541.072 422.333C539.137 422.333 537.202 423.3 535.751 424.752C533.815 426.203 532.848 427.654 532.364 430.073C532.364 430.557 532.364 431.041 532.364 431.041V432.008C532.364 432.492 532.364 433.46 532.364 433.943C532.848 434.911 533.332 435.879 534.299 436.846C535.267 437.814 536.234 438.781 537.202 439.265C539.137 440.232 540.104 440.232 542.04 440.716C544.942 440.716 549.296 440.716 557.52 444.586C559.939 445.554 561.39 446.522 563.326 447.973C564.777 449.424 565.744 450.875 567.196 452.811C573.001 460.551 575.42 463.453 575.42 474.58C575.904 481.353 574.936 483.288 573.485 486.191C573.001 487.158 572.517 488.126 572.033 489.577C571.55 491.029 570.582 492.964 569.131 494.415C568.163 495.866 566.712 497.318 565.744 498.285C560.907 503.123 557.036 505.058 554.618 506.509H554.134C554.134 507.477 554.134 508.444 554.134 509.896C554.134 513.766 554.134 519.087 553.166 520.539C553.166 521.506 552.683 522.474 552.199 522.957C550.747 524.409 548.812 526.344 546.393 527.795C543.491 528.763 540.104 529.246 536.718 527.795C535.751 527.795 534.783 526.828 533.332 525.86C527.526 521.506 527.526 515.217 528.01 508.444C528.01 507.961 528.01 506.993 528.01 506.509C525.591 505.058 523.172 503.607 520.754 502.155C517.851 499.736 514.948 497.318 513.013 494.415C511.078 491.996 510.111 489.093 508.659 486.191C507.692 482.804 507.208 479.418 507.208 476.515C506.724 473.129 507.692 470.226 508.659 468.291C510.111 465.872 511.562 464.421 513.497 463.454C515.432 462.486 517.367 462.002 519.302 462.002C521.237 461.518 523.172 462.002 524.624 462.97C531.397 466.84 531.88 470.71 532.364 474.58C532.364 476.032 532.364 477.967 533.332 479.418C534.299 480.386 535.267 481.353 536.718 482.321ZM286.124 273.331V240.435C286.124 234.629 286.124 234.146 287.576 229.792L288.059 229.308C288.543 227.857 289.511 225.921 290.962 223.986C292.413 222.051 294.348 219.632 295.8 218.665L296.283 218.181C297.251 217.214 298.702 216.73 300.154 215.762C301.605 215.278 303.54 214.795 305.475 214.311C306.926 213.827 308.862 213.343 310.797 213.343C312.732 213.343 317.086 213.343 323.375 213.343C355.304 213.343 432.223 213.343 434.642 214.311C435.61 214.795 436.094 214.795 437.061 215.279C438.996 215.762 440.447 216.246 444.318 220.116C444.801 220.116 444.801 220.116 444.801 220.116C445.285 220.6 445.285 220.6 445.769 221.084C446.736 222.051 448.188 223.503 448.672 224.954C449.639 226.405 450.607 227.857 451.09 229.308C453.026 233.662 453.509 234.629 453.509 239.951V273.331C453.509 276.234 453.026 278.653 452.542 280.588C452.058 282.523 451.09 283.974 450.123 286.393C447.704 290.747 444.801 294.133 440.931 296.068C436.577 298.487 432.223 299.455 427.386 299.455H312.732C304.508 299.455 297.735 297.036 293.381 292.682C288.543 287.844 286.124 281.555 286.124 273.331ZM311.764 239.467C311.28 246.24 311.28 255.915 311.764 264.139C311.764 267.526 311.764 270.428 311.764 272.847C311.764 273.815 311.28 274.299 311.28 274.299C311.764 274.299 311.764 274.299 312.732 274.299L427.869 273.815C427.869 273.815 427.869 273.331 427.869 272.847V240.918C427.869 239.951 427.869 239.467 427.386 239.467C427.386 239.467 427.386 239.467 426.418 239.467H312.732C312.248 239.467 311.764 239.467 311.764 239.467ZM128.898 148.518H58.2677L57.7839 146.099C56.8163 145.132 55.8488 144.648 54.3975 142.713C53.4299 141.261 52.9462 140.294 52.9462 138.843C52.4624 137.875 52.4624 136.424 52.4624 134.489C52.4624 130.618 52.4624 127.232 52.4624 123.846V118.04C52.4624 114.17 52.4624 111.751 52.4624 109.332C51.9786 96.2706 51.9786 86.1114 58.7514 73.0496C60.6865 68.6956 64.0729 64.8254 67.4593 61.439C71.8133 57.5689 76.651 53.6987 81.0049 51.2798C83.9076 49.8285 85.8427 49.3447 87.294 49.3447C87.7777 48.861 88.2615 48.861 88.2615 48.861C92.1317 47.8934 93.0992 47.8934 94.0668 47.8934C94.0668 47.8934 94.5505 47.8934 96.0019 47.4096C98.4207 45.9583 152.119 46.4421 174.373 46.4421C176.792 46.4421 178.727 46.4421 182.597 46.4421C185.983 46.4421 187.919 46.4421 189.854 46.4421C200.013 46.4421 209.204 45.9583 218.396 49.8285L221.299 50.796C226.62 52.7311 231.942 56.1175 236.296 60.4715C241.133 65.3092 245.487 71.1145 247.906 76.9197L250.809 86.5952H251.293C251.293 88.0465 251.293 88.5303 251.293 89.014C251.293 89.014 251.293 89.4978 251.776 91.4329C252.744 92.8842 252.744 94.8193 252.744 96.7544V97.7219V273.331H253.712C257.582 273.331 261.452 273.331 263.387 274.782C264.355 275.266 263.871 275.266 264.354 275.266C267.741 277.685 271.611 280.104 271.611 286.877C271.611 289.779 270.644 292.198 269.192 294.133C267.741 296.552 265.806 298.004 263.387 298.971C260.968 299.939 254.679 299.939 250.809 299.455C250.325 299.455 249.841 299.455 248.39 299.455H132.769C131.317 299.455 130.833 299.455 129.866 299.455C125.512 299.939 120.674 299.939 117.288 298.971C113.418 297.036 111.483 294.133 110.515 291.231C110.031 289.779 109.547 287.844 109.547 286.393C110.031 284.942 110.031 283.49 110.515 282.039C111.966 278.653 114.385 276.234 117.772 275.266C121.158 274.299 124.544 274.299 128.415 274.299H128.898V148.518ZM153.571 87.0789L154.538 89.014V89.4978C155.506 92.4004 155.022 248.659 155.022 273.331H225.653V103.527C225.653 102.076 225.653 100.625 225.653 99.1732C225.653 96.2706 225.653 93.368 225.653 91.4329V90.9491C225.653 89.9816 224.685 87.5627 223.234 84.6601C221.299 81.7575 218.88 78.371 216.945 77.4035C215.494 75.9522 212.591 74.5009 210.172 73.5333C207.753 72.5658 205.818 72.082 204.367 72.082H147.765C148.249 72.5658 148.733 73.0496 149.217 74.0171C149.217 74.9846 149.701 74.9846 149.701 75.4684C151.152 78.8548 153.571 83.2088 153.571 87.0789ZM78.1023 98.6895V105.946C78.1023 111.751 78.1023 118.04 78.1023 122.878C81.9725 123.362 88.2615 123.362 95.0343 123.362C107.129 123.362 121.642 123.362 128.898 122.878C129.382 119.008 129.382 112.235 129.382 106.43C129.382 100.625 128.898 95.7868 128.898 94.8193L125.996 84.6601C125.512 83.6925 125.028 83.2088 124.544 82.2412C124.061 81.7574 123.093 80.7899 122.126 79.8224C119.223 77.4035 118.739 76.9197 117.288 75.9522C116.32 75.4684 115.837 74.9846 114.385 74.5009L107.129 72.082C104.71 72.082 101.807 72.082 98.9045 72.5658C96.4856 72.5658 94.0668 73.5333 92.6155 74.0171L86.3264 77.8873C83.4238 80.3061 81.9725 82.725 80.5212 85.6276C80.5212 86.1114 80.0374 87.0789 79.5536 87.5627C79.0699 88.0465 79.0699 89.4978 78.5861 91.4329C78.1023 93.8517 78.1023 96.7544 78.1023 98.6895ZM383.362 166.901H399.811L400.294 118.524H383.362V166.901ZM311.28 27.575C311.28 31.929 311.28 39.6693 311.28 47.8934C311.28 62.8903 310.797 78.8548 311.28 92.4004H311.764C312.248 92.8842 312.248 92.8842 312.732 92.8842H471.409C472.376 92.8842 472.86 92.8842 472.86 92.4004C472.86 92.4004 472.86 91.9167 472.86 90.9491V26.6074C472.86 26.1237 472.86 25.6399 472.86 25.6399H312.248C311.28 25.6399 311.28 26.1237 311.28 27.0912V27.575ZM31.6602 447.489H434.642C435.126 447.489 434.158 447.005 434.158 446.038C434.158 443.619 434.158 440.716 435.126 436.362C435.126 434.911 435.126 434.911 435.61 434.427C436.094 430.073 437.545 424.268 438.512 421.849C438.512 420.882 438.996 420.882 438.996 420.398C439.48 419.43 439.964 418.463 439.964 417.495C441.899 412.657 443.35 407.336 446.253 402.982L454.477 388.953L454.961 387.985C455.444 387.501 456.412 387.018 456.412 386.534C458.831 383.147 459.798 382.18 461.25 380.729C461.733 380.245 462.217 379.761 463.185 379.277C463.669 378.793 463.669 378.31 464.152 377.826C464.636 377.826 464.636 377.342 465.12 376.858C466.571 375.407 467.055 374.923 467.539 374.439C468.506 373.956 468.99 373.472 470.925 371.053L471.409 370.569C472.376 369.602 476.73 366.699 480.117 364.28C481.568 363.313 482.536 362.345 483.503 361.861C482.536 358.475 479.149 350.735 477.214 346.381V345.897H73.7483C73.2646 346.864 72.7808 347.832 72.297 349.283C71.8133 350.735 71.3295 352.186 70.8457 353.154L51.0111 400.563L48.5922 405.885C47.6247 408.303 46.6571 410.722 45.6896 413.625C44.2383 417.011 42.7869 420.882 40.8519 424.752L32.6277 444.586C32.6277 445.07 32.144 446.038 31.6602 447.005V447.489Z" fill="url(#paint0_linear_202_357)"/>
  <defs>
    <linearGradient id="paint0_linear_202_357" x1="0.21501" y1="324.611" x2="648.953" y2="324.611" gradientUnits="userSpaceOnUse">
      <stop stop-color="#FF5C77"/>
      <stop offset="1" stop-color="#0097A7"/>
    </linearGradient>
  </defs>
</svg>