<svg xmlns="http://www.w3.org/2000/svg" width="687" height="678" viewBox="0 0 687 678" fill="none">
  <path fill-rule="evenodd" clip-rule="evenodd" d="M0 37.7954V24.6492L1.64326 24.3753C1.91714 22.4581 2.73877 20.541 3.56041 19.1716C4.92981 16.9805 6.57308 15.0634 8.21636 13.4201C10.1335 11.7768 12.0507 10.6813 13.9678 9.58579C15.885 8.49027 17.5283 7.66863 19.7193 7.12087C20.2671 6.29923 21.0887 6.02535 23.5536 5.75147C25.7446 5.47759 27.6618 5.47759 29.579 5.75147C31.2222 6.02535 33.1394 6.29923 35.0565 6.84698C36.4259 7.39474 38.0692 8.2164 39.7125 9.03804C41.3558 9.85968 42.7252 10.9552 43.8207 11.7768C44.0946 11.7768 44.3684 12.3246 44.9162 12.5985C46.0117 13.4201 47.1072 14.5156 48.2027 15.885C48.7505 16.7067 49.2983 17.5283 49.846 18.3499C50.3938 19.4454 50.9416 20.2671 51.2154 21.0887C52.311 23.2798 52.8587 25.7447 53.1326 28.2096C53.6803 30.9484 53.6803 33.6872 53.4065 36.1521C53.4065 38.0692 52.8587 39.1648 52.5848 40.2603C52.3109 40.5342 52.3109 40.808 53.1326 42.1774V42.4513L58.8841 53.6804L59.7057 52.8587C61.8967 51.4893 64.3616 49.5722 65.4571 48.7505C67.1004 47.1073 68.7437 46.2856 70.387 45.464C71.4825 44.9162 72.3041 44.3685 72.8519 43.8207L81.0683 38.617C81.616 38.0693 82.4377 37.7954 83.2593 37.2476C84.3548 36.6999 84.3548 36.6999 85.1765 36.1521L85.4504 35.6043C91.2018 32.5916 96.6794 29.579 102.431 26.2924C107.087 23.8275 113.112 21.6365 118.316 19.4454C119.138 19.1716 120.233 18.8977 121.876 18.0761C130.093 14.7895 135.844 13.1462 142.965 10.9552C145.156 10.4074 147.895 9.5858 150.086 9.03804C152.277 8.2164 154.194 7.94251 156.385 7.39476C157.754 7.39476 159.124 7.12086 160.219 6.84698C160.493 6.5731 160.493 6.57312 160.767 6.57312C161.315 6.29924 161.863 6.02535 163.232 5.75147L170.353 4.38209L170.627 4.10821C171.722 4.10821 172.544 4.10821 173.366 4.10821C174.461 4.10821 175.557 3.83431 177.2 3.56043C178.569 3.01268 179.939 2.7388 181.308 2.7388C182.404 2.7388 183.499 2.73882 184.321 2.19106C187.06 1.36942 190.072 1.3694 193.359 1.3694C195.55 1.3694 198.015 1.36942 199.932 0.821657C202.123 0.547778 207.874 0 213.9 0C221.295 0 229.237 1.25494e-05 232.524 0.547771C234.988 0.547771 237.453 0.821637 239.918 1.09552C242.657 1.3694 245.122 1.36941 247.587 1.64329C251.147 1.64329 254.982 2.46494 258.816 3.28658C259.911 3.56045 261.007 3.56044 262.376 3.83432L272.51 5.75147C273.332 6.02535 273.879 6.02536 274.427 6.29924C274.701 6.57312 274.975 6.5731 275.523 6.84698C285.382 9.03802 285.93 9.03803 290.86 10.6813C291.681 10.9552 292.777 11.2291 295.242 12.0507L297.981 12.8723C304.28 14.7895 311.127 16.9805 316.878 19.9932C319.617 21.3626 322.63 22.4581 325.369 23.5536C329.203 25.1969 332.763 26.8402 336.598 29.0312C337.145 29.3051 337.419 29.3051 337.967 29.579C338.241 29.8529 338.515 29.8529 339.337 30.4006C339.61 30.4006 340.158 30.6745 340.432 30.9484C340.706 31.2222 341.254 31.4961 341.801 31.77C342.349 32.0439 342.897 32.3178 343.171 32.3178C343.719 32.5917 343.992 32.8655 344.54 33.1394L363.712 42.4513C363.986 42.4513 364.26 42.7252 364.533 42.7252C365.355 42.9991 365.903 42.9991 366.998 43.5468L393.291 53.4065C395.208 53.9543 396.577 54.2281 397.947 54.502L399.864 55.0498L420.131 58.8841C427.8 59.9796 436.838 60.5273 445.602 60.8012C452.723 60.8012 459.843 60.2535 466.143 59.158L480.658 57.5147C481.206 57.5147 481.48 57.5147 481.754 57.5147C482.028 57.2408 482.575 56.9669 483.397 56.693C483.945 56.4192 484.493 56.4192 485.04 56.1453C486.957 55.8714 488.053 55.3236 489.148 55.0498C490.244 54.502 491.066 54.2281 492.709 53.6804C493.257 53.6804 493.804 53.4065 494.352 53.4065C494.9 53.4065 495.174 53.1326 495.722 53.1326C497.913 52.311 499.83 51.4893 502.021 50.9416L503.116 50.6677C503.664 50.6677 503.664 50.6677 503.938 50.3938C504.212 50.3938 504.212 50.3938 504.76 50.1199C508.594 48.7505 513.524 47.1073 517.632 45.7379C520.097 44.9162 523.11 44.3685 526.122 44.0946C528.587 44.0946 531.052 44.0946 533.243 44.9162C539.268 47.1073 543.103 49.0244 546.115 52.0371C549.402 54.7759 551.319 58.0624 554.332 63.54C559.262 73.6736 564.191 84.081 569.395 94.2145C569.395 94.7623 569.395 94.4884 569.669 95.0361C569.669 95.5839 569.943 96.1317 570.217 96.4055C570.491 96.9533 570.765 97.2272 571.038 97.7749C571.312 98.3227 571.586 98.8705 571.86 99.4182C572.956 102.157 574.051 104.622 575.147 107.087C576.516 109.552 577.612 112.017 579.255 114.482C588.841 135.023 598.152 155.837 608.286 176.104C608.286 176.378 608.56 176.926 608.834 177.2C609.108 177.748 609.382 178.295 609.382 178.569C609.929 179.391 610.203 179.939 610.477 180.486C610.751 181.034 610.751 181.308 611.025 181.582C611.573 182.678 611.846 183.499 612.12 184.047C612.668 184.869 613.216 185.416 613.764 186.512C615.133 188.703 616.229 190.894 617.324 193.359C618.693 196.919 620.337 200.206 621.706 203.766C623.349 206.779 624.719 209.518 626.362 212.804L627.184 214.721C627.184 214.995 627.458 215.543 628.005 216.091C628.005 216.365 628.279 216.639 628.553 217.186L640.604 242.931C640.604 243.205 640.604 243.205 640.878 243.205C643.616 248.409 646.081 253.612 648.546 258.816C650.19 262.376 651.833 265.937 654.024 269.771C654.572 271.141 655.393 272.784 655.941 274.427L656.489 275.523C657.037 276.892 657.584 277.714 658.132 278.809C658.406 279.631 658.68 280.452 659.228 281.274L676.482 316.878L676.756 317.152C677.578 319.343 678.673 321.808 679.495 323.999C680.59 326.19 681.96 328.381 683.055 330.572C683.877 331.394 684.151 332.763 684.424 333.585V333.859C684.698 334.133 684.698 334.407 684.972 334.681C684.972 334.954 684.698 334.954 684.698 335.228L686.616 335.776V353.03L685.246 353.304V353.578C684.698 355.495 684.151 356.317 683.329 357.139C683.329 357.413 683.055 357.96 682.507 358.508C682.507 359.056 682.233 359.33 682.233 359.604C681.96 360.425 681.686 360.699 680.316 362.342C678.125 364.807 675.934 366.998 673.195 368.642C670.73 370.559 667.718 371.928 664.157 372.75C662.788 373.024 661.693 373.571 660.597 373.845C659.501 374.393 658.406 374.941 657.036 375.215C655.667 375.762 654.572 376.036 653.476 376.584C652.381 376.858 651.559 377.406 650.464 377.68C648.82 378.227 647.451 378.501 646.081 378.775C644.712 379.049 643.616 379.323 642.521 379.871H642.247L634.852 381.514C633.483 382.062 632.661 382.062 631.566 382.062C631.292 382.062 630.744 382.062 630.196 382.062C629.923 382.062 629.923 382.336 629.923 382.336C629.375 382.609 628.827 383.157 626.636 383.431C625.54 383.705 623.349 383.979 621.432 384.527C614.859 385.622 608.286 386.718 601.165 387.265C596.509 387.813 587.745 388.087 579.255 388.087C572.682 388.087 566.383 387.813 562.548 387.265C561.727 387.265 560.905 386.992 560.083 386.992C558.166 386.718 556.797 386.444 554.332 386.17C551.867 386.17 550.497 385.896 548.854 385.622C548.033 385.348 546.937 385.074 545.568 385.074C541.459 384.527 536.53 383.705 531.326 382.609C525.027 381.24 518.727 379.323 513.524 377.954C506.677 375.762 493.804 370.285 486.41 367.272L485.588 366.998L466.417 356.865C465.595 356.591 464.499 356.043 463.678 355.769C462.582 354.948 461.213 354.4 460.117 353.852C453.544 350.839 443.685 345.636 437.385 343.445L433.551 342.075C432.456 341.801 432.182 341.528 431.908 341.254C431.634 341.254 431.634 341.254 431.36 341.254C429.717 340.432 427.252 339.337 425.061 338.515C423.144 337.967 421.226 337.419 419.857 336.872L411.915 334.954C410.819 334.681 409.45 334.407 408.354 334.133C404.52 333.037 400.959 332.216 396.577 331.394C394.66 331.394 393.291 331.12 391.921 330.572C390.826 330.572 389.73 330.299 388.635 330.025C379.871 328.929 370.833 328.107 361.247 327.834C352.209 327.56 343.171 327.834 334.407 328.655L317.152 330.299C316.331 330.572 316.331 330.572 316.057 330.572C315.509 330.846 314.961 331.12 313.044 331.394C311.127 331.668 308.936 332.216 307.019 332.763C305.375 333.311 303.732 333.859 301.815 334.133L295.79 335.776C294.146 336.598 292.777 336.872 291.134 337.146C289.764 337.693 288.395 337.967 287.026 338.241C286.752 338.515 286.478 338.515 286.478 338.789H286.204L279.631 340.98L277.714 341.528C268.676 345.088 255.256 350.292 247.861 355.495C247.039 356.043 246.218 356.591 245.122 356.865L230.88 365.903C228.142 367.272 225.677 369.189 222.938 371.107C221.568 372.202 220.199 373.571 218.556 374.667C217.734 374.941 217.186 375.489 216.639 376.036C216.639 376.036 216.639 376.036 216.091 376.584C215.269 377.406 214.721 377.68 214.448 377.954L219.103 388.087C221.568 392.195 223.759 396.303 225.677 400.686C227.046 403.698 228.415 406.437 229.785 409.176C230.606 410.545 231.154 412.188 231.702 413.832C232.524 415.475 233.071 417.118 233.893 418.214L234.167 418.488L236.906 423.691V424.239C237.453 425.335 237.727 426.156 238.275 427.526C238.823 428.073 238.823 428.621 239.097 428.895C239.644 429.443 239.918 430.264 240.192 430.812L247.587 445.876C248.135 446.971 248.409 448.067 248.956 449.162C249.504 450.805 250.052 452.175 250.873 453.27V453.544L256.625 465.047C257.173 466.417 257.72 467.238 258.268 468.608C258.542 469.429 258.816 469.977 259.09 470.525C259.364 471.073 259.638 471.346 259.911 471.894C260.459 472.716 260.459 473.264 260.733 473.537C261.007 474.085 261.281 474.633 261.555 475.455C263.472 478.467 264.841 481.754 266.211 485.314C267.58 488.327 268.949 491.34 270.319 494.078C271.141 495.722 272.236 497.913 273.058 499.83C275.249 504.212 277.44 508.594 279.357 513.25C280.452 515.441 280.726 516.263 281 517.084C281 517.084 281 517.084 281.274 517.632C282.37 519.001 283.191 520.371 284.013 522.014C284.835 523.383 285.382 525.027 285.93 526.396C286.204 527.218 286.204 527.492 286.204 527.766C286.204 527.766 286.204 527.766 286.478 528.039C286.478 528.313 286.752 528.313 287.026 528.587C287.573 529.409 288.121 529.957 288.669 531.326L310.031 575.968C311.127 577.612 312.222 580.35 313.318 582.815C313.866 584.458 314.687 586.376 315.235 587.471C315.235 587.745 323.725 603.904 324.547 605.821C324.821 606.643 325.095 606.917 325.369 607.738C325.369 608.012 325.643 608.56 326.19 609.108L326.464 609.929C327.012 611.025 327.56 611.846 327.834 613.216C328.655 615.407 330.572 619.789 332.49 623.897C334.133 627.184 335.776 630.196 336.872 631.566C337.693 632.661 337.967 633.483 338.241 634.305C338.241 634.578 338.515 634.852 338.789 635.4C339.61 637.317 340.158 638.687 340.706 640.056C341.254 641.152 341.528 641.973 342.075 643.069C342.349 643.89 342.897 644.712 343.445 645.534C344.266 647.177 345.362 649.094 345.91 650.737C346.457 652.381 347.005 654.298 347.279 656.489C347.553 658.406 347.553 660.323 347.005 661.966C346.457 665.253 345.088 668.266 343.171 670.731C341.254 672.922 338.515 674.839 335.228 675.934C334.681 676.208 334.407 676.482 334.133 676.482C333.037 677.03 332.49 677.304 329.751 677.304C319.617 677.578 317.152 674.565 311.949 667.992L311.401 667.444C310.579 666.349 309.758 663.884 308.662 661.693C308.114 660.049 307.566 658.68 307.019 657.584C305.923 655.667 304.828 653.476 304.006 651.285C302.363 647.999 300.993 644.712 299.35 641.973V641.699L285.656 612.942C283.465 609.108 281.822 605 280.179 601.165C278.261 597.605 276.618 594.044 274.975 591.032L274.701 590.758L271.414 582.815C270.867 581.72 270.319 580.898 269.771 579.803C268.95 578.433 268.128 577.064 267.58 575.421L264.294 568.3C263.472 566.93 262.103 564.192 260.459 561.179C258.268 556.797 255.529 551.319 254.708 549.402L241.835 521.466C240.466 519.275 239.644 517.358 238.549 515.167C237.727 512.976 236.632 511.059 235.536 509.142C233.619 506.129 231.154 500.378 228.963 495.448C227.32 491.34 225.677 487.779 224.855 486.684C223.759 485.04 222.938 483.123 222.116 481.206C221.842 480.384 221.295 479.563 221.021 479.015C220.747 478.193 219.925 476.55 219.103 474.907C217.46 471.346 215.543 468.06 213.9 463.952L192.263 419.583C191.989 418.762 191.716 418.214 191.442 417.94C191.168 417.118 190.894 416.571 190.62 415.749L190.346 415.201C189.525 413.832 189.524 413.558 188.703 411.641C188.703 411.367 188.429 411.093 188.429 410.819C188.155 410.545 188.155 410.545 188.155 410.271L187.881 409.997L163.78 360.151C162.137 356.865 160.493 353.578 159.124 350.292C158.302 348.375 157.481 346.457 156.659 344.814C156.111 343.719 155.563 342.897 155.016 341.801C154.468 340.432 153.646 339.063 152.825 337.419C152.551 336.324 152.003 335.228 151.455 333.859C150.908 332.49 150.36 331.12 149.812 330.025L145.704 322.904C144.334 320.165 143.239 317.426 141.869 314.687C140.5 311.127 138.857 307.567 136.94 304.554C136.118 303.184 135.844 302.363 135.57 301.541C135.57 301.267 135.57 300.993 135.296 300.172L131.462 292.777C131.188 292.229 130.914 291.682 130.64 291.134C130.367 290.312 130.093 289.764 129.819 289.217C128.449 286.752 126.532 282.643 124.889 279.083C122.972 274.975 121.055 270.867 119.959 268.95L119.685 268.676L117.22 263.198V262.924C116.125 260.185 114.755 257.72 113.386 254.982C112.291 252.791 111.195 250.326 110.099 247.861C109.552 246.491 109.004 245.396 108.456 244.3C107.908 243.205 107.361 242.109 106.813 241.014L106.539 240.74L101.335 228.963V228.689C100.514 226.772 99.4182 224.855 98.5965 222.938C97.501 221.295 96.6794 219.651 95.8578 218.008L95.5839 217.186C94.2145 213.9 92.0234 210.065 90.3802 206.779C90.1063 205.683 89.2847 204.588 88.7369 203.492C86.272 199.11 83.8071 193.085 81.616 188.429L81.0683 187.333C80.5205 186.512 80.2467 185.964 79.6989 184.869C78.8773 182.951 78.0556 181.582 77.234 180.213C75.0429 175.557 72.578 170.901 70.6609 166.245C69.8392 163.78 68.4698 161.589 67.3743 159.398C66.5527 158.028 65.731 156.659 65.1833 155.29L59.9796 144.061C59.4318 143.239 59.1579 142.143 58.8841 141.322C58.0624 139.678 57.2408 137.761 56.693 136.666L56.1452 135.57C54.2281 132.558 52.3109 128.997 50.9416 125.437L45.7378 114.482L45.464 114.208V113.934C45.1901 113.66 44.9162 113.386 44.6423 112.838L36.9737 95.5839L36.6998 95.31V95.0361L27.9357 76.9601C27.6618 76.4124 27.3879 75.5907 26.8402 74.7691C26.0185 72.8519 24.923 71.2086 24.3752 69.2915C23.8275 68.4699 23.5536 67.6482 23.0058 66.5527C23.0058 66.2788 22.732 66.2788 22.732 66.0049V65.7311C22.4581 65.1833 21.9103 64.6356 21.6365 63.8139C21.3626 63.54 21.0887 62.9923 20.8148 62.4445L18.8977 58.6102C18.6238 58.0624 18.076 57.7886 17.2544 57.5147C16.7066 57.2408 15.885 56.9669 15.0633 56.693L14.2417 56.1453C12.5984 55.3236 10.6813 54.502 9.31188 52.5848C8.21636 51.2154 7.94249 50.6677 7.39473 50.3938C6.57309 49.5722 5.75145 49.0244 3.83429 45.1901L3.56041 44.6423C2.46489 42.4513 1.91714 41.3558 1.64326 40.5342H1.91715L0 39.7125V37.7954ZM292.777 106.539C294.42 106.813 295.79 106.813 296.885 107.087C299.35 107.361 300.72 107.635 305.923 107.908C307.567 107.908 308.936 108.456 310.305 108.73C311.127 109.004 311.949 109.004 312.77 109.278C315.235 109.552 320.165 110.647 324.821 111.469C328.107 112.291 331.394 113.112 333.311 113.386C333.585 113.386 334.133 113.66 334.681 113.66C336.05 114.208 339.063 115.029 343.171 115.851H343.445C352.209 119.411 361.247 122.972 370.285 126.258L372.202 127.354C374.119 128.449 374.667 128.723 374.941 128.997C375.215 128.997 375.215 128.997 375.762 129.271C376.31 129.545 377.68 130.093 381.24 131.462C382.336 132.01 383.705 132.831 385.074 133.653L385.622 134.201L371.38 103.526C370.559 102.431 370.011 101.335 369.463 99.966C368.642 98.3227 368.094 97.2272 367.82 96.4055C367.546 95.31 366.998 94.4884 365.629 91.7496C364.807 90.6541 364.807 90.1063 364.533 89.5586C364.533 89.2847 364.533 89.0108 364.26 88.7369C364.26 88.4631 363.986 87.9153 363.712 87.3675L363.164 86.272C361.521 82.4377 360.151 82.1638 354.948 79.9728C353.852 79.6989 352.757 79.1511 351.387 78.8773C349.744 78.0556 347.827 77.234 346.184 76.4123C344.54 75.5907 342.897 74.7691 341.254 73.9474C339.61 73.1258 337.967 72.3042 336.05 71.4825C334.681 70.6609 333.311 70.1131 331.668 69.2915L297.433 52.8587C292.777 50.9416 292.503 50.6677 291.134 50.3938C290.312 50.1199 289.217 49.846 287.299 49.2983L262.376 42.9991C263.198 44.6424 264.294 46.5595 264.841 47.3811C266.211 49.5722 266.759 51.4893 267.306 53.1326C267.58 53.9542 268.128 55.0498 268.402 55.8714L281 81.3422C282.37 83.8071 284.287 88.4631 286.478 93.119C288.943 98.3227 291.408 104.074 292.777 106.539ZM506.403 89.5586L505.855 90.6541H504.212C502.021 90.928 502.021 90.928 502.021 90.928C501.473 91.2018 500.925 91.7496 499.282 92.2974C497.365 92.5712 495.174 93.119 492.983 93.3929C491.066 93.6668 490.518 93.6667 490.244 93.9406C489.422 94.2145 488.875 94.4884 487.779 94.7623C486.41 95.0361 485.588 95.0361 484.493 95.0361C483.397 95.0361 482.302 95.0361 481.48 95.31C477.646 96.4055 469.429 96.9533 463.13 97.5011C461.761 97.5011 460.117 97.5011 459.022 97.7749C459.57 98.8705 460.117 99.966 460.665 101.062C461.213 101.883 461.487 102.431 461.761 102.979C467.238 113.66 471.894 124.341 477.372 135.023C477.646 135.57 477.919 136.392 478.467 137.487C479.289 139.678 480.384 142.417 481.48 143.513C482.028 144.334 483.671 148.169 485.314 152.277C487.231 156.659 489.422 161.589 489.97 162.137C490.244 162.684 490.518 162.958 490.792 163.232C491.34 163.78 491.34 164.054 491.613 164.602C491.887 164.875 492.161 165.423 492.161 165.971C497.365 165.971 504.212 165.971 510.785 165.423C517.632 165.149 524.205 164.328 528.587 163.506C529.683 163.232 530.778 163.232 532.148 162.958C533.791 162.684 535.16 162.41 536.256 162.137L555.701 157.207C556.249 157.207 556.523 157.207 556.797 157.207C557.071 157.207 557.071 156.933 557.344 156.933C557.071 156.659 557.071 156.385 557.071 156.111C556.797 155.563 556.523 155.016 556.249 154.468C555.701 153.099 555.427 152.825 555.153 152.551C554.606 152.003 554.058 151.455 553.51 149.812C553.236 148.99 552.962 148.169 552.689 147.621C552.141 146.525 551.867 145.978 551.593 145.156L546.115 134.475C546.115 134.201 545.842 133.927 545.568 133.379L540.912 123.52C540.912 122.972 540.638 122.698 540.364 122.15C540.364 121.876 540.09 121.329 539.816 121.055L529.409 99.4182V99.1443C529.135 98.5966 529.135 98.3227 528.861 97.7749C528.587 97.7749 528.587 97.5011 528.313 96.9533L523.657 87.6414H523.383C523.11 86.8198 523.11 86.272 522.836 85.7242C522.562 85.1765 522.562 84.9026 522.288 84.6287C520.645 84.9026 518.727 85.7243 516.81 86.5459C515.167 86.8198 513.798 87.3675 512.702 87.9153C512.154 87.9153 511.607 88.1892 511.059 88.1892C510.785 88.1892 510.237 88.1892 510.237 88.463C509.689 88.463 509.963 88.1892 509.963 88.463C509.416 88.7369 508.868 89.2847 506.403 89.5586ZM542.829 268.95H541.186C541.186 269.497 541.459 269.771 541.733 270.319L542.007 270.867L547.485 281.548C548.033 282.917 548.306 284.013 548.854 285.382C549.128 286.204 549.402 287.026 549.676 287.573C550.771 290.038 551.867 291.955 552.689 294.146C554.332 296.885 555.701 299.898 557.344 303.732L559.536 308.114C559.809 308.388 559.809 308.662 559.809 308.662C559.809 308.936 564.465 318.796 565.013 319.891L565.287 320.165C565.835 322.63 566.93 324.273 568.026 325.916C568.847 327.286 569.943 328.381 570.491 330.299L571.038 331.12C571.038 331.668 571.038 331.668 571.586 332.49L572.956 334.954V335.228C573.503 336.324 573.777 337.146 574.325 338.241C574.599 339.063 574.873 340.158 575.421 340.98L576.516 343.719C577.885 345.636 578.981 347.827 580.076 350.018C584.185 350.018 590.21 350.018 595.961 349.47C601.439 349.196 606.643 348.648 610.203 347.553C611.573 347.279 612.668 347.279 613.764 347.279C614.311 347.279 615.133 347.279 615.681 347.279C616.229 347.005 616.776 347.005 617.05 346.731C617.598 346.731 618.42 346.457 619.241 346.184C620.611 345.91 621.98 345.636 623.076 345.636C625.267 345.088 627.184 344.814 631.292 343.719L632.935 342.897C633.483 342.623 635.674 342.075 638.413 341.254C640.604 340.706 643.343 340.158 644.986 339.61C644.712 338.789 644.438 338.241 644.164 337.693C644.164 337.419 643.89 337.145 643.617 336.598L638.687 325.916C636.496 322.082 634.031 316.605 631.84 311.401C629.649 306.471 627.731 302.089 626.088 299.35C626.088 299.076 625.814 298.802 625.54 298.255C625.267 297.981 624.993 297.433 624.719 297.159L621.98 291.134C621.98 290.86 621.706 290.312 621.706 290.312L619.789 286.204C619.515 285.93 619.241 285.656 618.967 285.108C618.967 284.561 618.693 284.287 618.42 283.739C617.324 281.548 616.502 279.631 615.407 277.44C615.133 276.892 615.133 276.618 614.585 275.523L606.369 258.816L605 259.09C603.63 259.364 601.987 259.912 601.439 260.185C600.07 260.733 599.248 261.007 598.153 261.281C597.331 261.555 596.783 261.829 595.961 262.103C595.688 262.103 594.866 262.376 594.044 262.65C591.305 263.472 587.745 264.02 584.459 264.567C582.268 264.841 579.803 265.389 577.885 265.663C575.421 266.211 569.121 267.032 562.274 267.58C554.332 268.402 545.842 268.95 542.829 268.95ZM528.861 260.459C527.492 257.173 525.027 252.517 523.931 250.052C523.11 248.135 522.014 245.944 521.192 244.027C520.919 243.753 520.919 243.479 520.645 243.205C520.371 242.383 519.823 241.835 519.549 241.014L515.441 232.797C515.167 232.25 514.893 231.702 514.619 231.154C514.345 230.606 514.072 230.059 513.798 229.511C512.702 226.772 512.154 225.403 511.333 224.033C510.785 223.212 510.237 222.116 509.689 220.747L503.116 206.505C502.842 205.41 502.295 204.862 502.021 204.04C501.473 203.218 500.925 202.397 500.104 200.754L494.626 189.251C494.352 188.155 493.531 186.786 492.983 185.416C492.709 184.869 492.435 184.321 492.161 183.499C491.887 183.225 491.887 182.678 491.613 182.13C491.34 181.856 491.066 181.308 490.792 181.034L486.957 173.092C486.684 172.818 486.136 172.818 485.588 172.818C484.766 172.818 483.671 172.818 482.575 172.544C480.384 171.996 479.289 171.996 476.824 171.996H476.55C474.633 171.996 473.264 171.722 472.168 171.448C471.346 171.175 470.799 171.175 469.977 171.175L466.69 170.627C460.665 170.079 460.391 170.079 451.079 168.162C450.258 167.888 449.436 167.614 448.888 167.34C447.793 167.066 446.697 166.793 445.602 166.793C444.506 166.793 444.232 166.793 443.958 166.793C442.589 166.793 442.589 166.793 440.398 165.697C439.576 165.423 436.564 164.328 433.277 163.232C428.895 161.863 424.239 160.493 422.596 159.672L402.876 150.908C403.698 152.825 404.246 155.016 405.068 156.933C405.615 158.302 406.437 159.398 406.985 160.767C408.08 162.684 409.176 164.875 410.271 167.34C410.545 168.162 410.819 168.71 411.367 169.531C411.915 170.353 412.188 171.175 412.736 172.27C413.284 173.092 413.558 174.187 414.106 175.009C415.475 177.748 416.844 180.76 418.214 183.225L418.488 183.499L430.812 210.887C432.182 213.352 433.551 216.091 434.647 218.556C436.29 222.39 437.933 225.95 439.302 227.594C440.124 228.963 440.124 229.237 440.398 230.059C440.398 230.333 440.672 230.606 440.672 230.88C442.041 234.441 442.315 234.441 443.411 234.989C443.958 235.262 444.506 235.81 445.054 236.084C445.328 236.358 445.876 236.632 446.149 236.906C446.423 237.18 446.697 237.18 447.245 237.453L457.652 242.657C461.213 244.3 464.773 245.67 468.334 247.313C468.608 247.313 468.881 247.587 469.429 247.587C469.703 247.587 470.251 247.587 471.072 247.861C471.894 248.135 472.168 248.135 472.716 248.409C472.99 248.682 473.264 248.682 474.085 248.956L485.862 252.791H486.136C486.684 253.065 487.779 253.338 488.601 253.612C489.97 253.886 491.066 254.16 492.161 254.16C493.531 254.434 493.804 254.708 494.626 254.982C495.174 255.256 495.722 255.256 497.913 255.803H498.187L504.76 257.173C508.046 257.994 513.798 259.09 519.549 259.912C522.836 260.185 526.122 260.459 528.861 260.459ZM474.359 318.248L474.085 317.974C472.168 313.318 469.155 307.293 468.06 305.375L465.321 300.172V299.898C465.047 299.35 464.773 298.802 464.773 298.255C464.499 297.707 464.499 297.433 464.225 297.159L460.117 289.217C459.57 288.121 459.022 287.026 458.748 286.752L450.258 269.497C449.71 268.402 449.162 267.306 448.614 265.937C447.245 262.65 445.328 258.268 444.232 256.899V256.625L441.767 251.147C441.767 250.874 441.493 250.6 441.493 250.6C441.22 250.052 440.946 249.778 440.398 248.409C439.85 246.765 438.755 244.3 437.659 242.109C436.838 241.014 436.29 239.918 435.742 239.644L414.106 228.963C413.284 228.415 411.093 227.594 408.902 226.772C406.711 225.95 404.794 225.129 403.15 224.307L385.348 218.282C384.253 218.008 383.705 217.734 383.157 217.46L382.883 217.186C382.609 217.186 382.609 217.186 382.336 217.186C382.062 217.186 381.788 217.186 381.514 216.912C379.049 216.365 377.68 216.091 376.584 215.817C374.941 215.269 373.571 214.995 369.737 214.448C367.272 214.174 366.177 213.9 365.629 213.352C365.355 213.352 365.081 213.352 364.807 213.352C364.26 213.078 363.712 213.078 362.89 213.078C361.795 212.804 361.247 212.53 360.699 212.257C360.425 212.257 360.151 212.257 359.877 211.983C358.782 211.709 357.413 211.709 356.043 211.435C355.222 211.435 354.126 211.161 353.03 210.887C350.839 210.613 348.375 210.339 345.636 210.065C344.266 209.792 343.171 209.792 341.801 209.518C342.349 210.887 342.897 211.983 343.445 212.804C343.719 213.626 343.992 214.448 344.266 214.995L358.782 244.3C359.056 245.122 359.33 245.67 359.604 246.218C359.604 246.765 359.877 247.039 359.877 247.313L363.164 254.16C363.986 255.803 364.26 256.625 364.533 257.447C364.807 257.994 364.807 258.542 365.081 259.09C366.451 261.555 367.82 263.746 368.915 266.211C369.737 267.854 370.285 268.95 370.833 270.045C371.38 271.414 371.928 272.51 373.024 273.879C373.571 274.701 373.845 275.797 374.393 276.618V277.166L376.858 282.644C377.132 283.465 377.68 284.287 377.953 285.108C378.501 286.204 379.049 287.026 379.597 288.121C379.597 288.669 379.871 288.943 380.145 289.491C380.418 290.312 380.692 290.86 380.966 291.134L395.208 292.777C397.125 292.777 398.494 293.325 399.864 293.599C400.412 293.873 401.233 293.873 402.055 294.146L408.902 295.242C412.462 295.79 416.844 297.159 420.405 298.255C422.322 298.802 423.965 299.076 424.787 299.35C431.36 300.446 437.385 302.637 443.411 305.102L446.697 306.471L448.888 307.293C452.175 308.388 455.187 309.484 458.2 311.127L469.155 315.783C472.442 316.878 473.537 317.426 474.359 318.248ZM111.743 164.054C112.017 164.054 112.291 163.78 112.564 163.506C112.838 163.232 113.386 162.958 113.66 162.684V162.41C125.984 153.92 138.583 145.43 150.908 136.94L160.767 131.736C161.589 131.188 161.863 130.914 162.958 130.64L163.506 130.367L164.054 130.093L164.601 129.819L165.423 128.997H165.697C166.519 128.449 167.34 128.176 168.162 128.176C168.984 127.902 169.805 127.628 171.996 126.806C172.544 126.532 173.092 126.258 173.913 125.711C175.009 125.163 176.104 124.615 177.748 124.067C178.843 123.793 181.034 123.246 183.225 122.424C184.047 121.876 184.869 121.602 185.416 121.329L178.843 108.182C178.569 107.087 177.748 105.991 177.2 105.17C176.378 103.253 175.283 101.609 174.461 99.1443C173.64 96.9533 170.627 90.3802 167.066 82.9855C162.958 74.4952 158.302 65.1833 155.837 60.8012C155.016 59.1579 154.468 57.5147 153.646 55.8714C153.372 55.5975 152.825 54.502 152.551 53.6804C151.729 51.7632 150.908 49.5722 150.086 48.2028C146.799 48.7505 146.252 49.0244 145.156 49.5722C144.608 50.1199 143.513 50.6677 141.596 51.4893C140.5 51.7632 139.952 52.0371 139.405 52.0371C139.131 52.311 138.857 52.311 138.583 52.311L115.303 62.7184C112.564 64.0878 111.743 64.3617 111.195 64.3617C110.921 64.3617 111.195 64.3617 110.647 64.9094C110.1 65.1833 110.099 65.1833 110.099 65.1833C109.826 65.4572 109.552 65.7311 109.004 66.0049C108.456 66.5527 107.908 66.5527 107.361 66.8266C107.087 67.1005 106.813 67.1004 106.539 67.3743L86.272 80.2467C86.272 80.2467 86.272 80.2467 85.9981 80.2467L85.1765 81.0683C84.6287 81.6161 84.6287 81.6161 84.081 82.1638H83.8071C82.9854 82.9854 82.4377 83.5332 81.616 84.081C80.7944 84.6287 80.2467 85.1765 79.6989 85.7242C78.0556 87.0936 76.6862 88.1892 75.5907 88.7369C75.5907 88.7369 75.5907 88.7369 75.5907 89.0108C76.4123 90.3802 77.5078 92.2974 78.8772 95.5839C80.2466 98.8705 82.1638 102.431 83.5332 105.444C84.9026 107.361 85.7242 109.278 86.272 110.647C86.8197 111.743 87.0936 112.291 87.3675 113.112C87.6414 114.208 87.9153 115.029 88.463 116.125L94.7622 128.449C94.7622 128.723 94.7622 128.723 95.0361 128.997C95.31 129.271 95.5839 129.545 96.1316 130.64C96.4055 131.736 96.9533 132.558 97.2271 133.653C97.501 134.475 98.0488 135.296 98.3227 136.118L98.5965 136.666C98.8704 137.214 99.1443 137.487 99.4182 138.309L103.526 145.978C104.348 147.895 105.717 150.634 106.813 153.646C108.456 157.481 110.373 161.589 111.743 164.054ZM75.3168 88.7369C75.3168 88.4631 75.3168 87.9153 75.0429 88.463C75.0429 88.7369 75.3168 88.4631 75.3168 88.7369ZM160.767 265.937C161.315 267.306 161.863 268.402 162.41 269.223C162.958 270.867 163.78 272.236 164.601 274.153L166.519 277.44V277.714C167.34 279.083 167.888 280.726 168.71 282.096C169.531 284.561 170.627 287.026 171.996 288.943V289.217L179.117 304.828C179.665 305.649 179.939 306.197 180.213 306.745L180.486 307.019L180.76 307.567C180.76 307.84 181.034 307.84 181.034 308.114C181.308 308.388 181.308 308.388 181.308 308.662C181.582 308.662 181.582 308.936 181.582 309.21H181.856L182.951 311.675V311.949C183.773 313.592 184.321 314.687 184.869 316.057C185.964 317.7 186.786 319.617 187.881 322.356L196.371 340.432C196.645 340.98 197.193 341.801 197.467 342.349V342.623C201.849 339.61 206.505 336.598 210.887 333.585C214.448 331.12 217.734 328.929 221.021 326.738C224.581 324.821 227.868 322.904 231.428 320.987C232.25 320.713 232.524 320.439 232.797 320.165C233.893 319.617 234.715 319.069 236.358 318.522L246.218 313.592C247.861 312.77 250.052 311.675 252.243 310.579C253.886 309.758 255.529 309.21 256.899 308.662C257.72 308.662 258.542 308.114 259.364 307.84C260.459 307.293 261.281 307.019 262.103 306.745C262.65 306.471 263.472 306.197 264.02 306.197C264.294 305.923 264.567 305.923 264.841 305.923L271.141 303.184C270.867 301.815 270.319 300.446 269.497 299.076C268.676 297.981 268.128 296.611 267.306 294.694C266.211 291.955 264.841 289.217 263.472 286.478L262.376 284.287L249.778 256.899L249.504 256.351C245.122 247.587 240.192 237.453 236.358 228.415L235.262 226.498C234.167 224.855 233.619 224.033 233.345 223.486C232.524 223.759 231.428 224.033 230.333 224.581C228.141 225.403 225.95 226.224 224.855 226.772C224.033 227.046 223.486 227.32 223.212 227.32C222.938 227.594 222.664 227.594 222.116 227.868L202.123 237.727C200.754 238.549 199.932 239.097 198.836 239.371C197.741 239.918 196.645 240.466 194.728 241.835L182.13 249.778L181.856 250.326C181.308 250.6 181.034 250.874 180.76 250.874C180.213 251.147 179.665 251.421 179.117 251.969C178.843 251.969 178.569 252.243 178.295 252.517C175.831 253.886 173.639 255.529 171.448 257.447C170.353 258.542 168.984 259.638 167.614 260.733C167.34 261.007 166.793 261.007 166.519 261.281C165.697 261.829 165.149 262.376 164.328 262.924C163.78 263.198 163.232 263.472 162.958 263.472C162.958 263.472 163.232 263.472 162.958 263.746C162.958 263.746 162.958 263.746 162.684 264.02C161.863 264.567 161.315 265.389 160.767 265.937ZM195.002 125.711L221.295 181.034C221.568 181.034 221.842 181.308 221.842 181.582C222.116 182.13 222.664 182.678 222.938 183.225C225.95 188.977 230.88 198.289 232.797 204.04C233.893 206.505 234.167 206.779 234.441 207.053C234.715 207.601 234.988 208.148 235.536 209.518L237.453 213.626L254.708 208.422C257.173 207.327 262.924 206.505 267.58 205.683C270.593 205.41 273.332 204.862 274.153 204.588H274.427C277.44 204.04 280.452 203.492 283.739 202.671L329.751 201.301C329.477 200.48 329.203 199.932 328.929 198.836C328.655 198.563 328.655 198.289 328.655 198.289C328.655 198.015 328.655 198.015 328.655 197.741C328.381 197.741 328.107 196.919 327.56 196.098C326.464 194.18 324.821 190.894 323.452 187.881L313.592 167.614C313.318 167.34 313.318 166.519 313.044 165.971C312.77 165.423 312.496 164.875 312.496 164.602L309.484 158.576C309.21 158.302 309.21 157.755 308.936 157.207C308.662 156.659 308.388 156.385 308.114 155.837L301.267 141.596L300.993 141.322C300.72 140.226 300.172 139.405 299.898 138.857C299.35 137.487 298.802 136.666 298.255 134.749C297.981 133.927 297.433 133.379 297.159 132.831C296.611 132.01 296.064 130.914 295.516 129.545C295.242 128.997 294.968 128.723 294.694 128.176C294.694 127.354 294.42 127.08 294.146 126.532C293.873 126.258 293.873 125.985 293.873 125.985C293.873 125.711 293.599 125.437 293.325 125.163L287.573 113.386C281.822 113.386 273.605 113.112 265.663 113.386C259.364 113.386 253.612 113.66 249.23 114.208C247.313 114.482 245.396 114.482 243.753 114.755C241.562 114.755 239.371 114.755 236.906 115.577H236.632L219.103 118.59H218.83C217.734 118.59 217.186 118.864 216.365 119.138C215.817 119.411 214.995 119.685 213.9 119.959L195.002 125.711ZM331.12 203.766C331.12 203.766 331.12 203.766 331.12 204.04V203.766Z" fill="url(#paint0_linear_202_356)"/>
  <defs>
    <linearGradient id="paint0_linear_202_356" x1="0" y1="338.789" x2="686.616" y2="338.789" gradientUnits="userSpaceOnUse">
      <stop stop-color="#FF5C77"/>
      <stop offset="1" stop-color="#0097A7"/>
    </linearGradient>
  </defs>
</svg>