<svg xmlns="http://www.w3.org/2000/svg" width="668" height="668" viewBox="0 0 668 668" fill="none">
  <path fill-rule="evenodd" clip-rule="evenodd" d="M0 318.587V359.807C1.86153 360.87 1.32965 368.051 1.86152 370.71C2.39338 374.167 2.39338 377.624 2.92525 381.347C4.78678 397.835 7.18019 405.547 11.4351 420.971C13.2966 428.151 14.8922 432.406 17.2856 438.789C27.391 466.446 31.38 478.147 47.336 504.474C48.9316 507.133 51.5909 508.995 49.7294 513.25C41.2195 533.727 34.5712 553.14 26.5933 573.616L1.32967 641.163C0.797803 642.493 1.32966 641.961 0 642.759V652.067C2.12746 653.396 1.06373 655.79 6.64831 661.64C12.7648 668.023 13.2966 664.565 16.4878 667.491H23.668C24.7317 665.895 24.4658 666.427 27.657 665.629L58.7711 653.662C78.4501 646.216 112.755 634.781 130.041 627.335C135.094 624.941 143.338 623.08 147.858 620.687C156.634 616.166 157.698 615.9 165.144 621.218C179.504 631.856 214.076 645.418 232.159 651.801C245.456 656.853 276.57 663.768 292.26 664.831C295.451 665.097 313.003 666.427 314.332 667.491H355.552L356.084 666.427C391.187 665.895 451.553 647.28 477.615 632.919C496.496 622.814 508.995 616.963 526.546 604.465C545.959 590.37 572.553 567.766 587.977 549.417C611.379 521.228 625.739 500.485 640.631 466.446C649.673 445.703 659.513 413.791 663.502 391.985C664.565 385.602 665.895 359.009 667.491 357.147V309.811C665.895 308.748 665.363 296.515 664.831 292.526C664.299 286.941 664.033 280.825 662.704 275.772C661.108 270.187 660.842 265.135 659.247 259.55C657.917 254.763 657.119 249.179 655.524 244.126C648.343 217.001 635.047 186.419 620.687 162.751C611.113 147.061 607.656 143.072 596.753 128.977C591.966 122.595 574.946 102.118 569.893 98.1291C566.17 94.9379 563.245 91.7467 559.788 88.2896L544.63 74.7271C532.663 64.8875 529.206 62.7601 516.441 54.5162C508.729 49.7294 502.878 45.7404 495.166 41.7514C490.38 39.358 488.784 37.4965 479.742 33.5075C460.329 24.4658 445.171 18.0834 423.896 11.967C414.323 9.30763 386.4 3.19119 375.763 2.3934C372.837 2.12746 369.912 1.86154 366.987 1.59561C365.125 1.32967 359.275 1.5956 359.009 0H307.684C306.62 1.5956 300.77 1.06374 298.642 1.32967C295.451 1.32967 293.058 2.12746 290.132 2.3934C269.124 3.98899 231.361 14.6263 212.214 22.0724C200.779 26.8592 171.261 42.0173 159.825 48.3997C154.773 51.325 122.063 76.0567 115.415 81.9072L86.4281 111.692C73.3974 125.786 55.314 151.316 45.4745 168.601C43.0811 172.856 40.6877 176.845 38.5602 181.366C36.4328 185.621 34.0394 189.61 32.1778 194.131C22.6043 218.331 12.4988 242.265 7.4461 268.06C6.38237 273.645 5.05271 278.697 3.98898 283.75C2.92525 289.335 3.19119 295.717 2.12746 301.567C1.06373 306.886 1.5956 318.055 0 318.587ZM53.9843 613.506L153.177 576.276C165.41 571.489 175.515 582.392 181.1 585.318C197.322 594.625 201.577 597.018 219.926 605.262C238.276 612.974 259.284 619.623 280.825 622.814C292.526 624.675 303.429 627.069 315.396 627.069C329.49 627.069 333.213 629.462 352.892 626.803C381.081 623.346 391.453 622.282 419.376 614.836L448.362 604.996C461.127 599.944 475.753 592.498 487.454 585.583L505.272 574.148C507.133 572.819 509.527 571.489 511.388 570.159L527.876 557.129C529.738 555.533 531.333 553.937 532.929 552.608L543.034 543.034C548.087 539.311 570.957 511.122 574.148 506.07C575.478 503.942 576.542 501.815 577.871 499.687C583.456 491.975 587.445 483.465 591.7 474.158C600.742 455.276 608.72 441.182 614.57 418.844C617.495 408.206 620.42 398.367 621.75 386.932C623.346 375.763 625.473 363.53 626.005 351.829C627.335 329.756 625.739 299.972 621.484 278.963C615.634 250.242 610.847 231.627 598.614 203.97C596.487 199.449 594.093 195.726 591.7 190.94C589.041 185.089 573.351 160.357 569.362 155.305C562.181 145.997 550.214 131.105 542.236 123.127C535.322 115.947 507.133 94.9379 498.889 88.2896C492.507 83.5028 482.402 78.1842 474.158 73.9292C469.637 71.8018 465.382 69.6743 461.127 67.5469C453.149 63.2919 426.29 53.7184 418.046 51.5909C412.461 50.5272 407.94 48.9316 402.888 47.6019C397.835 46.2723 391.187 45.4745 386.134 44.6767C365.391 40.6877 335.075 37.2306 313.534 39.0921C307.95 39.624 301.036 39.8899 295.717 40.6877C290.664 41.7514 283.484 42.0173 278.697 43.347C267.528 46.5382 242.796 51.5909 233.223 56.1118C223.117 60.6326 198.652 70.7381 192.535 74.7271C188.546 77.3864 184.823 79.5138 180.568 81.9072C175.781 84.5665 172.59 87.2259 168.601 89.8852C164.878 92.5445 160.623 94.9379 157.166 97.5972L146.529 106.905C138.551 113.287 133.232 118.872 126.318 125.786C115.149 136.955 99.7247 155.836 91.4808 169.399C86.4281 177.643 81.6413 185.621 76.8545 193.599C69.1425 205.832 57.4414 234.021 52.9206 248.381C49.7294 258.486 47.336 268.858 44.9426 279.495L39.8899 313.269C38.2943 335.341 39.0921 365.657 43.6129 386.4C47.336 404.483 53.1865 430.279 61.4304 446.501C69.1425 461.393 71.8018 470.169 81.6413 485.327C82.9709 487.454 83.7687 489.316 85.0984 491.443C86.4281 493.571 87.7577 495.166 89.3533 497.56C94.9379 506.601 88.2896 518.834 85.0984 527.61C83.5028 532.131 82.1732 537.716 80.3116 541.97L64.3557 584.786C62.2282 590.636 54.2502 610.049 53.9843 613.506ZM426.556 253.168L438.789 292.526C441.448 300.504 442.512 304.493 449.16 308.216C455.542 311.939 463.786 312.205 470.169 308.216C483.199 299.972 478.679 285.08 473.626 270.187C471.498 264.337 469.105 256.625 467.509 250.242C466.446 245.988 465.116 244.658 464.052 240.935C462.989 237.478 462.191 233.755 461.127 230.032C457.138 217.001 452.617 203.704 448.628 190.674C444.107 177.111 440.916 163.548 436.129 150.518C430.013 134.03 430.811 126.318 419.376 115.149C401.558 97.8632 362.2 100.788 353.956 134.03C352.361 140.678 351.031 148.656 349.701 155.836C347.042 170.197 345.18 185.089 341.723 199.715L335.341 232.425C334.543 235.882 334.277 239.605 333.479 243.328C331.884 250.774 330.554 258.22 329.224 265.933C326.565 280.825 319.651 297.579 331.884 306.62C344.914 316.726 360.604 309.545 363.53 294.919C364.859 287.739 366.721 280.559 367.519 272.847C368.317 264.869 368.848 265.667 382.943 262.209C390.123 260.614 397.569 259.816 404.749 258.22C409.536 256.891 422.301 253.168 426.556 253.168ZM377.624 223.117C381.879 223.117 408.738 216.203 414.589 214.873C414.855 209.821 410.866 201.577 409.27 197.056C407.409 190.94 406.079 185.089 404.217 179.239C401.026 168.867 397.303 159.028 394.644 148.656C393.846 145.199 394.378 145.199 391.719 145.199C390.655 148.124 386.4 177.111 384.272 183.493C383.209 187.216 378.156 217.799 377.624 223.117ZM348.903 356.35C339.596 357.413 330.022 361.934 323.906 367.785C310.077 381.347 310.875 394.378 306.886 412.461C305.556 419.376 304.759 426.29 303.429 433.204C296.249 466.712 290.664 502.347 284.016 535.854C281.623 548.353 284.282 555.001 294.387 560.586C297.579 562.447 301.833 562.447 305.822 561.915C313.534 560.852 316.992 556.863 319.917 551.544C322.842 545.959 323.374 538.779 324.704 531.865C326.033 525.217 327.363 518.302 328.693 511.654C330.82 498.358 327.895 499.687 341.457 499.687L377.624 499.421C383.741 499.687 382.677 499.953 383.741 505.804C385.336 512.718 386.932 518.834 388.261 525.749C389.325 532.663 393.846 536.918 399.165 539.577C405.281 542.502 413.259 541.173 418.312 537.982C423.365 535.056 426.29 529.206 426.822 522.291C427.354 515.909 420.173 489.316 418.312 481.338L409.802 441.448C406.877 427.885 404.483 414.323 401.292 400.494C398.101 385.868 394.378 374.965 385.868 367.785C381.879 364.328 376.826 360.604 370.71 358.477C363.264 356.35 357.147 355.552 348.903 356.35ZM373.103 460.063L373.369 459.265C373.635 458.468 373.635 459.531 373.635 457.936L371.774 449.958C370.976 446.767 370.178 443.31 369.646 439.852C369.114 437.991 369.114 435.863 368.848 434.268L365.125 418.844C364.328 414.855 361.934 400.494 360.339 398.101C359.009 395.974 355.552 394.112 352.095 395.974C349.169 397.569 348.638 401.824 348.106 405.015C347.308 408.738 347.042 412.195 346.51 415.652C345.712 419.642 344.649 421.769 344.117 426.024C343.053 432.938 341.457 440.384 340.128 447.564C338 460.063 336.405 460.595 341.457 460.595C347.574 460.595 370.71 460.861 373.103 460.063ZM180.302 226.575C177.111 220.192 175.781 213.278 173.122 206.63C166.474 191.471 165.942 175.781 155.039 169.931C148.124 166.208 139.083 167.006 133.232 171.526C120.202 181.632 128.711 197.854 133.232 211.948L167.537 315.13C176.845 344.649 213.544 331.618 206.098 306.088C203.438 296.249 192.535 269.124 191.737 265.135C198.386 261.678 213.544 261.146 221.788 259.284C231.095 257.423 241.467 253.434 251.572 253.168C252.104 263.273 251.838 273.645 251.572 283.75C251.572 295.717 251.838 301.036 259.018 306.62C265.401 311.673 275.772 311.407 282.952 306.886C289.601 302.631 290.664 294.653 290.664 284.282C290.664 243.328 290.664 202.375 290.664 161.687C290.664 152.379 291.994 141.476 287.473 134.296C278.697 120.733 253.168 123.127 251.838 144.135C251.04 155.836 251.838 190.408 251.838 205.566C251.838 214.873 254.763 211.948 232.159 216.469C225.511 217.799 183.227 226.575 180.302 226.575ZM168.335 458.202C177.377 456.606 203.172 457.404 212.746 457.936C214.608 465.648 209.023 490.38 209.821 502.347C210.619 509.793 213.81 514.313 218.331 517.505C225.511 522.557 242.796 523.355 248.381 505.538L251.572 472.562C251.306 466.978 252.104 465.914 252.902 461.127L254.232 438.523C254.497 431.608 255.561 423.365 256.093 416.184C256.625 409.004 256.359 400.76 257.689 393.846C258.22 390.389 259.55 374.433 258.752 371.508C253.7 349.169 222.586 351.297 220.192 374.433C219.394 380.284 217.267 416.184 215.671 418.578L161.687 418.844C160.623 416.45 157.964 400.228 157.698 396.771L154.241 373.635C152.379 365.125 149.986 361.136 143.338 357.945C135.892 354.222 128.179 356.084 123.127 360.339C111.692 369.38 117.276 387.198 119.404 402.356C120.467 410.068 121.531 417.78 122.861 425.492C123.659 432.406 124.722 441.98 126.318 448.362L133.498 493.837C136.157 509.793 135.892 526.546 150.252 530.269C157.166 531.865 167.537 529.206 170.463 525.217C179.504 513.25 173.388 496.762 170.729 481.338C169.931 476.019 167.537 462.988 168.335 458.202ZM508.197 335.341C503.41 336.139 502.346 337.734 499.421 339.862C490.645 347.042 492.241 355.02 488.518 368.051L467.775 451.287C465.382 459.265 466.18 465.914 470.701 471.498C479.21 482.136 498.092 480.54 503.676 466.446C506.601 459 527.344 373.369 530.004 362.732C535.056 342.787 521.494 332.682 508.197 335.341ZM467.509 502.612C460.063 504.208 456.606 506.601 453.149 511.388C450.756 514.845 449.16 523.887 448.096 528.94C445.437 542.236 457.138 553.406 470.435 551.544C484.529 549.948 487.188 536.918 489.316 525.217C491.975 510.059 478.413 500.485 467.509 502.612ZM0 667.491H16.4878C13.2966 664.565 12.7648 668.023 6.64831 661.64C1.06373 655.79 2.12746 653.396 0 652.067V667.491Z" fill="url(#paint0_linear_202_361)"/>
  <defs>
    <linearGradient id="paint0_linear_202_361" x1="0" y1="333.745" x2="667.491" y2="333.745" gradientUnits="userSpaceOnUse">
      <stop stop-color="#FF5C77"/>
      <stop offset="1" stop-color="#0097A7"/>
    </linearGradient>
  </defs>
</svg>