<svg xmlns="http://www.w3.org/2000/svg" width="633" height="645" viewBox="0 0 633 645" fill="none">
  <path fill-rule="evenodd" clip-rule="evenodd" d="M0.923584 33.2452V32.3031C0.923584 29.0057 1.39464 27.1215 1.86569 24.7662C2.33674 22.882 2.80779 20.9978 3.7499 18.6425C6.10516 13.461 9.40253 10.6346 12.6999 7.80832C13.171 6.86621 13.642 6.39516 14.5841 5.92411C15.9973 4.0399 19.2946 2.62673 22.592 1.68463C25.8894 0.742524 30.1288 0.271484 32.9552 0.271484C35.7815 0.271484 37.6657 0.271473 39.5499 0.742525C41.4341 0.742525 43.3183 1.68464 45.2025 2.15569C47.5578 3.56885 50.3841 4.982 53.2104 6.86621C56.5078 9.22148 60.2762 12.0478 63.1025 13.932L82.8867 27.5925L94.192 35.6004C96.5473 37.4846 98.9025 38.8978 101.729 40.782C104.084 42.6662 106.439 44.5504 108.795 45.9636C112.563 48.3188 116.331 51.1451 120.1 53.5004C123.868 56.3267 127.166 58.682 130.934 61.5083C131.876 62.4504 133.76 63.3925 136.116 64.8057C139.413 67.1609 143.653 69.9873 146.008 71.8715C147.421 73.2846 150.718 75.1688 153.545 77.053C158.255 79.8794 162.495 83.1767 164.379 85.0609C164.85 85.532 165.792 86.003 166.734 86.003C167.205 86.4741 167.205 86.4741 167.676 86.9451H168.147L180.866 96.3662C180.866 96.3662 180.866 96.8372 181.337 96.8372C181.808 96.8372 181.808 97.3083 182.75 97.3083L201.121 110.498C201.592 110.969 202.534 110.969 203.476 111.44C205.36 111.44 207.245 110.969 209.129 110.969C211.013 110.498 212.897 110.027 215.253 110.027C217.137 110.027 218.55 109.556 219.963 109.556C224.674 108.614 229.384 108.143 234.095 108.143C237.392 107.671 240.218 107.671 243.516 107.2C248.226 106.729 252.937 106.729 257.176 106.258C260.474 106.258 263.771 106.258 267.068 105.787C278.374 104.845 297.687 104.374 317.471 104.374C341.024 104.374 364.576 104.845 376.353 106.258C378.237 106.258 380.121 106.258 382.005 106.258C384.832 106.258 387.658 106.729 389.542 106.729C392.839 107.2 395.666 107.2 398.963 107.671C400.376 107.671 401.789 107.671 402.732 107.671L415.45 109.085C416.863 109.085 418.276 109.085 419.218 109.556C420.16 109.556 421.103 109.556 422.045 110.027H423.929C429.581 110.498 435.234 111.44 440.416 112.382C441.358 112.382 441.829 112.382 442.771 112.382C444.184 112.853 445.597 112.853 446.539 112.853C448.424 112.853 449.366 111.911 450.779 110.498C452.192 109.556 453.134 108.614 455.018 107.671C457.374 105.787 460.2 103.903 463.026 101.548C466.795 99.1925 471.034 95.8951 474.331 94.0109L484.224 86.9451C484.224 86.4741 484.695 86.4741 484.695 86.003C485.166 86.003 485.637 85.532 486.108 85.0609C492.703 79.8794 499.768 75.1688 506.363 69.9873C506.834 69.9873 506.834 69.5162 507.305 69.5162C507.776 69.0452 508.247 69.0452 508.247 69.0452L512.487 65.7478L536.51 47.3767L538.395 46.4346L557.708 31.832H558.179C559.592 30.8899 561.476 29.4767 562.889 28.5346C563.832 27.5925 565.245 26.6504 566.658 25.7083L583.145 13.932C586.442 11.5767 589.739 10.1636 593.508 9.22149C597.276 8.75043 601.045 8.27937 605.284 8.75042L611.879 10.1636V10.6346C614.705 11.5767 618.003 12.9899 620.829 15.3452C623.184 17.2294 625.539 19.5846 627.424 22.4109L629.779 26.6504V27.1215C631.663 30.8899 633.076 36.0715 632.605 41.2531C632.605 45.9636 631.663 51.1451 629.308 54.4425L626.01 60.5662C622.713 65.2767 613.292 71.8715 605.284 77.5241C602.458 79.4083 599.632 81.2925 597.747 82.7057V83.1767C596.334 83.6478 595.392 84.5899 593.979 85.532C592.095 86.4741 590.21 87.8872 588.326 89.7715C586.913 90.7136 585.971 91.6557 584.558 92.5978C583.616 93.5399 582.674 94.0109 582.203 94.482C580.318 95.8952 578.434 97.3083 576.55 98.7215C575.608 99.1925 574.666 99.6636 573.724 100.135L569.484 103.432C567.6 105.316 565.245 107.2 562.889 108.614C561.947 109.556 560.534 110.498 559.592 110.969L544.518 121.803C544.518 121.803 544.047 122.274 543.576 122.745C543.105 123.216 542.163 124.158 541.221 124.629C540.75 125.1 540.279 125.571 539.808 126.043C537.453 127.456 533.684 129.34 531.329 131.224C534.155 132.166 537.924 133.579 541.221 134.521C543.576 135.464 545.46 136.406 546.403 136.406C547.345 136.877 548.287 136.877 548.758 137.348C549.7 137.819 550.642 137.819 552.997 138.761C556.295 139.232 559.121 140.645 562.418 142.058C563.36 142.529 564.774 143 565.716 143.471L577.963 149.124C586.913 154.306 596.334 159.958 605.284 165.611L616.118 175.032L621.771 181.627C622.713 183.04 623.655 184.453 624.126 185.395C625.068 186.808 625.539 188.221 626.481 189.635C626.481 189.635 626.953 190.106 626.953 191.048C627.424 191.519 627.895 192.461 628.366 193.403C628.837 194.345 628.837 194.816 628.837 194.816V195.287C630.721 197.643 631.663 200.94 632.134 204.237C632.605 207.064 632.605 210.361 632.605 213.187C632.605 242.864 632.605 272.54 632.605 302.216C633.076 366.279 633.076 430.814 632.605 494.877C632.605 496.29 632.605 499.116 632.605 502.885C633.076 516.545 633.076 540.569 632.134 544.337C631.663 544.808 631.663 544.808 631.663 544.808C631.663 545.279 631.663 545.279 631.192 546.221C630.721 548.577 630.25 549.99 629.779 550.932C629.308 552.816 628.837 554.7 627.895 557.056C626.482 559.882 624.597 562.708 622.713 565.535C620.829 568.361 618.474 571.187 616.118 573.542L603.871 583.906C601.045 586.732 598.218 588.145 596.334 589.558C594.45 590.5 593.508 590.971 592.095 591.914C590.681 593.327 587.855 594.269 585.971 595.682C585.029 595.682 584.087 596.153 583.616 596.624C583.145 597.566 582.203 598.037 580.318 598.979L562.418 606.516C560.534 607.458 558.179 608.4 555.352 609.342C552.997 610.285 550.642 610.756 548.758 611.698L528.503 617.821C528.032 618.292 527.56 618.764 526.147 618.764C525.205 619.235 524.734 619.235 524.263 619.235C522.379 619.706 520.495 620.177 519.082 620.648C516.726 621.59 514.371 622.061 512.487 622.532C511.074 622.532 509.66 623.003 508.718 623.474C506.363 624.416 504.008 624.416 501.653 624.887C500.239 624.887 498.826 625.358 497.413 625.358C497.413 625.358 497.413 625.829 496.942 625.829C496.471 625.829 496 626.3 495.058 626.3C494.116 626.771 493.645 626.771 493.174 626.771C492.703 626.771 492.232 626.771 492.232 626.771C491.76 626.771 491.76 626.771 491.289 626.771C490.818 627.243 490.347 627.242 486.579 627.714C486.108 628.185 485.637 628.185 485.166 628.185C484.224 628.656 483.281 628.656 481.868 629.127L465.382 631.953C464.91 631.953 464.91 631.953 464.91 631.953C464.439 631.953 463.968 632.424 462.555 632.424C460.2 632.895 455.489 633.837 451.25 634.308C447.953 634.779 444.655 635.25 442.771 635.25C440.887 635.25 440.416 635.721 439.474 635.721C439.003 635.721 438.06 636.193 437.589 636.193C435.234 636.664 433.821 636.664 432.408 636.664C430.995 636.664 429.111 637.135 426.284 637.606C424.871 637.606 423.929 637.606 422.987 638.077C422.045 638.077 421.103 638.077 420.16 638.077C419.689 638.077 419.218 638.077 418.276 638.548C417.334 638.548 415.921 639.019 414.508 639.019C413.566 639.019 412.624 639.019 411.681 639.019C410.268 639.019 409.326 639.019 407.913 639.019C406.971 639.49 406.029 639.49 405.087 639.49C403.203 639.961 401.318 640.432 396.608 640.432C395.666 640.432 394.724 640.903 394.253 640.903C393.31 640.903 392.368 641.374 390.955 641.374C387.658 641.374 384.36 641.374 380.592 641.374H378.237C376.353 641.845 374.468 641.845 373.055 642.316C371.171 642.316 368.816 642.787 366.46 642.787C365.518 642.787 364.105 642.787 362.692 642.787C359.866 642.787 357.039 642.787 354.213 642.787C344.321 644.2 332.545 644.2 321.71 643.729C318.413 643.729 315.116 643.729 311.818 643.729C308.992 643.729 306.637 643.729 304.281 643.729C301.926 643.258 300.042 643.258 297.687 643.258H295.803C286.853 643.258 277.431 642.787 268.481 642.316C266.597 641.845 264.242 641.845 261.887 641.845C259.06 641.845 256.705 641.845 253.879 641.374C252.466 641.374 251.524 641.374 250.581 641.374C247.284 640.903 244.458 640.432 240.689 640.432C238.334 640.432 229.384 639.49 221.376 638.548C214.781 638.077 208.658 637.135 206.303 636.664C204.889 636.664 203.947 636.664 202.534 636.664C201.592 636.664 200.179 636.664 199.708 636.193C198.295 636.193 197.353 636.192 196.882 635.721C196.41 635.721 196.41 635.721 195.939 635.721L189.816 635.25H189.345C188.403 634.779 187.931 634.779 187.46 634.779C187.46 634.308 186.989 634.308 186.518 634.308C186.047 634.308 184.634 634.308 183.692 634.308C181.808 633.837 179.924 633.837 178.982 633.366C178.039 633.366 177.568 632.895 177.097 632.424V632.895C176.626 632.895 176.155 632.895 176.155 632.895C175.213 632.895 174.742 632.895 173.8 632.424L148.834 627.714C146.479 627.714 145.066 627.243 143.181 626.771L142.239 626.3C139.884 625.829 139.413 625.358 138.942 624.887C138.942 624.416 139.413 625.358 137.058 625.358C134.703 624.887 133.76 624.416 133.289 623.945C133.289 623.945 132.818 623.945 132.347 623.945C131.876 623.945 130.934 623.945 130.463 623.945C129.05 623.474 128.579 623.474 128.108 623.003C128.108 623.003 128.108 623.003 127.637 623.003C127.637 623.003 127.166 622.532 126.695 622.532C125.753 622.532 125.281 622.532 124.339 622.532C122.455 622.061 121.042 621.59 119.158 621.119C117.274 620.648 114.918 620.177 113.034 619.706C112.563 619.706 112.092 619.706 111.621 619.235H110.679L110.208 618.764C108.795 618.293 107.381 617.821 105.968 617.35C105.026 617.35 104.084 616.879 102.671 616.408C100.316 615.937 97.9604 615.466 95.6052 614.524C93.7209 613.582 92.3078 613.111 90.8946 613.111V612.64C87.1262 611.698 81.9446 609.814 76.292 607.929C69.6973 605.103 62.6315 601.806 58.8631 599.921H58.392L40.9631 590.029C37.6657 587.674 34.3683 585.319 31.542 582.964C28.2446 580.608 25.4183 577.782 22.592 574.956C20.2367 572.6 17.4104 569.303 15.0552 566.006C12.6999 562.708 10.3446 558.94 9.40252 556.114C7.51831 551.403 6.10517 548.106 5.16306 544.808C4.22096 541.04 3.7499 537.271 3.7499 531.619L4.692 207.064C5.16305 205.179 5.16306 204.708 5.16306 204.237C4.69201 202.824 4.69201 202.353 7.04727 196.7C7.51833 195.287 7.98938 194.816 7.98938 194.345C8.46043 192.932 8.93147 191.99 10.3446 189.635C12.6999 185.866 17.4104 180.214 19.7657 176.916H20.2367C23.0631 173.148 26.8315 170.321 30.5999 167.024C34.3683 164.198 38.1367 161.842 41.9052 159.487C43.3183 159.016 44.2604 158.545 45.2025 157.603C48.4999 155.719 52.7394 152.893 55.5657 151.479H56.0368C56.5078 151.479 57.4499 150.537 58.392 150.066C59.3341 149.595 60.2762 149.124 61.6894 148.653L96.5473 134.993C98.9025 134.05 101.729 133.108 104.084 132.166C106.91 131.224 109.266 130.753 112.092 130.282H112.563C113.034 129.811 113.034 129.811 113.976 129.34C114.447 129.34 114.918 128.869 115.389 128.869L64.5157 93.5399C63.1025 92.5978 62.1604 92.1267 60.7473 91.1846C59.8052 90.2425 58.392 89.3004 56.9789 88.3583L28.7157 68.5741C28.2446 68.5741 27.7736 68.1031 26.8315 67.632C26.3604 67.1609 25.8894 66.6899 25.4183 66.2188L10.8157 56.3267L10.3446 55.8557C9.40252 54.4425 8.46042 53.0294 7.51831 52.0873C4.692 48.3188 2.80778 45.9636 1.39462 38.8978C0.923572 37.0136 0.923584 35.1294 0.923584 33.2452ZM234.566 134.05L235.508 134.521C237.392 135.464 238.805 136.406 240.218 137.348L278.845 164.669H279.316C280.258 164.198 281.2 163.727 282.613 163.727C284.026 163.727 284.968 163.256 286.382 163.256C288.266 163.256 289.679 162.785 292.034 162.785C296.274 162.785 298.158 162.785 300.042 163.256C300.984 163.256 302.397 163.727 304.281 163.727C308.05 163.727 313.703 166.553 317 167.966L318.413 168.437C319.826 168.908 320.768 169.379 321.71 170.321C322.653 170.793 323.595 171.735 324.537 172.677C325.95 173.619 326.421 174.09 327.363 174.561C329.247 175.974 331.132 176.916 335.371 182.098C337.255 184.924 339.139 186.808 340.553 189.164C341.966 191.519 342.908 193.874 344.321 196.7C345.263 198.585 345.734 200.94 346.205 202.824C346.205 203.766 346.205 204.708 346.676 205.179C347.618 207.535 347.618 209.89 348.089 212.245C348.089 214.129 348.089 216.485 348.089 218.369C348.089 226.377 346.676 232.5 344.321 238.153C341.966 243.806 339.139 248.516 334.9 254.169C334.429 255.111 331.603 257.466 329.247 259.35C326.892 261.235 324.537 263.119 323.124 264.061L319.355 266.416C316.529 267.358 312.289 269.243 308.05 270.656C304.281 271.598 300.513 272.54 297.687 273.011C296.274 273.011 294.389 273.011 292.505 273.011H291.092C288.737 273.011 287.795 272.54 286.382 272.069C285.91 272.069 285.439 272.069 284.968 271.598C284.968 271.598 284.497 271.598 284.026 271.598C283.555 271.598 282.613 271.598 282.142 271.598C280.729 271.127 280.258 271.127 279.787 270.656C279.316 270.656 279.316 270.656 278.845 270.656C277.903 270.185 277.431 270.185 276.489 270.185C275.547 269.714 275.076 269.243 274.605 268.771C274.605 269.243 274.605 269.242 274.605 269.242C270.366 267.829 265.184 265.003 260.474 261.235C255.763 257.466 251.053 253.227 248.697 248.987C247.755 248.045 246.813 246.632 245.871 244.748C244.929 243.335 243.987 241.45 243.516 240.037C243.045 237.682 242.574 236.74 242.103 235.798C241.632 233.914 240.689 232.971 239.747 226.848C238.805 224.021 238.805 221.195 238.805 218.84C238.805 217.898 238.805 216.485 238.805 215.543L207.716 193.403L187.931 179.743C186.989 179.271 186.047 178.8 185.105 177.858C182.75 176.445 180.395 175.032 178.51 173.148C177.568 172.206 176.155 171.735 175.213 170.792C174.271 170.321 173.8 169.85 172.858 169.379C171.916 168.437 170.503 167.966 169.56 167.024C167.676 165.611 166.263 164.198 163.908 163.256L163.437 162.785L145.066 150.066V149.595C143.181 148.182 142.239 148.653 140.355 149.124C139.413 149.595 138 150.066 136.116 150.066C134.703 150.537 134.231 150.537 134.231 150.537C133.76 151.008 133.289 151.008 132.347 151.479C131.405 151.479 130.934 151.479 129.992 151.95C129.521 151.95 129.05 151.95 128.579 151.95C125.753 153.364 122.926 153.835 120.1 154.306C118.216 154.777 115.86 155.248 113.976 156.19C112.092 156.661 110.208 157.132 108.324 158.074C105.497 158.545 103.142 159.487 98.4315 161.371C97.9604 161.371 97.4894 161.371 97.0183 161.843C97.0183 161.843 96.5473 161.843 96.0762 161.843L77.2341 169.379C77.2341 169.379 76.7631 169.379 76.292 169.85C75.821 170.321 75.3499 170.792 74.4078 170.792L64.0446 175.974L48.4999 185.866L47.0867 187.279C44.2604 189.635 39.0788 193.403 38.1367 194.816C37.1946 196.229 36.2525 197.171 35.7815 198.114C33.4262 201.411 32.9552 201.882 30.5999 208.006C30.5999 208.477 30.1288 210.361 30.1288 211.774C30.1288 212.716 30.1288 214.129 30.1288 214.6C30.5999 215.071 31.0709 216.014 31.0709 216.956C31.542 217.898 31.542 218.369 32.0131 219.311C32.4841 222.137 33.4262 224.964 36.2525 227.79C37.1946 228.732 38.1367 229.203 39.0788 230.145C39.5499 231.087 40.492 232.029 41.4341 232.971L42.8473 234.385C49.9131 239.566 56.5078 244.748 64.0446 248.516C65.9289 249.458 67.8131 250.4 69.2262 251.342C72.0525 252.756 74.8789 254.169 79.5894 256.053C82.8867 257.466 84.771 258.408 86.6552 259.35C93.2499 262.177 94.6631 263.119 107.853 266.416C108.795 266.887 109.266 266.887 109.737 267.358C110.208 267.358 110.208 267.358 110.679 267.358C111.621 267.829 112.563 267.829 113.976 268.771L129.992 273.482H130.463C130.934 273.482 131.405 273.482 131.405 273.482C132.818 273.953 133.76 273.953 136.116 274.895L146.008 277.721C147.892 277.721 150.247 278.192 152.131 278.664C154.958 279.135 157.313 280.077 158.726 280.077H159.197C162.495 280.548 165.321 281.019 168.618 281.961C172.858 282.903 177.097 283.845 181.337 283.845C181.808 283.845 183.221 283.845 184.163 284.316C186.518 285.258 189.816 286.2 194.526 286.2C195.939 286.2 196.881 286.671 197.824 287.142C197.824 287.142 198.295 287.142 198.766 287.142L212.897 288.556C214.781 289.027 215.724 289.027 217.137 289.498C218.55 289.498 220.434 289.969 222.318 289.969L241.632 291.853C252.466 293.266 270.837 294.208 289.679 294.679C309.463 295.15 330.189 295.15 342.437 294.679L386.716 292.324C387.658 292.324 388.6 291.853 389.542 291.853C390.013 291.853 390.484 291.853 390.955 291.382C392.839 291.382 395.195 291.382 397.079 291.382C398.492 291.382 399.905 291.382 401.318 291.382C402.732 290.911 403.674 290.911 405.087 290.911C406.5 290.44 408.384 289.969 410.739 289.969C414.037 289.969 417.805 289.498 421.574 289.027C426.284 288.085 430.995 287.614 434.763 287.614C435.234 287.614 436.176 287.142 437.118 287.142C438.532 286.671 440.416 286.2 443.713 286.2C444.184 286.2 444.655 285.729 445.126 285.729C445.597 285.729 446.539 285.258 447.481 285.258L473.86 281.019C476.216 280.077 478.571 279.606 480.926 279.606C483.282 279.135 485.166 279.135 487.05 278.193C488.463 277.721 489.405 277.721 490.347 277.721C490.818 277.721 491.289 277.721 492.232 277.25C492.703 277.25 492.703 277.25 493.174 276.779C494.116 276.779 495.058 276.308 496.471 276.308H497.884C498.355 275.837 498.826 275.837 500.239 275.366C501.182 274.895 502.595 274.895 503.537 274.424C505.421 274.424 506.834 273.953 508.247 273.482C510.132 272.54 511.074 272.54 512.016 272.54C512.016 272.54 512.016 272.54 512.487 272.54L518.139 270.656C519.553 270.185 520.966 269.714 522.379 269.242C527.089 267.829 532.271 266.416 535.568 264.532L543.576 261.706C545.931 260.764 547.816 260.292 549.7 259.35C552.997 258.408 555.824 257.466 558.65 256.053C560.063 255.111 561.947 254.169 563.831 253.698C565.716 252.756 567.6 251.814 569.013 250.871C570.897 249.929 572.782 248.987 574.666 247.574C578.434 245.69 581.732 243.806 585.029 241.45C585.5 240.979 586.442 240.508 586.913 240.037C586.913 240.037 587.384 240.037 587.855 239.566C589.268 238.153 590.681 237.211 592.095 236.269C593.979 234.856 595.863 233.442 597.276 232.029L604.813 221.666C605.755 219.782 606.226 217.427 606.697 215.543C607.168 213.658 607.168 212.245 606.697 210.832V209.419C605.755 206.121 605.284 204.708 604.813 203.766C604.342 202.353 603.4 200.94 601.516 198.585L601.045 197.171L582.203 181.156L566.187 172.206L561.947 170.321L558.179 168.908L557.237 168.437C556.295 167.966 555.824 167.966 554.882 167.495C553.468 167.024 552.997 166.553 552.055 166.082C551.584 166.082 551.584 165.611 551.113 165.611L536.51 160.429C534.155 159.958 530.858 158.545 527.56 157.603C523.792 156.19 519.553 154.777 516.255 154.306C514.842 153.835 512.958 153.364 511.074 152.421C508.718 151.479 506.363 150.537 504.95 151.008C504.95 151.008 501.653 153.364 499.768 154.777C498.826 155.719 498.355 156.19 497.884 156.661L471.505 175.503C471.505 176.916 471.505 177.858 471.505 179.271C471.505 180.214 471.505 181.627 471.505 182.569C471.505 187.279 470.092 191.99 468.679 197.171C466.795 201.882 463.968 206.592 461.142 210.361L457.374 215.543L446.539 224.493C444.655 225.906 442.3 227.319 439.945 228.261C437.589 229.203 435.234 230.145 432.879 230.616C430.995 231.087 429.582 231.087 428.639 231.558C422.516 232.971 422.516 233.443 412.153 232.971C410.268 232.971 409.797 232.5 408.384 232.5C408.384 232.029 407.913 232.029 407.913 232.029C406.5 232.029 406.029 231.558 405.087 231.558C402.732 231.558 400.376 231.087 394.253 228.261C389.071 225.435 383.889 222.137 379.65 217.898C375.41 214.129 371.642 209.419 368.816 204.237C367.874 202.353 366.931 200.469 365.989 198.114C365.047 195.758 364.105 192.932 363.634 190.577C362.692 187.75 362.692 184.924 362.221 182.098C362.221 176.445 362.221 170.321 364.105 164.669C364.105 163.727 364.105 163.256 364.576 162.785C364.576 162.785 364.576 162.314 365.047 161.371C365.518 158.074 366.931 155.248 368.345 152.421C369.758 150.066 371.642 147.711 373.526 145.356C373.526 144.885 373.997 144.414 373.997 143.943C375.882 141.587 377.766 139.232 380.592 137.348C382.005 136.406 382.947 135.464 384.36 134.521C385.303 134.05 386.245 133.108 387.187 132.637C382.005 132.166 373.997 131.695 366.932 131.695C361.279 131.224 356.097 131.224 354.213 130.753C340.081 129.34 299.1 130.753 276.96 131.224C273.192 131.224 269.895 131.224 267.539 131.695C266.126 131.695 264.242 131.695 262.829 131.695C260.945 131.695 259.06 131.695 257.176 132.166C255.763 132.166 255.292 132.166 254.821 132.166C253.879 132.166 253.408 132.637 252.466 132.637C250.11 132.637 247.755 133.108 245.4 133.108C242.574 133.108 239.747 133.108 236.921 133.579C235.979 133.579 235.508 134.05 234.566 134.05ZM233.153 380.882L232.681 547.164L244.929 556.114L245.4 556.585C248.226 560.353 250.11 564.121 251.053 566.477C251.053 567.419 250.581 567.419 251.053 567.419C251.524 567.419 255.292 567.89 258.118 567.89C259.531 567.89 260.945 567.89 261.887 567.89C262.829 567.89 263.771 568.361 264.242 568.361C264.713 568.361 265.184 568.361 266.126 568.832C271.308 568.832 276.96 568.832 282.142 569.303H283.555C286.381 569.303 288.737 569.303 291.563 569.303C294.86 569.774 298.158 569.774 300.513 569.774C308.521 569.774 321.71 570.245 333.487 569.774C341.495 569.774 348.56 569.774 353.271 569.303C356.097 568.832 359.395 568.832 362.692 568.832C365.518 568.832 368.345 568.832 371.171 568.361C373.055 568.361 374.468 568.361 375.882 568.361C376.824 567.89 377.766 567.89 379.179 567.89C380.592 567.89 382.005 567.89 383.418 567.419C384.361 567.419 384.832 567.419 385.774 567.419C385.774 567.419 385.774 566.948 386.245 566.477C386.716 565.064 387.187 563.179 388.129 561.766C389.542 559.411 390.955 557.527 392.839 555.643C397.079 550.461 400.847 549.048 403.203 548.106L404.145 547.635C404.616 533.974 404.145 447.771 404.145 404.435C404.145 393.129 404.145 385.121 404.145 381.353C404.145 380.882 403.674 380.882 402.732 380.411C400.376 379.469 398.021 378.527 395.195 375.7C391.426 372.403 390.484 370.519 388.6 367.221L388.129 366.75C386.716 366.75 384.832 366.75 383.418 366.75C380.121 366.75 376.824 367.221 374.468 367.693C371.642 367.693 366.46 368.164 360.337 368.164C353.742 368.164 346.205 368.164 340.553 368.635C336.784 369.106 327.363 369.106 317 369.106C301.926 369.106 284.497 368.635 280.258 368.164C278.374 368.164 276.018 368.164 274.134 368.164C270.366 367.693 267.068 367.692 263.771 367.221C261.416 367.221 258.589 366.75 256.234 366.75C253.879 366.75 251.524 366.75 249.168 366.75C244.458 374.287 243.045 375.7 234.095 380.411L233.153 380.882ZM430.053 381.353V547.164L434.763 549.99C437.118 551.403 438.531 552.345 440.416 553.758C441.829 555.643 443.242 557.527 445.126 560.353C445.597 560.824 445.597 560.824 445.597 560.824C446.068 560.824 446.539 560.353 447.01 560.353C447.953 560.353 448.424 559.882 449.366 559.882C450.308 559.882 451.721 559.882 454.076 559.411V558.94C457.845 558.469 461.613 557.998 465.382 557.527C466.324 557.527 466.795 557.056 467.266 557.056C468.208 556.585 469.621 556.585 472.918 556.114L500.239 549.99C500.71 549.519 501.653 549.048 503.066 548.577C504.008 548.577 504.95 548.577 505.421 548.577C505.892 548.577 506.363 548.577 506.834 548.106C507.776 548.106 509.189 547.635 510.603 547.164C512.487 546.693 514.842 546.221 515.784 545.279C515.784 545.279 515.784 543.866 516.726 541.982C517.668 539.156 518.61 535.387 520.495 533.032C524.734 527.379 525.676 526.908 530.858 523.14H531.8C533.213 522.198 534.155 521.727 534.626 521.256V355.445H534.155C531.329 354.032 526.618 351.206 523.321 347.908C522.85 346.966 522.85 346.495 522.379 346.495C522.379 346.024 522.379 346.024 520.024 346.495L519.553 346.966C519.082 346.966 518.61 347.437 516.726 347.908L512.487 348.85C511.545 349.321 511.074 349.321 510.132 349.321C509.66 349.321 509.189 349.321 508.718 349.321H508.247L487.521 354.032H486.579C486.108 354.503 485.637 354.503 485.637 354.503L453.605 359.685C451.25 360.156 449.837 360.627 448.424 360.627C448.424 360.627 448.424 360.627 448.424 361.098C448.424 362.04 447.953 363.453 447.481 364.395L442.771 371.461L432.879 380.411C431.466 380.882 430.995 381.353 430.053 381.353ZM102.671 355.445V520.785C104.084 521.727 104.555 522.198 105.497 522.198C106.439 522.669 107.381 523.14 108.324 523.611V524.082C111.15 526.908 113.505 529.735 115.86 532.561C118.687 536.8 118.687 537.271 119.158 539.156C119.629 539.627 119.629 540.569 120.1 541.511C120.1 541.982 120.1 541.982 120.571 541.982C121.042 542.924 121.513 543.395 121.513 545.75C121.513 546.221 121.513 546.221 121.513 546.221C121.984 546.221 122.455 546.693 123.397 546.693L143.653 552.345C144.124 552.345 144.595 552.345 145.066 552.345C145.537 552.345 146.008 552.345 146.95 552.816C147.892 552.816 148.363 553.287 149.305 553.287L149.776 553.758C150.247 553.758 150.718 553.758 151.189 553.758C152.131 553.758 153.074 553.758 154.016 554.229C155.429 554.7 155.9 554.7 155.9 555.171C156.371 555.171 155.9 554.7 156.842 555.171C159.197 555.171 163.908 556.114 169.56 557.056C177.568 558.469 187.46 560.353 191.7 560.824C192.171 559.882 192.642 559.411 194.526 557.056C194.997 556.114 196.882 554.229 198.295 552.816C199.237 551.874 200.65 550.932 201.592 550.461L207.245 547.164V381.353C206.303 381.353 204.889 380.882 203.476 379.94C201.121 378.527 198.766 376.643 196.41 374.287C194.526 372.403 192.642 370.048 192.171 368.164C191.7 367.693 191.229 366.75 190.758 366.279C189.816 364.395 189.345 362.511 188.874 360.156H188.403C187.931 360.156 187.931 360.156 187.46 360.156C186.047 360.156 185.576 359.685 185.105 359.685C185.105 359.685 185.105 359.685 184.634 359.685C183.692 359.214 181.808 359.214 180.395 359.214C178.981 359.214 177.097 359.214 175.213 358.743C174.271 358.743 173.8 358.742 173.329 358.271C172.858 358.271 172.387 358.271 171.916 357.8C167.676 357.329 165.321 356.858 162.495 356.387C161.553 356.387 160.61 355.916 158.255 355.445C157.784 355.445 157.313 355.445 156.371 355.445C155.9 355.445 154.958 355.445 154.016 354.974L129.05 349.321C128.108 349.321 127.637 349.321 127.166 348.85C126.224 348.85 125.753 348.85 124.81 348.85C123.868 348.379 122.926 348.379 121.984 347.908C120.571 347.437 118.687 346.966 117.274 346.495C115.86 346.495 115.389 346.024 114.918 346.024C114.447 346.495 113.976 346.966 113.505 347.437C109.266 351.206 108.795 351.677 106.439 353.09C105.968 353.561 105.026 354.032 103.142 355.445H102.671ZM65.9289 302.687L67.342 300.803V300.332C69.6973 298.448 72.5236 296.564 75.821 294.679C79.1183 293.266 81.9446 292.324 84.7709 292.324C98.4315 291.853 100.316 293.266 106.91 297.506C108.324 298.448 109.737 299.39 111.621 300.332C112.563 300.803 113.505 301.745 114.447 303.629C115.86 305.514 117.274 307.869 117.745 308.811C120.571 313.521 121.042 316.348 121.984 318.703C121.984 320.116 121.984 320.587 122.455 321.058C122.455 321.058 129.05 322.471 131.876 323.414H133.289C137.058 324.356 138 324.827 138.942 324.827C139.413 324.827 140.355 324.827 142.239 325.298C143.181 325.298 143.653 325.298 144.595 325.769C145.066 325.769 145.537 326.24 146.479 326.24C148.363 326.24 149.776 327.182 151.66 327.653C152.603 328.124 154.016 328.595 155.429 328.595C155.9 328.595 156.371 328.595 157.313 328.595C158.255 328.595 159.197 328.595 160.61 329.066C161.553 329.066 162.024 329.537 162.966 329.537C163.437 330.008 163.908 330.008 164.379 330.008C167.676 330.479 168.618 330.479 169.56 331.421C170.974 331.421 173.329 331.892 175.213 331.892C178.51 331.892 181.808 332.364 184.163 333.306C185.576 333.777 186.047 333.777 188.403 333.777C188.874 333.777 189.816 333.777 190.287 333.777C191.229 333.777 191.7 334.248 192.642 333.777C193.113 333.777 192.642 333.306 193.113 332.835C194.055 331.421 194.997 330.008 196.41 328.595C200.179 324.827 204.418 322 208.658 320.116C213.368 318.703 218.55 317.761 224.203 318.703C229.384 319.174 234.095 320.587 237.863 323.414C242.103 325.769 245.4 329.537 247.755 333.777C249.168 335.19 249.639 336.603 250.581 338.016C250.581 338.958 251.053 339.9 251.524 341.314C252.937 341.314 255.763 341.314 258.118 341.785C260.945 341.785 263.771 341.785 265.184 342.256C267.539 342.256 274.134 342.727 282.142 342.727C295.803 343.198 312.76 343.198 317.942 343.198C324.537 343.198 330.66 343.198 337.255 342.727C342.437 342.727 348.089 342.727 353.271 342.727C359.395 342.727 365.518 342.256 372.113 341.785C376.353 341.314 381.063 340.842 385.774 340.842C386.245 339.9 386.716 338.958 387.187 338.016C388.129 334.719 389.071 332.364 394.253 327.182H394.724C398.963 323.414 403.203 321.058 408.384 319.645C413.095 318.232 418.276 318.232 423.929 318.703H424.4L430.524 320.587L430.995 321.058C433.35 322.471 436.176 324.356 438.531 326.24C440.887 328.124 442.771 330.479 444.655 333.306C444.655 333.777 445.126 334.248 445.126 334.719L476.687 330.008C478.1 329.537 479.984 329.066 482.339 328.595C485.166 328.124 488.934 327.653 492.232 326.711L515.313 321.058C515.784 320.116 515.784 319.174 515.784 318.703C517.668 312.108 518.61 308.34 524.734 302.216C525.205 301.745 525.205 301.745 525.676 301.274C526.618 299.861 528.031 298.448 529.445 297.506C534.155 295.15 536.981 293.737 540.279 292.795C543.105 292.324 546.403 292.324 552.055 292.324C556.766 292.795 561.476 295.15 564.774 296.564C564.774 297.035 564.774 296.564 565.716 297.506C567.6 298.448 568.071 298.448 568.542 299.39C569.013 299.861 569.013 300.332 569.484 300.803C571.368 302.687 571.839 302.216 572.781 301.745C573.253 301.274 574.195 300.803 575.608 300.332L581.732 297.977L603.871 286.2C607.639 283.845 607.639 283.845 607.168 281.019C607.168 279.606 607.168 278.193 607.168 276.308V257.937C606.226 258.879 605.284 259.35 604.813 259.821C600.103 263.59 595.863 266.416 591.153 268.771C586.913 271.598 582.203 273.953 577.021 276.308C576.55 276.779 575.608 277.25 574.666 277.721C572.782 278.664 571.368 279.135 569.013 280.077L556.766 285.258L541.692 290.911C540.75 291.382 539.808 291.382 538.866 291.853C537.453 292.324 535.568 292.324 533.213 293.737C531.329 294.208 529.445 294.679 528.032 295.15C526.618 295.621 525.205 295.621 524.263 296.093C521.908 297.035 517.668 297.506 515.784 297.977C514.842 298.448 513.9 298.919 512.487 298.919L500.71 301.745H500.239C499.768 301.745 499.297 301.745 499.297 301.745C498.826 302.216 497.884 302.687 496 302.687C495.529 302.687 495.058 302.687 494.587 302.687C494.116 302.687 493.645 302.687 493.645 302.687C493.174 303.158 492.703 303.158 492.232 303.629C488.934 304.1 485.637 305.043 482.339 305.514C481.397 305.514 481.397 305.514 481.397 305.514C480.926 305.985 479.984 306.456 478.1 306.456C476.216 306.927 474.332 307.398 471.976 307.869C469.15 308.34 466.324 308.811 463.497 309.282C462.084 309.282 461.613 309.282 461.142 309.282C460.671 309.753 460.2 309.753 459.729 309.753C458.316 310.224 457.374 310.224 455.96 310.224C455.489 310.695 455.018 310.695 454.547 310.695C453.605 310.695 453.605 310.695 453.134 311.166C452.192 311.166 451.25 311.637 448.895 311.637C448.424 311.637 447.953 311.637 447.481 311.637C446.068 311.637 445.126 311.637 444.184 311.637C443.713 311.637 443.242 312.108 442.771 312.108C441.829 312.579 440.887 312.579 439.003 312.579L438.06 313.05C437.118 313.05 436.176 313.05 434.763 313.05C433.821 313.521 422.516 314.935 412.153 316.348C404.616 316.819 397.079 317.761 394.253 317.761C392.839 317.761 391.897 317.761 390.484 317.761C388.129 317.761 385.774 317.761 383.418 318.232C381.534 318.232 379.65 318.232 377.766 318.703C374.468 319.174 371.171 319.174 367.874 319.645C366.46 319.645 365.989 319.645 365.047 319.645C364.576 319.645 364.105 320.116 363.163 320.116C354.213 321.058 319.355 320.587 302.397 320.587H296.745C289.679 320.587 283.555 320.116 277.432 319.645C272.721 319.645 268.481 319.645 264.242 319.174H262.829C259.531 319.174 255.763 319.174 253.408 318.703C251.524 318.703 250.11 318.232 248.226 318.232C246.342 318.232 244.929 318.232 243.045 317.761C240.218 317.761 238.805 317.761 236.921 317.29C235.508 317.29 234.095 316.819 232.681 316.819C231.739 316.819 230.797 316.819 229.855 316.819C227.5 316.819 224.203 316.348 222.318 315.877C221.376 315.877 216.666 314.935 211.484 314.464C204.418 313.992 196.41 313.05 193.113 312.108L178.039 310.224C176.626 310.224 175.684 309.753 175.213 309.753C174.742 309.753 173.8 309.282 173.329 309.282C172.858 309.282 172.387 309.282 171.445 309.282C170.503 309.282 169.56 308.811 168.147 308.811L154.958 305.514C151.66 305.043 148.363 304.571 145.537 304.1C142.239 303.158 138.942 302.687 136.116 301.745C135.174 301.745 133.76 301.274 132.347 301.274C130.463 300.803 128.108 300.332 126.224 299.861C125.753 299.39 124.81 299.39 124.339 299.39C123.868 298.919 122.926 298.919 121.984 298.919L117.745 297.506L117.274 297.035C115.86 297.035 113.976 296.564 113.034 296.093C112.563 296.093 112.092 295.621 111.621 295.621C106.439 294.208 102.671 292.795 98.9025 291.382C97.0183 290.911 95.1341 290.44 92.3078 289.498L91.3657 289.027C86.1841 287.614 81.0025 285.729 75.3499 283.374L72.0525 281.961L68.7552 280.548C68.2841 280.077 67.342 280.077 66.871 280.077C65.4578 279.135 64.0446 278.664 62.1604 277.721C60.2762 276.308 56.9788 274.424 53.6815 273.011C50.3841 271.127 47.5578 269.714 45.2025 268.3H44.7315L30.1288 257.937C30.1288 262.648 30.1288 269.242 30.1288 275.366C30.1288 280.548 30.1288 283.845 30.1288 284.316C31.0709 285.258 37.1946 288.556 43.7894 291.853C50.3841 295.621 57.4499 298.919 59.8052 299.861C59.8052 300.332 60.7473 300.332 61.2183 300.803C62.6315 301.274 64.5157 302.216 65.9289 302.687ZM580.318 549.048C580.318 550.461 580.318 551.874 580.318 552.816C580.318 556.585 580.318 559.882 577.963 564.592C577.021 567.89 575.608 570.245 574.195 572.129L587.384 564.122C588.326 563.179 590.682 561.766 592.566 559.882C594.45 558.469 595.863 557.056 596.805 556.114C598.689 553.758 599.16 552.816 599.631 552.345C600.103 551.874 600.574 551.403 602.458 548.577C604.813 545.279 605.755 542.924 606.226 540.098C606.697 537.743 607.168 535.387 607.168 532.561C606.697 533.032 606.226 533.503 605.284 533.974C598.689 538.214 592.095 542.453 585.5 547.164H585.029C584.558 547.635 583.616 547.635 583.145 547.635C583.145 547.635 582.674 547.635 582.674 548.106L580.318 549.048ZM546.403 584.848C542.634 584.377 538.395 583.435 535.568 582.021C534.155 581.079 533.684 581.079 532.742 580.608C530.858 579.666 528.974 579.195 526.147 576.369C523.792 574.485 522.85 573.071 521.908 572.129C521.437 571.658 522.379 571.658 521.908 571.658C521.908 571.658 520.966 571.658 519.082 572.129C517.197 572.6 514.842 573.542 511.074 574.014L504.008 575.898L503.537 576.369C503.066 576.369 502.124 576.369 501.653 576.369C500.71 576.369 500.239 576.84 500.239 576.84C499.768 576.84 499.297 577.311 498.355 577.311L488.463 579.195H487.992C487.05 579.666 486.108 580.137 484.224 580.137C481.868 580.608 479.513 581.079 477.629 581.55C474.803 582.021 471.976 582.493 468.679 582.964C468.679 582.964 468.679 582.964 468.679 582.492C468.208 582.964 467.737 583.435 466.324 583.906C464.91 583.906 463.968 583.906 462.555 583.906C462.084 584.848 460.671 585.79 458.787 584.848H458.316C457.374 585.319 456.432 585.319 455.96 585.319C455.018 585.319 454.547 585.79 454.547 585.79C454.076 585.79 453.605 585.79 453.134 585.79C452.663 586.261 452.192 586.261 450.308 586.732H448.895C448.424 586.732 448.895 586.261 448.424 586.261C448.424 586.732 448.424 586.732 447.953 587.674V588.616C447.482 588.616 447.481 589.087 447.481 589.087C447.481 590.029 447.01 590.5 446.539 591.914C445.597 593.798 444.655 595.211 443.242 597.095C442.3 598.979 440.416 600.864 439.003 602.277C438.531 602.277 438.06 602.748 437.589 603.219C436.647 603.69 436.176 604.632 434.763 605.574C433.821 605.574 433.35 606.045 432.879 606.516C431.466 607.458 430.524 607.929 427.697 608.871C425.342 609.342 421.574 610.285 417.805 610.285C414.979 610.756 411.682 610.285 409.326 609.342C407.913 608.871 406.5 608.4 405.558 608.4C401.789 606.987 400.847 606.987 396.137 603.219C394.253 601.806 392.839 599.921 391.426 598.037C390.013 596.624 389.071 595.211 388.129 593.798C382.476 593.327 374.939 594.269 368.816 594.74C365.989 595.211 365.989 595.211 364.576 595.211C357.982 595.682 337.726 595.682 325.479 595.682C322.653 595.682 320.297 595.682 318.413 595.682C312.289 595.682 306.637 595.682 300.513 595.682C294.389 595.211 288.266 595.211 282.142 595.211C278.845 595.211 276.018 595.211 273.192 594.74C270.837 594.74 268.01 594.269 264.713 594.269H255.763C253.879 593.798 252.466 593.798 251.524 593.798C250.582 593.798 249.639 593.327 249.168 593.327C248.697 593.798 248.697 594.269 248.226 594.74C247.284 596.624 246.342 598.037 242.103 602.277C239.747 604.632 236.921 606.045 234.566 607.458C227.971 610.285 220.905 611.227 214.31 610.285C207.716 608.871 201.121 605.103 195.939 599.921C193.584 597.095 191.7 594.269 190.287 590.971C189.816 590.029 189.345 589.087 189.345 587.674C188.874 587.203 188.874 586.261 188.403 586.261C184.634 586.261 184.163 585.79 183.221 585.319C183.221 585.319 183.692 585.319 182.75 585.319C178.981 584.848 168.618 583.435 160.139 582.021C154.487 581.079 149.776 580.137 147.421 579.195L122.926 574.014C121.984 573.542 121.513 573.542 121.042 573.071C119.629 572.6 117.745 572.129 115.389 571.658C114.918 572.6 114.447 573.071 113.976 573.542C112.563 574.956 111.15 576.369 109.737 577.311C105.497 580.608 101.258 582.493 97.0183 583.435C93.721 584.377 90.4236 584.377 86.6552 584.377C89.9525 585.79 93.7209 587.203 97.4894 588.145C101.258 589.558 104.555 590.5 107.853 591.443C109.737 591.914 111.621 592.385 113.034 592.856C114.447 593.327 117.274 594.269 120.1 594.74C123.868 595.682 127.166 596.624 128.579 597.095C129.521 597.566 133.289 598.037 136.587 598.979C139.884 599.45 142.71 600.392 144.124 600.864C145.537 601.335 146.008 601.335 146.479 601.335C147.421 601.335 147.892 601.335 149.305 601.806C150.718 601.806 152.131 602.277 153.074 602.748C155.429 603.219 157.313 603.69 159.668 603.69C161.082 603.69 162.024 604.161 163.437 604.632C163.908 604.632 164.379 604.632 165.321 605.103C165.792 605.103 165.792 605.103 166.263 605.103C166.734 605.103 167.205 605.103 168.147 605.103C169.56 605.574 170.031 605.574 170.503 606.045C170.503 606.045 170.503 606.045 170.974 606.045C171.445 606.045 171.916 606.045 172.387 606.045C173.8 606.045 175.213 606.516 176.626 606.987C178.039 606.987 178.981 607.458 180.395 607.458C181.808 607.458 183.221 607.458 185.105 607.929C186.047 607.929 186.518 608.4 186.989 608.4V608.871C187.932 608.871 188.403 608.871 189.345 608.871C190.758 608.871 191.7 608.871 193.113 609.342C194.997 609.814 196.41 609.814 197.824 609.814C199.237 609.814 200.65 609.814 202.063 610.285C203.476 610.285 204.418 610.756 204.889 611.227C205.36 611.227 206.774 611.227 208.187 611.227C208.658 611.227 209.129 611.227 210.071 611.227C212.426 611.227 215.253 611.698 217.608 612.169C219.021 612.169 220.434 612.169 222.318 612.64C224.203 612.64 227.5 613.111 231.268 613.582C236.921 614.053 243.045 614.995 245.4 614.995C253.879 614.995 261.887 615.466 269.895 616.408C278.374 616.879 286.853 617.35 294.86 617.35C299.1 617.35 303.339 617.821 307.108 617.821C311.347 617.821 316.058 618.293 320.297 618.293H323.124C335.842 618.293 360.808 618.292 370.229 616.879C372.584 616.408 375.41 616.408 378.708 616.408C380.592 616.408 382.947 616.408 385.303 615.937C386.245 615.937 386.716 615.937 387.187 615.937C388.6 615.466 390.484 614.995 394.253 614.995C395.195 614.995 396.137 614.995 397.079 614.995C398.021 614.995 399.434 614.995 400.376 614.995C400.847 614.995 400.847 614.524 400.847 614.524C401.318 614.524 401.789 614.524 402.732 614.053C404.616 614.053 406.5 614.053 407.913 613.582C409.326 613.582 410.739 613.582 411.681 613.582C412.624 613.582 413.095 613.111 413.566 613.111C414.979 613.111 416.392 612.64 417.805 612.64C418.747 612.64 419.689 612.64 421.103 612.64C422.045 612.64 422.987 612.64 423.929 612.169C424.4 612.169 424.871 612.169 425.813 611.698C426.755 611.698 427.697 611.227 429.11 611.227C430.995 610.756 432.879 610.756 434.763 610.285C438.531 609.814 442.3 608.871 446.068 608.871C447.01 608.871 447.482 608.871 448.424 608.4C449.366 608.4 450.779 608.4 451.25 608.4H451.721C455.018 607.458 458.787 606.987 462.555 606.045C463.497 606.045 463.968 605.574 464.91 605.574C465.382 605.574 466.324 605.103 467.737 605.103L472.918 604.161C473.86 603.69 475.274 603.69 477.629 603.219C481.397 602.748 487.05 601.806 489.405 600.864L495.058 599.921L495.529 599.45C496 599.45 496.471 599.45 496.942 598.979H497.413C498.355 598.979 499.297 598.508 500.239 598.508C503.537 597.566 508.247 597.095 509.66 596.153C511.545 595.211 512.487 595.211 513.9 595.211C514.371 594.74 514.842 594.74 515.784 594.74C518.61 594.269 522.379 592.856 526.147 591.914C530.858 590.5 536.039 588.616 540.279 587.203C541.221 586.732 542.634 586.261 543.576 585.79C544.518 585.319 545.46 584.848 546.403 584.848ZM468.679 582.492L469.15 582.021C469.15 582.492 468.679 582.492 468.679 582.492ZM65.9289 574.956C64.0446 573.071 62.1604 570.716 60.7473 567.89C58.392 563.179 56.5078 557.998 56.5078 553.287C56.5078 552.345 56.5078 551.403 56.5078 550.932C56.5078 550.461 56.5078 549.519 56.5078 549.048C55.0946 548.577 53.6815 547.635 52.2683 546.693C51.3262 546.221 50.3841 545.75 49.442 545.279C49.442 545.279 49.442 545.279 48.971 544.808C48.4999 544.808 48.0288 544.808 47.5578 544.337H47.0867L32.4841 533.974C31.542 533.503 31.0709 533.032 30.1288 532.561C30.1288 534.916 30.1289 537.271 30.5999 539.156C31.542 542.924 32.9552 546.221 35.7815 549.99C38.1367 553.758 40.492 556.585 43.3183 559.411C45.6736 561.766 48.971 564.121 52.2683 566.477L56.5078 569.303C59.8052 571.658 61.2183 572.6 63.1025 573.542C63.5736 574.014 64.5157 574.485 65.9289 574.956ZM609.524 529.735C609.995 529.735 610.466 529.735 609.524 529.735V529.735ZM30.1288 313.992C30.1288 317.761 30.1288 322.471 30.1288 335.661C30.1288 385.121 30.1289 488.282 30.5999 491.108C30.5999 491.579 31.071 492.992 31.542 494.877C32.9552 496.761 33.8973 499.116 34.8394 500.529C37.1946 504.298 40.9631 507.595 44.2604 510.892C45.6736 511.835 46.6157 512.777 48.0289 514.19C48.4999 514.661 51.7973 516.545 54.6236 518.429C56.5078 519.371 57.9209 520.314 59.3341 521.256C60.7473 522.198 60.7473 522.198 61.2183 522.198C61.2183 522.198 61.6894 522.669 62.6315 522.669C63.1025 523.14 64.5157 523.611 65.4578 524.553C66.8709 525.024 68.2841 525.966 68.2841 525.966C69.2262 525.966 68.2841 525.966 69.2262 525.495C71.1104 524.082 73.9367 522.669 76.292 521.727V355.445L75.3499 354.974C71.5815 353.09 64.9867 349.793 60.2762 340.842C59.8052 339.429 59.3341 338.487 59.3341 338.016C58.8631 337.545 58.392 337.074 58.392 336.603C57.9209 335.661 57.9209 335.19 57.4499 333.777L56.9789 330.95C56.5078 329.537 56.5078 328.124 56.5078 327.182V326.711L31.542 315.406L31.0709 314.464L30.1288 313.992ZM580.318 326.711C580.318 332.835 579.847 334.248 577.021 340.842C573.724 347.437 568.071 350.735 562.418 354.503L561.476 355.445L561.005 521.256C561.947 521.256 562.889 521.727 565.245 523.611C566.187 524.082 566.658 524.553 567.6 525.024C569.013 525.966 569.484 526.437 573.724 523.611L592.566 510.892L593.508 510.421C597.747 506.182 601.516 502.885 603.871 497.703C604.342 496.761 604.813 496.29 604.813 496.29C605.755 494.406 606.226 492.992 606.697 491.579C607.168 490.166 607.168 488.282 607.168 486.398V313.992L603.4 315.877C602.458 316.348 601.987 316.819 601.516 316.819C601.045 317.29 600.574 317.29 599.631 317.761V318.232L589.739 322.471C589.268 322.471 588.797 322.471 588.797 322.471V322.943C588.326 322.943 588.326 322.943 588.326 322.943C587.384 323.414 586.442 324.356 584.087 324.827C582.203 325.298 581.732 325.769 580.789 326.711H580.318ZM293.447 189.164C289.679 189.164 286.853 190.106 284.026 190.577C279.316 191.99 276.018 192.932 270.366 190.106C268.953 189.164 267.068 188.221 265.655 187.279C264.242 186.337 262.829 184.924 261.416 183.982L255.292 179.743C253.408 178.8 251.995 177.858 250.581 176.916C247.284 174.561 243.987 172.206 240.689 169.379L226.087 159.487C223.26 158.074 221.376 156.661 219.021 154.777C217.137 153.364 215.724 152.421 213.839 151.008L201.592 142.529C197.824 140.174 194.526 137.348 191.229 134.993C187.931 133.108 185.105 130.753 181.808 128.869L174.742 123.687C170.503 120.861 166.734 118.035 162.966 115.208C160.61 113.795 158.726 112.382 156.371 110.498C154.487 109.085 152.603 107.671 150.247 106.258C146.95 104.374 144.124 102.019 140.355 99.6636C137.529 97.3083 134.231 94.9531 130.934 92.5978C128.579 91.1846 125.753 89.3004 123.397 87.4162C116.803 82.7057 110.208 77.9952 103.142 73.7557C97.4894 69.9873 91.3657 65.7478 85.7131 61.5083C82.8867 59.6241 80.0604 57.7399 77.7052 55.8557C72.5236 52.0873 67.342 48.3188 62.6315 45.0215L45.2025 33.2452L44.7315 32.7741C40.9631 29.4767 35.3104 24.7662 31.0709 26.6504C30.1288 26.6504 29.6578 27.1215 29.1867 27.5925C28.2446 28.0636 27.7736 29.4767 27.3025 30.4188C26.8315 31.832 26.8315 33.2452 27.3025 34.6583C27.7736 35.1294 27.7736 35.6004 28.2446 36.0715L48.971 51.1452C51.3262 52.5583 53.6815 53.9715 56.0368 55.8557C58.392 57.2688 60.2762 59.1531 62.6315 61.0373C63.1025 61.5083 64.0446 61.9794 64.9868 62.9215C66.3999 63.8636 68.2841 64.8057 69.6973 65.7478L88.5394 78.4662C90.8946 79.8794 93.2499 81.7636 95.1341 83.1767C98.9025 86.003 102.671 88.8294 106.91 91.1846V91.6557L130.934 108.143V108.614C133.76 110.969 138 113.324 141.768 116.15C143.181 116.621 144.124 117.564 145.537 118.035C146.479 118.977 146.95 119.448 147.421 119.448C147.421 119.919 147.421 119.919 147.892 120.39C149.305 121.332 150.718 122.274 152.131 123.216C153.545 124.629 155.429 125.571 157.313 126.985L194.055 152.893C203.947 159.487 213.839 166.082 223.731 173.148C225.616 174.561 228.442 176.445 231.268 178.8C236.921 182.569 242.574 186.808 244.929 188.221C245.871 188.693 246.813 189.164 247.284 189.635C247.755 189.635 247.755 190.106 248.226 190.106C249.168 191.048 250.11 191.519 251.524 192.461C256.234 195.758 262.358 199.527 264.713 205.179C265.655 207.064 265.184 210.361 265.184 214.129C264.713 217.898 264.713 222.608 265.655 224.964V225.435C267.539 229.674 268.01 232.029 270.837 234.856L282.142 244.277L286.382 245.69C287.324 246.161 290.15 246.632 292.976 246.632C295.803 246.632 298.629 246.632 299.571 246.161H300.042C305.224 244.277 306.637 243.806 310.876 240.979C315.116 238.153 318.413 233.914 320.297 229.203C322.182 224.021 323.124 218.369 322.182 212.716C322.182 210.832 320.768 207.535 319.355 204.708C317.942 201.882 316.058 199.056 315.116 198.114C313.703 197.171 313.232 196.229 312.76 195.758C311.818 194.816 311.818 194.816 308.992 192.932C306.637 191.519 304.281 190.577 301.926 190.106C299.1 189.635 296.274 189.164 293.447 189.164ZM599.631 34.1873C599.16 34.6583 598.689 34.6583 597.747 35.1294C597.276 35.1294 596.805 35.1294 596.334 35.6004L595.863 36.0715L572.31 53.9715C553.468 68.1031 534.155 81.7636 514.842 95.8951C512.958 97.3083 510.603 99.1925 508.718 100.606L508.247 101.077L507.776 101.548L465.382 132.166C464.91 132.637 464.439 133.108 463.968 133.108C463.497 133.579 463.497 133.579 463.497 133.579L447.01 145.827C437.118 155.248 432.408 153.364 427.226 151.479C426.284 151.008 425.342 150.537 424.4 150.537C418.747 149.124 414.037 149.124 410.268 150.066C406.029 151.008 402.26 153.364 397.55 156.661C396.608 157.603 395.195 159.487 393.782 160.9C392.368 162.785 391.426 165.14 390.484 166.553C389.071 168.437 389.071 169.379 389.071 170.321C389.071 170.793 389.071 171.735 388.6 173.148C388.129 175.032 387.658 177.387 387.658 179.271C388.129 181.156 388.129 183.04 389.071 184.924C390.013 186.337 390.013 187.75 390.484 188.693C391.426 191.048 391.897 192.932 395.195 196.7C398.492 199.998 401.789 202.824 405.558 204.708C409.797 206.121 414.037 207.064 419.689 206.592C422.987 206.592 426.284 205.65 429.11 204.237C431.937 202.824 434.292 200.94 437.118 198.585L441.358 193.403C443.242 190.577 444.184 187.75 445.126 185.395C445.597 182.569 446.068 179.743 446.068 175.974C446.068 175.032 445.597 174.09 445.597 173.148C444.655 168.908 443.713 165.14 450.779 159.016C453.134 157.603 455.961 154.777 457.845 153.364C460.671 151.479 463.026 149.595 465.853 147.711C469.15 145.356 472.918 143 475.745 140.174H476.216C481.397 136.406 486.579 132.637 491.76 128.869C493.174 128.398 494.116 126.985 495.529 126.043C496.942 125.1 497.884 124.158 498.826 123.687C499.297 123.216 499.768 122.745 500.239 122.745C500.71 121.803 501.653 121.332 503.066 119.919L537.453 94.953C537.453 94.953 537.924 94.9531 537.924 94.482C538.395 94.0109 538.866 94.0109 538.866 93.5399C540.75 92.1267 542.634 90.7136 544.518 89.7715C546.403 88.3583 548.287 86.9452 550.171 85.532L562.418 76.582H562.889C563.832 76.1109 564.303 75.6399 564.774 75.1688C565.245 74.6978 565.716 74.2267 566.658 73.2846L570.426 70.9294C571.368 69.9873 571.368 69.9873 572.31 69.5162H572.781L585.029 59.6241C585.5 59.6241 585.971 59.153 586.442 58.682C586.913 58.682 586.913 58.682 587.384 58.682L598.218 50.2031C598.689 49.732 599.16 49.261 599.631 49.261C600.574 48.7899 601.045 47.8478 601.987 47.3767H602.458C604.813 45.4925 605.755 45.0215 606.697 42.1952C607.168 41.2531 607.168 39.8399 607.168 38.8978C606.697 37.9557 606.226 37.0136 605.755 36.5425C604.813 35.6004 604.342 35.1294 603.4 34.6583C601.987 34.1873 601.045 34.1873 599.631 34.1873ZM218.55 344.14C217.608 344.611 216.666 345.082 215.724 345.553C215.253 346.024 214.31 346.495 213.839 347.437C212.897 348.85 212.897 350.264 212.897 351.206C212.897 352.619 213.368 354.032 214.31 355.445C214.782 355.916 215.253 356.387 216.195 356.858C217.137 357.8 218.55 358.743 219.963 358.743C221.376 358.743 222.789 358.271 224.203 356.858C224.674 356.387 225.616 355.916 226.087 355.445C227.029 354.032 227.5 352.148 227.5 350.735C227.029 349.321 226.558 348.379 225.616 346.966C224.674 346.024 223.732 345.082 222.318 344.611C221.376 344.14 219.963 343.669 218.55 344.14ZM546.874 317.761C545.932 318.232 545.46 318.703 544.989 318.703C544.047 319.174 543.105 319.174 541.692 321.058C540.75 322.943 540.75 324.827 541.221 326.24C541.221 328.124 542.634 330.008 544.047 330.95C545.46 332.364 547.345 332.364 549.229 332.364C550.171 331.892 551.113 331.421 551.584 330.95C552.526 330.479 552.997 330.008 553.468 329.066C554.881 327.653 555.353 325.298 554.882 322.943C554.41 322.471 554.41 322 553.939 321.529C553.468 320.116 552.055 319.174 550.642 318.232C549.229 317.761 547.816 317.761 546.874 317.761ZM415.45 570.716H414.979C413.095 572.129 410.268 573.542 410.268 576.369C410.268 579.195 410.739 581.079 412.153 582.492C412.624 582.964 413.566 583.906 414.508 584.377C415.45 584.377 416.392 584.848 417.334 584.848C418.747 584.848 420.16 584.377 421.574 583.435L422.987 582.492C422.987 582.021 422.987 582.021 423.458 581.55C423.929 580.608 424.4 578.724 423.929 577.311C423.929 575.427 423.458 574.014 422.516 572.6C422.045 572.129 421.574 571.658 421.103 571.187C420.16 571.187 418.747 570.716 417.334 570.245C416.392 570.245 415.921 570.245 415.45 570.716ZM218.55 570.716C218.079 570.716 217.608 571.187 217.137 571.187C216.195 572.129 214.781 572.6 213.368 574.956C213.368 575.427 212.897 575.898 212.897 575.898V576.369C212.426 578.253 212.897 580.137 214.31 581.55C215.253 582.492 216.195 583.435 217.608 583.906C218.55 584.377 219.963 584.848 221.376 584.377C222.789 584.377 224.674 583.435 226.087 581.55C226.558 580.608 227.029 579.195 227.029 578.253C227.5 576.84 227.029 575.427 226.558 574.485C225.616 573.071 224.674 572.129 223.731 571.658C222.789 570.716 222.318 570.716 221.847 570.716C220.905 570.716 220.434 570.245 219.492 570.245C219.021 570.716 219.021 570.716 218.55 570.716ZM88.5394 318.232C87.5973 318.703 87.1262 318.703 86.6552 319.174C86.1841 319.174 85.7131 319.174 85.7131 319.174C83.3578 320.587 82.4157 322.471 82.4157 324.356C82.4157 325.769 82.4157 327.182 82.8867 328.124C83.3578 329.066 84.2999 330.479 85.242 330.95C86.6552 332.364 88.5394 332.835 90.8946 332.364C92.7788 331.892 94.192 330.479 95.1341 329.066C96.0762 328.124 96.5473 327.182 96.5473 325.769C96.5473 324.356 96.0762 322.942 95.6052 322C94.6631 320.587 92.7788 319.174 90.8946 318.232C89.9525 318.232 89.9525 318.232 89.4815 318.232C89.4815 318.232 89.0104 318.232 88.5394 318.232ZM88.5394 544.808C87.1262 545.279 85.7131 545.75 84.2999 546.693C83.3578 547.635 82.8867 548.577 82.8867 549.519C82.4157 552.345 82.8867 554.229 83.8288 556.114C84.2999 556.585 84.7709 557.527 85.7131 557.998C86.6552 557.998 87.1262 558.469 88.0683 558.469C89.9525 558.94 91.8368 558.469 93.2499 557.527C94.192 556.585 95.1341 555.643 95.6052 553.758C96.0762 552.345 96.5473 550.932 96.0762 549.519C96.0762 549.519 96.0762 549.048 95.6052 548.577C95.6052 548.106 95.1341 547.635 94.6631 547.164C94.192 546.221 93.2499 545.279 91.8367 544.808C90.4236 544.337 89.0104 544.337 88.5394 544.808ZM414.979 345.082C414.979 345.082 409.326 346.024 410.268 353.09C410.268 353.561 410.739 354.032 410.739 354.503C411.21 355.445 412.153 356.858 413.566 357.329C414.979 358.271 416.392 358.271 418.276 358.271C418.747 358.271 420.16 357.8 421.103 357.329C422.045 356.858 422.516 355.916 422.987 354.974C423.458 353.09 423.929 351.206 423.929 349.321C423.458 348.85 423.458 348.379 422.987 347.908C422.516 346.966 421.574 346.024 420.632 345.082C419.218 344.611 418.276 344.14 417.334 344.14C416.863 344.611 416.392 344.611 416.392 344.611L415.921 345.082H414.979ZM544.989 545.279C542.634 546.221 541.692 547.635 541.221 549.519C540.75 550.461 540.75 551.874 541.221 552.816C541.221 554.229 542.163 555.642 543.105 556.585C544.047 557.527 545.932 558.469 547.345 558.469C548.758 558.469 549.7 558.469 550.642 557.998C552.055 557.056 552.997 556.114 553.939 555.171C554.41 554.229 554.882 553.287 554.882 551.874C554.882 550.932 554.882 549.99 554.41 549.519C553.939 548.577 553.468 547.635 552.526 546.693C552.526 546.221 551.584 545.75 551.113 545.75C550.642 545.279 549.229 544.808 547.816 544.808C546.403 544.808 545.46 544.808 544.989 545.279Z" fill="url(#paint0_linear_202_364)"/>
  <defs>
    <linearGradient id="paint0_linear_202_364" x1="0.923584" y1="322" x2="633.076" y2="322" gradientUnits="userSpaceOnUse">
      <stop stop-color="#FF5C77"/>
      <stop offset="1" stop-color="#0097A7"/>
    </linearGradient>
  </defs>
</svg>