<svg xmlns="http://www.w3.org/2000/svg" width="569" height="569" viewBox="0 0 569 569" fill="none">
  <path d="M37.6951 108.054C37.6951 118.114 39.9665 124.928 43.2114 130.444C46.4563 136.609 52.6215 142.775 59.4358 149.589C69.4949 159.648 70.7928 160.946 72.4153 162.244C103.566 193.395 177.225 266.404 181.768 273.219L190.204 285.874L120.439 356.612C115.572 361.479 120.439 356.612 115.897 361.155C114.274 362.777 112.327 364.4 110.38 366.671C109.407 367.645 108.433 368.943 107.46 370.241C105.838 372.187 104.54 374.134 101.295 377.055C99.0233 379.651 95.1294 383.544 89.9376 388.412C74.0377 403.663 48.0787 428.973 45.4828 433.84C40.291 442.277 37.3706 451.362 37.6951 460.124C37.6951 466.613 39.9665 472.454 44.8338 477.646C49.7012 482.513 54.244 487.056 58.7868 491.599C64.3031 497.115 64.6276 497.44 67.2235 500.036C68.8459 501.334 72.0908 504.903 75.3357 508.148C86.3683 519.829 96.7519 530.862 109.407 530.862C118.493 530.862 125.307 528.266 131.148 525.021C137.637 520.803 143.803 514.962 149.643 509.121L189.88 468.885C195.072 463.693 190.529 468.236 198.317 460.448C218.435 440.654 265.81 393.928 268.081 390.683L278.465 375.108L294.04 385.491C301.828 390.683 328.436 417.616 357.315 447.144C391.387 481.864 428.703 520.154 435.193 523.723C446.55 529.888 454.986 532.16 462.125 530.862C469.588 529.24 477.376 524.048 485.813 515.611C487.76 513.34 490.355 511.068 493.6 508.148C505.606 496.466 524.751 477.646 527.347 471.805C530.916 463.693 531.241 455.905 529.294 448.767C527.023 439.681 521.506 431.244 514.368 424.105L507.229 416.967C479.972 390.034 390.738 301.774 385.546 293.986L375.162 278.41L390.738 268.027C393.658 265.755 411.829 247.909 433.57 226.168C468.939 190.799 512.745 145.371 519.235 138.232C521.831 135.311 524.102 131.742 526.049 128.173C527.672 124.279 529.294 120.385 529.943 116.167C530.916 110.001 530.592 105.134 529.294 100.591C527.672 96.0484 524.751 91.83 520.533 87.6117C513.394 80.4729 506.58 73.9832 499.766 66.8445C492.627 59.7058 514.043 81.1219 489.382 56.7854C485.488 52.8915 488.733 55.8119 484.839 51.918C474.456 41.5344 470.886 37.6406 453.364 37.6406C439.411 37.6406 425.782 51.2691 416.372 60.6792V61.0037C406.313 70.7383 405.015 72.0363 403.393 73.6587C372.566 104.81 300.855 177.17 294.04 181.713L283.657 188.852L273.273 181.713C266.459 177.17 194.747 104.81 163.921 73.6587C162.298 72.0363 161 70.7383 150.941 61.0037C129.525 39.5875 158.08 67.8179 148.345 58.0833C135.366 45.1038 128.227 37.6406 106.811 37.6406C94.8049 37.6406 83.4479 49.9711 74.3622 60.0302C71.4418 62.9506 68.8459 65.5465 67.2235 67.1689C66.25 68.4669 63.3296 71.0628 60.4092 73.6587C50.3501 83.3934 37.6951 95.0749 37.6951 108.054ZM10.7626 149.589C3.94839 138.556 0.0545348 125.577 0.0545348 108.054C0.0545348 78.8505 19.1993 61.0037 34.7747 46.4018C36.3971 44.7793 37.6951 43.4814 40.6155 40.561C43.2114 37.9651 44.8338 36.0181 46.7808 34.0712C61.0582 18.8203 78.5806 0 106.811 0C143.154 0 154.835 11.0326 174.304 30.8263C170.086 26.2835 162.298 18.8203 177.874 34.0712C184.039 40.2365 179.496 36.0181 190.529 47.3752C214.216 71.0628 262.241 119.411 283.657 140.503C305.073 119.411 353.097 71.0628 376.785 47.3752C387.817 36.0181 383.275 40.2365 389.44 34.0712H389.764C403.717 20.1182 423.836 0 453.364 0C486.462 0 492.951 6.48975 511.447 25.6345C512.745 26.608 508.851 22.7141 515.99 29.8529C533.512 47.3752 512.421 26.2835 526.374 40.561C533.188 47.3752 540.002 53.865 547.141 61.0037C555.578 69.1159 561.418 78.2016 564.988 88.5852C568.557 98.9688 569.206 110.326 566.935 122.656C565.637 130.444 563.041 137.907 559.796 144.397C556.551 151.536 552.333 157.701 547.141 163.542C540.976 170.356 496.196 216.433 460.178 252.776C447.848 265.106 436.491 276.464 427.729 284.9C452.715 310.21 512.421 369.267 533.512 390.359L540.651 397.173C552.657 409.179 561.743 423.456 565.961 439.681C569.531 454.607 568.882 470.507 562.067 486.732C556.551 499.387 533.837 521.452 519.559 535.08C516.639 538.001 514.368 540.272 512.421 542.219C498.468 556.172 484.839 564.933 468.939 567.854C453.039 570.774 436.491 567.205 417.021 556.821C405.664 550.656 366.401 510.095 330.383 473.428C312.536 455.256 295.663 438.058 284.63 427.35C267.432 445.197 239.202 473.103 224.925 487.381C224.276 487.705 224.276 488.03 216.812 495.493L176.251 535.729C169.113 542.868 161.325 550.656 150.617 557.146C139.26 563.96 125.956 568.503 109.407 568.503C80.852 568.503 64.9521 551.954 48.0787 534.107C46.4563 532.484 44.5094 530.537 40.6155 526.644L32.5033 518.531C27.636 513.664 22.7687 508.797 17.9014 503.605C5.89531 491.599 0.379023 476.672 0.0545348 461.097C-0.594441 445.197 4.59737 428.648 13.034 414.371C18.5503 405.61 46.4563 378.028 63.6541 361.479C68.5214 356.612 72.7398 352.718 74.6867 350.771C75.6602 349.798 76.6336 348.5 77.6071 346.877V347.202C79.2296 344.93 80.852 342.659 83.7724 340.063C86.0438 337.792 87.6662 336.169 89.6132 334.222C91.2356 332.6 85.7193 337.792 93.8315 330.004L140.233 283.278C118.817 261.213 69.4949 212.539 45.8073 188.852C34.4502 177.819 39.3175 182.687 32.8278 176.197C24.3911 167.76 16.9279 160.297 10.7626 149.589Z" fill="url(#paint0_linear_202_366)"/>
  <defs>
    <linearGradient id="paint0_linear_202_366" x1="0.0545349" y1="284.251" x2="568.233" y2="284.251" gradientUnits="userSpaceOnUse">
      <stop stop-color="#FF5C77"/>
      <stop offset="1" stop-color="#0097A7"/>
    </linearGradient>
  </defs>
</svg>