<svg xmlns="http://www.w3.org/2000/svg" width="608" height="373" viewBox="0 0 608 373" fill="none">
  <path fill-rule="evenodd" clip-rule="evenodd" d="M0 93.5759V61.2621H0.69492C1.04238 57.7874 1.04238 56.7451 1.38984 55.3552C1.7373 54.6603 2.08476 53.9654 2.08476 52.2281C2.43222 51.5331 2.43223 50.8382 2.43223 50.1433C2.43223 49.7958 2.43223 49.4484 2.43223 48.7535V48.406L4.16952 41.4568V41.1093C4.51698 40.4144 4.51699 40.067 4.51699 39.372C4.51699 39.0246 4.86446 38.6771 4.86446 37.6347C6.94922 32.4228 8.68651 26.8635 10.7713 21.999C10.7713 21.6516 10.7713 21.3041 10.7713 21.3041C11.1187 20.9566 11.1187 20.6092 11.4662 20.2617L13.551 16.0922C14.2459 14.3549 15.2883 12.965 16.3307 11.5752L17.0256 10.5328L20.8476 5.66836V5.32089C21.89 3.93105 22.5849 3.5836 23.2799 2.88868C23.9748 2.19376 24.6697 1.8463 25.7121 1.49884L26.7545 1.15137C29.1867 -0.23847 31.6189 -0.238453 33.7037 0.456468C35.7884 1.15139 37.8732 2.54122 39.263 4.27852C40.6529 5.66836 41.6953 7.75312 42.0427 9.83788C42.7376 12.2701 42.3902 15.0498 41.0003 17.1346C40.6529 18.1769 39.958 18.8719 39.263 19.5668C38.2207 20.9566 36.8308 22.3465 35.0935 25.8211L32.6613 29.6432V29.9906C31.9664 31.7279 31.2715 33.1177 30.924 34.5076C29.8816 36.9398 28.8392 39.372 28.1443 41.8042L27.1019 44.9314V45.2789C27.1019 45.6263 27.1019 45.9738 26.7545 46.3212C26.7545 47.0162 26.7545 47.7111 26.407 48.7535C26.0595 49.4484 26.0595 49.7958 25.7121 50.1433C25.7121 50.1433 25.7121 50.1433 25.7121 51.1857C25.7121 53.2705 25.3646 54.6603 25.3646 56.0501C25.0172 56.745 25.0172 57.7874 24.6697 58.8298C24.3222 63.6943 23.6273 69.2536 23.6273 74.4656C23.2799 80.0249 23.6273 85.2368 24.3222 90.1013C24.3222 91.1437 24.3222 92.186 24.6697 93.2284C24.6697 94.9657 24.6697 96.3556 25.0172 97.3979C25.0172 98.4403 25.3646 99.4827 25.7121 100.525C26.0595 101.915 26.0595 102.957 26.407 104L28.4918 110.254C29.1867 111.644 29.5341 112.686 29.8816 113.729C30.2291 114.771 30.2291 115.466 30.924 116.508L33.3562 122.415L34.0511 123.805C33.3562 121.373 33.0087 118.94 32.6613 116.161C31.6189 110.254 30.924 104 30.5765 100.525C30.5765 96.3556 30.5765 91.1437 30.5765 85.9317C30.924 81.4148 31.2714 76.5503 31.9664 73.0757C32.3138 72.3808 32.3138 71.6859 32.6613 71.3384C32.6613 70.6435 33.0088 70.296 33.0088 69.6011C33.3562 67.5163 33.3562 66.8214 33.7037 66.1265C33.7037 66.1265 34.0511 65.779 34.0511 65.4316L35.441 61.957C35.441 61.957 35.441 61.957 35.441 61.6095C35.441 61.2621 35.441 60.9146 35.441 60.2196C35.7884 58.8298 36.1359 57.7874 36.8308 56.7451C37.1783 56.0501 37.5257 55.7027 37.5257 55.0078C37.5257 54.6603 37.5257 54.6603 37.5257 54.6603C37.8732 53.9654 37.8732 53.6179 38.2206 52.923L39.6105 49.7959C39.6105 49.4484 39.958 49.1009 39.958 48.7535C39.958 48.7535 40.3054 48.406 40.3054 48.0585L42.7376 43.1941L43.0851 42.8466L45.5173 39.372C45.8648 38.6771 46.2122 38.3296 46.2122 37.6347C48.9919 33.1177 51.4242 28.9482 58.3734 28.6007C60.1107 28.6007 61.848 28.9482 63.2378 29.6432C64.9751 30.3381 66.365 31.3805 67.4073 32.4228C68.4497 33.4652 69.4921 35.2025 69.8396 37.2873C70.187 39.0246 70.5345 41.1093 70.187 42.4992L69.8396 42.8466L59.7632 61.2621C59.4158 61.957 59.0683 62.6519 58.7208 63.3468V64.0417L55.2462 78.9825C54.8988 80.0249 54.8988 80.7198 54.5513 81.4148C54.5513 82.1097 54.2038 82.4571 54.2038 82.4571C54.2038 83.847 53.8564 86.6267 53.8564 89.7538C53.8564 93.9233 54.2038 98.4403 54.2038 100.525C54.5513 103.652 54.8988 107.127 55.2462 110.254C55.5937 113.729 56.2886 116.856 57.331 119.983L61.1531 134.924V135.271C61.5005 137.008 62.1954 138.746 62.8903 140.483C63.5853 141.525 63.9327 142.568 64.2802 143.263C64.6276 144.305 64.6276 145 64.9751 145.695C65.3226 146.39 65.3226 147.432 66.0175 148.127C66.7124 149.17 66.7124 150.212 67.0599 150.907C67.7548 150.907 69.4921 150.907 70.8819 150.907C71.9243 150.907 72.9667 150.907 73.3141 151.254C74.3565 151.254 74.704 151.254 75.0515 151.254C78.5261 151.602 83.0431 152.297 85.4753 151.602C86.8651 150.907 88.255 150.559 89.2973 150.212H89.6448C89.9923 150.212 89.9923 150.212 90.3397 150.212C91.0347 149.864 91.7296 149.517 93.1194 149.17L96.9415 148.475C97.9839 148.127 98.3313 148.127 99.0263 148.127C99.0263 148.127 99.3737 148.127 100.069 147.78V147.432L113.272 144.305C113.967 144.305 113.62 144.653 113.62 144.305C113.967 144.305 114.315 143.958 115.009 143.958C116.052 143.61 117.094 143.61 117.789 143.263C118.484 143.263 118.832 143.263 119.526 143.263C119.874 143.263 120.569 142.915 120.916 142.915C121.611 142.568 122.306 142.568 123.001 142.22C123.696 142.22 124.043 142.22 124.738 141.873C125.433 141.873 126.128 141.873 126.823 141.525C128.213 141.178 129.255 141.178 130.298 141.178C130.645 141.178 131.34 141.178 131.688 140.831C132.035 140.831 132.382 140.831 132.73 140.831C133.077 140.483 133.772 140.136 135.162 140.136C136.205 139.788 136.899 139.788 137.594 139.788C138.289 139.788 138.984 139.788 139.679 139.788C140.027 139.788 140.374 139.788 140.374 139.441C141.069 139.093 141.764 139.093 142.806 138.746C143.849 138.746 144.544 138.746 145.238 138.746C145.933 138.398 146.281 138.398 146.976 138.398C149.755 137.703 155.662 137.008 159.484 136.314C161.222 135.966 162.959 135.966 162.959 135.966C165.391 134.924 170.256 134.576 174.773 134.229C178.247 134.229 181.722 133.881 183.807 133.534C185.891 132.839 187.629 132.839 189.366 132.839C190.408 132.839 191.798 132.839 192.841 132.491C193.188 132.491 193.535 132.491 193.535 132.491C194.23 132.144 194.925 131.797 196.663 131.797L245.307 129.364H245.655C247.739 129.364 249.824 129.364 252.256 129.364C256.078 129.364 260.248 129.364 264.417 129.364C267.545 129.364 270.324 129.712 273.451 129.712C276.231 130.059 279.011 130.059 281.79 130.059C286.655 130.059 291.172 130.407 295.341 130.754C297.079 130.754 298.469 130.754 299.858 130.754L300.553 131.102C306.46 131.102 312.367 131.449 317.579 132.491C319.316 132.491 320.706 132.491 322.443 132.839C323.833 132.839 324.876 132.839 326.265 132.839C329.045 133.186 331.13 133.534 332.172 133.534C333.215 133.881 333.215 133.881 333.215 133.881C333.562 133.881 333.562 133.534 334.257 132.491C335.299 131.797 335.994 130.407 337.384 129.017L344.333 121.373C345.723 119.983 346.766 118.593 347.808 117.203C349.198 115.466 350.935 113.381 352.672 111.644L355.105 108.517L355.452 108.169L360.317 102.957L360.664 102.61C361.359 101.915 361.706 101.567 362.401 100.525L363.096 100.178C363.444 99.4827 363.791 99.1352 364.139 98.7878H364.486L365.528 97.7454V97.3979C367.613 94.9657 369.003 93.2284 371.435 91.4911C371.783 91.1437 372.13 90.7962 372.478 90.4487C373.173 89.7538 373.52 89.4063 374.91 88.364C375.257 88.364 375.605 88.0165 376.3 87.6691C378.384 86.2792 380.817 84.8894 383.596 84.5419C385.334 84.5419 385.334 84.5419 385.681 84.1944C386.029 84.1944 386.376 83.847 387.418 83.847C388.808 83.4995 390.893 83.4995 392.63 83.4995C392.978 83.4995 393.325 83.4995 393.673 83.4995C395.758 83.4995 398.537 84.1944 400.969 84.8893C403.749 85.5843 406.181 86.6267 407.919 88.0165C409.308 89.0589 410.351 89.7538 411.393 90.4487C412.088 91.1437 413.131 92.186 414.173 93.2284C414.868 93.9233 415.215 94.2708 415.563 94.9657C416.258 95.6606 416.605 96.3556 416.953 97.0505L419.732 101.915C421.122 104.695 422.164 107.822 423.207 110.949L423.902 113.034C424.249 113.729 424.249 114.076 424.597 114.424C424.944 115.118 425.292 115.813 425.292 116.856C425.639 117.551 425.639 117.551 425.639 117.898C425.987 118.246 426.334 118.593 426.681 119.983L427.029 120.33L427.376 120.678L438.843 154.034C439.19 154.729 439.538 154.729 439.885 155.076C440.232 155.076 440.58 155.076 440.927 155.076H441.275L446.487 157.161H446.834C447.877 157.856 450.309 158.204 452.046 158.898C454.478 159.246 456.563 159.941 457.953 160.636C458.648 160.636 458.995 160.983 459.343 160.983C460.038 160.983 460.385 161.331 461.428 161.678L492.352 172.797C492.699 173.144 493.046 173.144 493.394 173.144C494.089 173.492 494.436 173.839 495.479 173.839H495.826L498.258 174.882C500.691 175.924 503.123 176.966 505.555 178.009C507.987 179.399 510.419 180.441 512.504 181.136C515.979 182.526 519.106 183.916 522.581 185.305C523.275 185.653 523.97 186 524.665 186.348L526.055 187.043L532.309 190.17C532.657 190.17 533.004 190.17 533.004 190.517C534.047 190.517 534.742 190.517 536.131 191.56L538.911 192.95H539.259C539.606 192.95 539.954 193.297 540.648 193.644L547.945 197.467C548.293 197.467 548.64 197.814 548.64 197.814C548.988 197.814 548.988 197.814 550.03 198.509C550.377 198.856 551.072 199.204 551.767 199.551C552.115 199.551 552.115 199.899 552.462 199.899C553.157 199.899 553.505 199.899 554.547 200.594L559.759 203.373H560.106C560.801 203.721 561.496 204.068 562.191 204.416C563.928 205.111 565.666 206.153 567.403 207.195L567.75 207.543C567.75 207.543 568.098 207.543 568.098 207.89L570.53 209.28C571.573 209.628 572.615 210.323 573.657 211.018C575.394 212.06 577.132 213.102 578.869 213.797L579.217 214.145C579.912 214.492 579.911 214.492 580.606 214.84L581.301 215.187H581.649C581.649 215.534 581.996 215.535 582.344 215.535L583.734 216.577H584.081C584.776 216.924 584.776 216.924 585.471 217.619L585.818 217.967C586.166 217.967 586.513 218.314 586.861 218.662C588.945 220.051 591.378 221.441 593.81 222.831C596.242 224.221 598.327 225.611 600.064 226.653C603.191 228.738 605.276 230.475 606.666 233.255C607.708 235.687 608.056 238.814 607.013 242.984L606.666 243.331L604.929 245.764C604.581 246.458 604.234 246.806 603.886 247.501C603.886 247.501 603.886 247.501 603.539 247.501C603.539 247.848 603.539 247.848 603.539 247.848L602.844 249.238H601.107C600.064 249.238 600.064 249.238 600.064 249.586C599.369 249.586 599.022 249.933 597.979 250.281C595.895 250.628 591.378 250.628 587.556 250.628C586.166 250.628 585.123 250.628 584.081 250.628C582.691 250.628 581.649 250.628 580.606 250.975C579.217 250.975 578.174 251.323 576.09 251.323L550.725 252.365C547.945 252.365 544.818 252.713 541.691 252.713H539.954C542.038 254.45 544.123 256.187 546.555 257.925C547.25 258.62 547.945 258.967 548.64 259.662H548.988L550.725 261.747L551.42 262.442C551.767 263.137 552.115 263.484 552.462 264.179L552.81 264.526C553.157 265.221 553.505 265.569 553.505 266.611C553.852 266.959 553.852 267.654 553.852 268.348V269.391C553.852 270.781 553.852 272.171 553.505 273.908C552.81 275.298 552.115 277.035 550.377 278.425H550.03C547.945 280.51 545.165 282.247 542.386 283.289C541.691 283.637 541.343 283.984 540.648 284.332C540.301 284.679 539.606 284.679 539.259 285.027C538.911 285.374 538.564 285.374 537.869 285.721C537.521 286.069 536.826 286.416 536.479 286.764C534.047 287.806 531.962 289.196 529.53 290.238C529.182 290.238 528.487 290.586 528.14 290.933C527.445 290.933 527.098 291.281 526.75 291.281L504.165 301.357C503.47 301.357 502.775 301.705 502.428 301.705C502.08 302.052 501.733 302.052 501.385 302.4C500.343 302.747 499.996 303.095 498.953 303.095C498.953 303.442 498.606 303.442 498.258 303.442C496.868 304.137 495.826 304.484 495.131 304.832C494.436 304.832 494.089 304.484 493.741 304.484L501.038 323.942C501.733 326.027 502.428 327.764 502.775 329.501C503.47 331.239 503.818 333.324 504.86 335.061V335.408C505.555 336.798 505.902 337.841 506.25 338.883C506.597 339.925 506.945 340.968 507.292 341.663C507.64 342.358 507.64 342.705 507.987 343.4C508.335 344.095 508.682 344.79 509.03 345.485C510.767 348.959 516.326 348.959 520.843 348.959C524.318 348.959 526.75 348.959 529.877 348.959C543.428 348.612 566.361 348.612 570.53 348.959C571.92 349.307 573.31 349.654 574.352 350.697C575.395 351.392 576.437 352.781 577.132 353.476C577.479 353.824 577.827 354.171 577.827 354.519C579.217 356.951 579.912 359.731 579.564 362.51C579.217 365.29 577.827 368.07 575.395 369.807C575.395 370.154 575.047 370.154 574.7 370.502H574.352L571.573 371.544C568.098 372.934 561.496 372.934 555.937 372.587C554.547 372.587 553.157 372.587 551.767 372.587C548.293 372.587 545.165 372.587 541.691 372.587C530.92 372.934 517.021 372.934 511.809 372.587C510.419 372.587 509.725 372.239 509.03 371.892C508.682 371.544 508.335 371.544 507.64 371.544C505.555 370.849 503.818 370.154 501.733 369.459C499.996 368.417 498.258 367.375 496.521 366.332V365.985L491.309 361.12H490.962C489.224 359.036 488.182 356.603 487.14 354.519V354.171C486.445 352.781 486.097 352.086 485.75 350.697L482.97 344.095C482.275 342.01 481.58 340.273 480.885 338.535C480.538 337.493 480.538 336.798 480.19 335.756L474.284 319.425C474.284 319.078 474.284 318.383 473.936 318.035V317.688L471.851 312.476H471.504C471.156 312.476 470.461 312.823 470.114 313.171H469.767C465.944 314.213 462.122 315.256 457.953 316.298L458.3 315.951H457.953C457.605 316.298 457.258 316.646 456.563 316.646C455.173 317.34 454.478 317.34 453.783 317.34C453.436 317.34 453.088 317.34 452.394 317.688C451.004 318.383 448.919 318.73 446.834 319.078C445.444 319.425 443.707 319.773 443.012 320.12C441.97 320.12 441.275 320.468 440.58 320.815C438.843 321.162 437.8 321.51 437.105 321.51C434.673 322.205 433.631 322.552 429.114 323.247C428.071 323.595 426.681 323.942 425.292 324.29C423.554 324.637 421.47 325.332 419.732 325.332C417.995 325.679 416.605 325.679 415.215 326.027C413.478 326.374 411.741 326.722 409.656 326.722L400.274 328.112C399.58 328.112 399.232 328.459 398.537 328.459C397.495 328.807 396.8 329.154 395.758 329.154L359.622 332.629C357.537 332.629 357.537 332.629 356.494 332.976C356.494 332.976 356.147 332.976 355.452 333.324H355.105L338.774 334.366C335.647 334.366 332.52 334.713 329.393 334.713C325.223 335.061 321.401 335.061 317.231 335.061C305.765 335.061 294.647 335.061 283.18 335.061C280.748 335.061 279.706 335.061 279.358 335.408C279.358 335.408 279.011 335.756 278.316 336.103C277.968 336.451 277.621 336.798 276.579 337.146L276.231 337.493C272.409 340.273 269.977 342.01 265.46 343.747C265.112 344.095 264.765 344.095 264.765 344.095C264.417 344.095 264.417 344.442 263.723 344.442C262.68 345.137 260.248 346.18 257.468 346.875C255.383 347.222 252.951 347.917 251.561 347.917H248.782C246.002 347.917 243.222 347.917 240.443 347.917C237.316 347.917 235.926 347.569 234.188 347.222C233.146 346.875 232.104 346.875 230.714 346.527C228.976 346.527 227.934 346.18 227.239 346.18C226.544 345.832 226.197 345.832 225.502 345.485C223.765 345.137 223.07 345.137 222.375 344.79C222.027 344.442 221.68 344.442 220.985 344.095C218.9 343.4 217.163 342.705 215.425 341.663C214.383 340.968 213.341 340.62 212.298 339.925C211.951 339.925 211.603 339.925 211.256 339.578L196.315 331.934C195.62 331.586 194.925 331.239 194.578 330.891C193.883 330.544 193.188 330.196 193.188 330.196C192.493 330.196 192.146 330.196 191.451 330.196C190.408 329.849 189.366 329.849 188.324 329.501C186.934 329.154 185.544 329.154 184.502 328.807C183.459 328.807 182.417 328.807 181.374 328.459C179.985 328.112 178.247 328.112 176.51 328.112C175.815 327.764 175.12 327.764 174.425 327.764C174.425 329.849 174.425 332.629 174.425 335.756C174.773 344.79 174.773 355.909 172.688 359.383L169.561 364.248H169.213C166.434 367.722 165.044 368.417 162.264 369.807C161.917 370.154 161.569 370.154 160.874 370.502C157.052 372.587 152.883 372.587 149.061 372.587H148.366C146.976 372.587 146.281 372.587 145.238 372.587C139.679 372.587 131.34 372.934 127.171 369.807C125.781 368.765 125.086 367.722 124.391 366.332C124.043 365.29 123.696 364.248 123.001 362.858C122.306 360.773 122.654 358.688 123.348 356.603C124.391 354.519 125.781 352.434 127.518 351.044C127.518 351.044 127.518 351.044 127.865 350.697C128.908 349.654 129.255 349.307 131.688 348.959C135.51 348.612 139.332 348.959 143.154 348.959C145.586 348.959 148.018 348.959 150.45 348.959C150.798 344.79 150.798 338.883 150.45 333.671C150.45 330.544 150.45 327.764 150.45 325.332V324.637C150.45 324.637 151.493 324.637 150.798 324.637L150.103 324.29C145.933 323.942 145.238 323.595 144.196 323.247C144.196 323.247 143.849 323.247 142.806 322.9C140.027 322.9 137.594 322.552 136.205 322.205C134.467 321.857 133.425 321.857 133.425 321.857C133.425 321.857 133.077 322.552 132.382 323.942C131.688 324.985 130.645 326.722 129.255 329.154L128.908 329.849C128.908 329.849 128.56 330.196 128.56 330.544L126.128 334.366C124.738 336.798 124.391 337.146 124.043 338.188C123.696 338.535 123.348 339.23 122.654 340.273L122.306 340.62L120.916 343.053H120.569C119.179 344.79 117.789 347.569 116.747 349.654C116.399 350.697 115.704 351.739 115.357 352.086V352.434C115.357 352.781 115.357 352.781 115.357 352.781C115.009 353.129 115.009 352.781 115.009 352.781C115.009 353.129 115.009 353.476 114.662 353.476C114.662 353.824 114.662 353.824 114.662 354.171L114.314 354.519L108.755 362.51C107.018 365.29 105.281 367.375 102.848 369.112C100.416 370.502 97.2889 371.544 93.1194 372.239C89.2974 372.934 74.3565 372.587 64.2802 372.587C61.848 372.587 59.4158 372.587 56.9835 372.587C55.2462 372.587 53.5089 372.587 51.7716 372.587C44.1275 372.934 35.0935 373.282 30.924 368.07C30.2291 367.027 29.5341 365.29 28.8392 363.553C28.4918 361.815 28.1443 360.078 28.4918 358.688C29.5341 355.214 31.2715 352.781 33.7037 351.044C36.1359 349.654 39.263 348.959 42.3902 348.959C57.6784 348.959 73.3142 348.959 88.6024 348.959C89.6448 348.959 89.9923 349.307 89.9923 349.307C90.3397 348.959 89.9923 348.959 90.3397 348.612L90.6872 347.917C92.077 345.485 94.1618 342.01 95.8991 338.883C97.9839 335.408 100.069 331.934 101.111 330.544C101.458 329.849 102.153 329.154 102.501 328.112C103.196 327.417 103.543 326.374 104.238 325.332C104.238 324.985 104.586 324.29 104.933 323.595C105.628 322.205 106.323 320.815 107.018 319.773L107.713 318.73C108.06 318.383 108.408 317.688 108.755 317.34C108.06 316.993 107.018 316.993 105.975 316.646C104.586 315.951 104.586 316.298 104.238 316.646C102.153 318.383 100.069 320.12 98.3313 322.205C96.594 323.595 95.5516 324.29 94.5093 324.985C93.8143 325.332 93.1194 326.027 92.077 326.722C91.0347 327.417 89.6448 328.112 88.255 328.807C87.56 329.154 86.8651 329.849 85.8227 330.196V330.544L83.738 331.239L83.3905 331.586C83.0431 331.586 83.0431 331.586 83.0431 331.586L82.6956 331.934L77.4837 333.671H77.1362C75.7464 334.019 74.704 334.019 73.6616 334.366C70.5345 335.061 67.4073 335.408 63.2378 334.713C62.1954 334.366 61.848 334.366 61.1531 334.019H60.8056C60.1107 333.671 59.7632 333.671 59.7632 333.671C58.7208 333.671 58.3734 333.671 56.9835 332.976L48.297 329.154H47.9496L47.2546 328.807C45.8648 327.764 43.78 326.722 42.7376 325.679L41.0003 324.29C40.3054 323.942 39.958 323.595 39.6105 323.247L38.9156 322.552C35.0935 319.773 31.6189 315.951 28.4918 312.128L28.1443 311.781C27.7968 311.781 27.7968 311.434 27.4494 311.086C27.1019 310.739 26.7545 310.739 26.407 310.391V310.044L23.2799 305.527C20.5002 301.705 18.4154 298.23 16.3307 294.061L15.6357 292.671C15.2883 292.323 15.2883 291.976 14.9408 291.976C14.9408 291.628 14.9408 291.628 14.5933 291.281C14.5933 290.933 14.5933 290.933 14.5933 290.586L14.2459 289.891L12.856 287.111C12.5086 286.764 12.5086 286.416 12.1611 286.416C12.1611 286.069 12.1611 286.069 12.1611 286.069V285.721C11.4662 284.332 11.1187 283.637 10.7713 282.942C9.72889 280.51 8.68651 278.425 7.99159 275.645L6.94922 272.518C6.94922 272.171 6.94921 272.171 6.60175 271.823C6.60175 271.476 6.25429 270.781 5.90683 269.738C5.90683 266.611 2.08477 250.975 1.04239 246.806V246.458C1.04239 246.111 1.04239 245.764 1.04239 245.069C1.04239 244.374 3.12714 243.679 2.08476 243.679L0 242.984V212.755H1.04239C1.04239 212.06 1.04239 211.365 1.04239 210.67C1.04239 209.975 1.38984 209.628 1.38984 209.28C1.38984 208.585 1.38984 208.238 1.38984 207.89C2.08476 205.806 2.77969 205.458 3.12715 205.111C3.82207 204.763 2.43223 205.806 2.43223 204.068V203.721L4.16952 197.467L4.51699 197.119C4.51699 196.424 4.86446 196.077 4.86446 195.382C5.21192 194.687 5.21192 193.992 5.55938 192.95C5.90684 192.602 6.2543 191.907 6.2543 191.56C6.60176 190.865 6.94921 190.17 7.29667 189.475C7.64413 187.043 8.33906 186.348 9.03398 184.958C9.38144 184.611 9.72889 184.263 10.0764 183.568C13.551 178.704 17.0256 173.839 20.5002 169.322V168.975C21.1951 168.627 21.5425 168.28 21.5425 168.28L22.2375 167.932L29.8816 161.678C30.924 160.983 32.6613 163.415 31.9664 162.373C31.6189 162.026 31.2715 161.678 30.924 161.331V160.983L30.2291 160.636L29.8816 160.288H30.2291C29.8816 160.288 29.8816 160.288 29.8816 160.288C29.1867 159.593 28.8392 159.246 28.4918 158.551C28.4918 158.551 28.4918 158.204 28.1443 158.204L27.4494 157.509L26.0595 155.771C26.0595 155.771 26.0595 155.424 25.7121 155.424L25.3646 154.729C23.9748 152.992 21.1951 148.822 18.7629 145.347C17.373 142.568 15.9832 140.136 15.2883 138.746L13.8984 135.271H13.551C13.551 135.271 13.8984 135.271 13.551 134.924L12.5086 132.839C12.1611 132.491 11.8137 132.144 11.8137 131.449C11.4662 131.102 11.4662 130.754 11.4662 130.754L11.1187 130.407L9.38143 125.89V125.542C9.03397 125.195 8.68652 124.847 8.33906 123.805C7.9916 122.763 6.94921 119.635 5.90683 116.856C5.55937 114.423 4.86446 112.339 4.86446 111.296V110.949C4.517 110.601 4.51698 110.601 4.16952 110.254C3.4746 108.864 3.4746 107.822 3.4746 106.432C3.4746 105.737 3.12715 105.042 3.12715 104.695C2.77969 103.652 2.08477 101.915 1.73731 100.525C1.38985 99.1353 1.38985 97.3979 1.04239 96.0081L0 95.6606V93.5759ZM37.8732 226.653V225.263H37.5257C37.5257 220.399 37.8732 219.704 38.2206 218.662C38.5681 218.314 38.5681 218.314 38.5681 217.272C38.9156 214.84 39.6105 212.06 40.6529 209.975C41.6953 207.543 43.0851 205.111 44.8224 203.026C46.2122 201.636 46.2122 201.289 46.2122 201.289C46.5597 200.594 46.5597 200.246 47.2546 199.551L47.6021 199.204L55.9411 192.95H56.2886L56.6361 192.602C58.7208 191.212 61.153 190.17 64.2802 189.822C66.7124 189.128 69.8396 188.78 72.9667 188.78C73.3142 188.78 74.3565 188.78 75.3989 189.127C76.0938 189.127 77.1362 189.128 77.4837 189.475C79.221 189.822 80.2634 190.865 81.3058 191.907C82.0007 192.95 82.6956 193.992 83.3905 195.034C84.4329 197.467 84.7804 199.551 84.7804 201.636C84.4329 203.721 83.3905 205.806 82.0007 207.543C78.5261 211.712 75.7464 212.06 72.9667 212.06C71.5769 212.06 70.5345 212.06 68.7972 212.755C67.4073 213.45 66.0175 214.84 64.6277 215.882C63.5853 216.924 62.5429 218.314 62.1954 219.357C61.5005 220.746 61.1531 223.874 61.1531 227.348C61.1531 231.518 61.1531 235.34 61.848 237.077C61.848 237.424 62.8903 239.162 63.5853 240.552C64.2802 241.247 64.9751 242.289 64.9751 242.289L67.4073 243.679C68.1023 244.026 68.4497 244.374 68.4497 244.374C68.4497 244.721 68.4497 244.721 69.1446 244.721C70.5345 245.069 71.5769 245.069 71.9243 245.416C72.6192 245.416 72.9667 245.416 72.9667 245.416H74.0091C74.3565 245.069 75.0515 245.069 76.4413 244.721C76.7888 244.721 77.1362 244.721 77.4837 244.721C77.4837 244.374 77.4837 244.374 77.8311 244.374L80.9583 241.594L81.3058 241.247C81.6532 241.247 81.6532 241.247 81.6532 240.899C81.6532 240.899 81.6532 240.552 82.0007 240.552C82.3481 239.857 82.3481 239.857 82.3481 239.509C82.6956 239.509 82.6956 239.162 83.0431 238.814L84.4329 234.645C84.4329 233.602 84.4329 232.213 84.4329 231.17C84.4329 230.475 84.4329 229.433 84.4329 228.738C84.4329 225.611 85.4753 224.221 86.5177 222.484L86.8651 222.136V221.789L87.2126 221.441C87.9075 220.399 88.6024 220.051 89.2973 219.357C89.6448 219.357 89.9923 219.009 90.3397 218.662C91.0347 217.967 92.772 217.272 94.8567 216.924C96.2466 216.577 97.6364 216.577 99.0263 216.924C99.7212 217.272 100.069 217.272 100.069 217.272C101.458 217.272 101.458 217.272 103.543 219.009C104.933 220.051 105.628 220.746 105.975 221.789C106.323 222.136 106.67 222.484 107.018 223.179C108.06 224.568 108.408 227.348 108.408 230.475C108.755 234.297 108.06 239.162 107.713 240.552V240.899C105.975 244.721 104.586 248.891 102.848 252.713L102.501 253.06C102.153 254.103 101.111 255.145 99.7212 256.187C99.3737 256.882 98.6788 257.23 98.3313 257.577V257.925L95.5516 260.009C94.8567 260.704 94.5093 260.704 94.1618 260.704C94.1618 260.704 94.1618 261.052 93.4669 261.399C92.4245 262.789 89.9923 264.179 87.9075 265.569C85.4753 266.611 83.0431 267.654 80.9583 268.001C80.2634 268.001 78.5261 268.348 76.7888 268.348C75.3989 268.696 74.0091 268.696 72.9667 268.696C70.187 268.348 67.7548 268.001 64.9751 267.654C61.848 266.959 60.1107 266.264 58.3734 265.569C56.6361 264.874 55.2462 263.831 53.1615 262.442C50.7292 260.357 48.297 258.62 46.5597 256.535C44.8224 254.45 43.0851 252.018 41.6953 248.891L40.6529 247.153C37.5257 240.204 37.5257 233.255 37.8732 226.653ZM409.656 147.085C410.003 147.085 410.351 147.085 410.698 147.085C410.698 147.085 410.698 146.737 410.351 146.042V145.695C410.351 146.042 410.003 146.39 410.003 146.737C410.003 146.737 409.656 146.737 409.656 147.085ZM486.097 282.942C486.097 282.942 486.445 282.942 486.792 282.594C487.14 282.594 487.487 282.247 487.835 282.247C488.182 282.247 488.182 282.247 488.529 282.247C489.919 281.552 490.614 281.205 490.962 281.205C491.309 281.205 491.309 281.204 492.352 280.857C493.394 279.815 494.436 279.815 495.131 279.815C495.479 279.815 495.479 279.815 495.826 279.467L506.945 274.255C508.335 273.908 509.377 273.213 510.419 272.865C512.157 271.823 513.547 271.128 515.284 270.781L521.191 267.654L519.801 266.611C518.758 265.916 518.064 265.221 517.716 264.526C515.979 263.137 513.547 261.052 510.767 258.967C509.03 257.577 507.292 256.187 505.555 254.798C505.555 254.45 505.208 254.45 505.208 254.45C504.86 254.103 504.513 253.755 503.818 253.755H475.326L476.021 256.535C476.368 256.882 476.368 256.882 476.716 257.925L481.58 270.781C481.928 271.476 481.928 271.823 481.928 272.171C481.928 272.518 481.928 272.518 481.928 272.865C482.275 273.213 482.623 273.56 482.97 274.255L484.707 279.815C485.402 281.204 485.75 282.247 486.097 282.942ZM119.526 295.103C120.221 295.103 120.569 295.103 121.264 295.103C122.306 295.45 123.001 295.798 123.696 295.798C126.476 296.493 129.603 297.188 132.73 297.535C134.12 295.103 136.205 293.018 137.942 290.933C138.984 289.544 140.374 288.501 141.416 287.111L150.103 274.603L150.45 274.255L150.798 273.56C151.145 272.866 151.145 272.865 151.493 272.518V272.171L153.23 270.086C153.925 269.391 154.62 268.349 155.315 267.306C156.01 266.264 156.705 264.874 157.4 263.832C158.442 262.442 158.789 262.094 159.137 262.094C159.484 261.747 158.442 262.442 159.137 260.704L164.696 252.018V251.67C164.696 251.323 165.044 251.323 165.044 250.628L171.645 238.814C171.645 238.467 171.645 238.119 171.993 238.119C171.993 237.425 172.34 237.077 172.688 236.382L174.773 232.213L166.434 230.823H166.086C164.696 230.128 162.264 229.78 159.832 229.78C158.095 229.433 156.357 229.085 155.315 229.085C154.272 228.738 153.925 228.738 153.23 228.391C152.535 228.391 151.84 228.043 150.103 228.043H149.755C149.061 228.043 148.713 228.043 148.366 227.696C147.671 227.696 147.323 227.696 146.976 227.348L146.628 227.001C146.281 227.001 145.933 227.001 145.933 227.001C145.586 226.653 145.238 226.653 144.544 226.653C143.849 226.653 142.459 226.306 140.721 225.958C139.332 225.611 137.942 225.263 136.552 224.916C136.552 226.306 136.552 228.043 136.552 229.78C136.552 235.34 136.899 241.247 135.51 245.416L135.162 249.586C134.815 250.628 134.815 251.67 134.467 252.365C134.12 253.06 134.12 253.755 133.772 254.103V254.45L133.077 259.314C132.73 260.704 132.382 261.747 132.382 262.442C132.035 263.137 132.035 263.832 131.688 264.526L128.213 275.645C127.518 277.382 127.171 278.425 126.823 278.772L124.738 284.332C124.391 284.679 124.738 284.332 124.391 284.332V284.679C124.391 284.679 124.391 284.679 124.391 285.374C124.043 285.374 124.043 285.721 124.043 285.721L123.696 286.416C122.306 290.238 121.611 291.628 119.526 295.103ZM159.484 302.052C160.874 302.4 162.959 302.4 165.044 302.747C169.213 303.094 173.383 303.442 175.468 304.137C176.162 304.137 177.205 304.484 178.247 304.484C179.637 304.484 181.027 304.484 182.069 304.832C182.764 305.179 183.459 304.484 184.849 303.095C185.196 302.4 185.891 301.705 186.586 301.01L200.485 284.679L200.832 284.332L201.527 283.289C201.875 282.594 202.569 282.247 202.917 281.552C203.264 281.205 203.612 280.857 203.959 280.51C204.654 279.467 205.349 278.772 206.392 278.077C207.086 277.382 207.781 276.688 208.824 275.298C209.171 274.95 209.519 274.255 210.214 273.908C212.646 270.781 215.425 267.654 218.205 264.874C218.9 264.179 219.248 263.484 219.942 263.137C220.29 262.789 220.637 262.442 220.637 262.094H220.985C221.332 261.747 221.332 261.399 221.68 261.052L232.104 248.543C232.799 247.848 233.146 247.501 233.841 246.806C234.188 246.806 234.536 246.458 234.536 246.111L236.968 243.331C237.315 242.984 237.663 242.636 238.01 242.289L238.705 241.594C238.358 241.247 238.01 241.247 238.01 241.247C238.01 241.247 237.663 240.899 232.104 240.899C230.714 240.899 229.671 240.552 228.629 240.552C227.587 240.552 226.544 240.204 225.502 239.857L214.383 238.467C212.993 238.467 212.298 238.119 211.256 237.772C210.561 237.772 209.866 237.425 208.824 237.425H208.129C207.086 237.425 206.392 237.424 205.349 237.077L204.307 236.73C202.222 236.382 201.18 236.035 198.747 236.035C198.052 238.119 197.358 239.509 196.663 240.552C196.663 240.899 196.315 241.247 196.315 241.247C195.62 242.984 195.273 243.679 194.925 244.374C194.578 245.416 194.578 246.111 194.23 246.806C193.535 247.501 193.188 248.543 191.451 250.975V251.323C191.451 251.323 191.451 251.323 191.451 251.67C191.103 252.365 191.103 252.713 190.408 253.755C189.713 254.798 189.366 255.492 189.019 256.535L187.976 258.272L186.934 260.357C185.196 263.484 183.112 266.959 181.027 270.433C179.985 272.518 178.595 274.255 177.9 275.993L177.552 276.34L174.078 281.552V281.899C172.688 283.984 170.951 286.069 169.561 288.501C167.476 291.281 165.391 294.061 162.959 297.188L162.264 298.23C161.569 299.272 160.874 299.967 160.179 301.01C159.832 301.357 159.484 301.705 159.484 302.052ZM466.987 230.128C472.199 230.475 481.928 230.475 491.657 230.128C501.385 230.128 510.767 229.78 515.284 229.433C519.801 229.085 525.36 229.085 530.572 229.085C533.699 229.085 536.826 229.085 539.954 228.738C541.691 228.738 543.428 228.738 545.165 228.391C547.25 228.391 549.682 228.043 552.115 228.043C553.157 228.043 554.547 228.043 555.589 228.043C551.42 225.958 547.25 223.526 543.428 221.094C543.081 221.094 542.733 221.094 542.733 220.746H542.386C540.996 220.399 539.606 219.704 537.869 218.662C537.521 218.662 537.174 218.314 536.479 217.967L525.708 212.755C525.708 212.755 525.36 212.407 525.013 212.407C524.665 212.407 524.318 212.06 523.97 212.06C522.928 211.365 522.233 211.018 521.191 210.323C520.843 210.323 520.496 210.323 520.148 209.975C519.453 209.975 518.758 209.628 516.674 208.585C515.631 208.238 515.284 207.89 514.936 207.89C515.284 207.89 515.284 207.89 514.936 207.89C514.589 207.543 514.242 207.543 513.547 207.195C512.852 206.848 511.809 206.848 510.767 206.153L507.292 204.416C506.25 203.721 505.902 203.373 505.555 203.373C505.555 203.373 505.555 203.373 504.165 203.026C503.47 202.678 502.775 202.331 501.733 202.331C501.038 201.984 500.343 201.636 499.648 201.289C497.216 199.899 496.521 199.551 496.174 199.551C495.479 199.551 495.131 199.204 494.436 198.856L490.962 197.467L490.614 197.119C489.919 197.119 489.572 197.119 488.877 196.772C487.487 196.424 487.14 196.077 486.445 195.729C486.097 195.382 485.75 195.382 483.665 194.687C482.97 194.339 482.623 194.339 482.275 193.992C481.928 193.992 481.928 193.992 481.58 193.992H481.233L473.241 190.865H472.894C472.546 190.517 471.504 190.17 470.114 189.822C468.029 189.128 465.597 188.433 463.165 187.39C462.817 187.39 462.817 187.39 462.47 187.043C462.122 187.043 462.122 187.043 461.775 186.695C460.038 186.348 459.343 186 458.995 186C458.648 186 458.648 185.653 457.953 185.653C456.216 185.653 454.826 184.958 453.088 184.263C452.046 184.263 451.004 183.568 449.961 183.568L466.292 228.738C466.639 229.433 466.639 229.78 466.987 230.128ZM514.936 207.89V207.543C514.936 207.543 514.936 207.543 514.936 207.89ZM131.688 196.424C133.425 196.424 133.425 196.424 133.772 196.077C134.12 195.729 134.815 195.729 135.857 195.382L148.366 192.602C150.798 191.56 153.578 190.865 154.967 190.517C155.315 190.17 155.662 190.17 155.662 190.17H156.01L162.264 188.085H162.612C163.654 188.085 165.391 187.39 167.823 186.348C171.298 185.305 175.12 183.916 177.9 183.221C179.29 182.873 180.679 182.178 182.417 181.483C183.807 180.788 185.196 180.441 186.934 179.746C187.976 179.399 189.019 179.051 190.061 178.704C191.798 178.009 193.188 177.314 196.315 176.271L201.527 174.187C203.264 173.144 205.002 172.449 206.392 172.102C208.129 171.407 209.519 170.712 212.298 169.67L220.637 165.5C221.332 164.805 222.375 164.458 223.07 164.11C224.112 163.415 225.502 162.72 227.239 161.678L236.273 155.771L236.621 155.424C237.663 155.076 237.663 155.076 238.01 154.381C238.01 154.381 238.358 154.034 238.705 153.687C239.053 153.339 239.053 153.339 239.4 153.339C237.316 153.339 235.578 153.339 234.188 153.687C231.409 153.687 227.934 154.034 225.154 154.034C223.765 154.034 222.722 154.034 221.332 154.034L197.358 155.771C195.273 156.119 192.841 156.119 190.756 156.119C188.671 156.119 186.934 156.119 185.196 156.466C184.502 156.466 183.807 156.814 183.112 156.814C182.069 157.161 181.027 157.161 179.29 157.161C178.942 157.509 178.247 157.509 177.552 157.509C176.162 157.509 175.468 157.509 174.078 157.856C172.34 158.551 170.256 158.551 168.171 158.551H167.823C166.781 158.898 165.739 158.898 164.696 159.246C164.001 159.246 163.306 159.593 162.264 159.593L160.874 159.941C159.484 159.941 158.442 159.941 157.052 160.288C156.357 160.636 155.662 160.636 154.967 160.636C154.967 160.636 154.967 160.636 153.925 160.983H153.578C153.23 160.983 153.23 160.983 153.23 160.983C153.23 160.983 153.23 160.983 153.23 161.331H152.883H152.535C150.798 162.026 149.408 162.026 147.671 162.026C146.976 162.026 146.281 162.026 145.586 162.373L129.603 165.153C128.908 165.5 128.213 165.5 127.518 165.5C127.171 165.5 126.823 165.5 126.476 165.848C126.128 165.848 126.476 165.5 126.476 165.5C126.128 165.848 125.433 166.195 124.391 166.543C123.348 166.89 122.306 166.89 121.264 167.238C120.569 167.238 119.526 167.237 118.831 167.585L115.009 168.28C116.399 169.322 117.789 171.06 119.874 173.492C120.569 174.187 120.569 174.534 120.916 174.534C121.611 175.229 121.959 175.577 123.348 178.009C124.043 179.746 124.738 180.441 124.738 180.788C125.433 181.831 125.781 182.178 127.865 187.043C127.865 187.043 128.213 187.39 128.56 188.085C128.908 189.128 129.95 190.517 130.298 191.56L130.645 192.95C130.993 193.992 131.34 195.382 131.688 196.424ZM174.773 208.238C175.468 208.238 176.162 208.585 176.51 208.585C177.205 208.933 177.552 208.933 179.985 209.28C181.374 209.28 182.417 209.628 183.459 209.975C184.502 209.975 185.196 210.323 186.239 210.323C187.976 210.67 188.324 210.67 189.366 211.018C189.366 211.365 189.713 211.365 189.713 211.365C190.061 211.712 190.756 211.712 191.798 211.712C193.188 211.712 194.925 211.712 196.663 212.06C197.358 212.755 198.4 212.755 199.79 212.755C200.485 212.755 201.18 212.755 202.222 213.102L208.824 213.797C210.214 214.145 211.256 214.145 212.646 214.492C213.688 214.492 214.383 214.84 215.425 214.84C217.858 215.187 219.595 215.535 221.68 215.882C222.722 216.229 228.282 216.924 233.841 217.272C240.095 217.967 246.35 218.662 248.434 219.009C249.477 219.357 250.519 219.357 251.561 219.704C252.256 219.704 253.299 219.704 254.689 219.704C257.816 220.051 257.816 219.704 259.553 217.967C260.248 216.924 260.943 216.229 261.638 215.535C261.985 214.84 262.333 214.492 262.68 213.797C263.375 213.102 264.07 212.407 264.765 211.365L269.977 205.458L270.324 205.111C270.672 204.416 271.367 203.721 271.714 203.373L276.231 198.509C276.926 197.814 277.621 196.772 278.316 196.077C279.358 194.687 280.401 193.297 281.443 192.255C284.223 189.822 286.655 186.695 289.087 183.916L290.824 181.831L301.248 170.017C302.638 168.627 304.028 166.89 305.418 165.153C306.808 163.415 308.197 161.678 309.935 159.941L313.409 156.119L313.757 155.771L306.808 155.076C302.986 155.076 301.248 154.729 299.163 154.381C297.774 154.381 296.384 154.034 294.299 154.034L268.934 153.339C267.892 155.771 267.197 157.161 265.807 158.898L265.112 159.941C263.723 161.678 262.68 163.068 261.985 164.11C260.943 165.5 259.553 166.543 258.163 167.932C254.341 171.407 252.256 172.797 249.477 174.882C248.782 175.577 248.434 175.924 246.697 176.966L246.349 177.661C245.655 178.009 245.307 178.009 244.612 178.704L237.663 183.221C235.926 184.263 234.188 184.958 232.799 185.653C225.154 189.128 217.51 192.602 209.866 196.077C209.171 196.424 208.476 196.772 207.434 197.119L206.739 197.467C206.392 197.467 206.044 197.814 205.697 197.814C204.654 198.509 203.264 198.856 201.875 199.204C201.527 199.204 200.832 199.551 200.137 199.899C200.137 199.899 199.79 199.899 199.442 200.246C196.663 201.289 193.535 202.331 190.756 203.026L190.061 203.373L185.196 205.111C184.502 205.458 183.459 205.806 182.417 206.153C181.722 206.153 180.679 206.501 179.637 206.848C179.29 206.848 178.942 206.848 178.942 206.848C178.595 207.195 178.247 207.195 177.552 207.543C176.51 207.89 176.162 207.89 175.468 207.89H175.12C174.773 207.89 174.773 208.238 174.773 208.238ZM67.4073 174.534C67.0599 174.534 65.67 174.882 64.6277 174.882C62.8904 174.882 60.4581 174.882 59.7632 174.882C58.3734 174.882 56.9835 175.229 55.9411 175.577C54.5513 175.924 53.1615 176.271 51.7716 176.966C51.0767 177.314 50.7292 177.314 50.0343 177.314C50.0343 177.314 49.6869 177.314 49.3394 177.661L40.3054 182.873C38.5681 184.611 36.4834 186.695 35.0935 188.433L34.0511 189.822V190.17C33.0087 191.212 32.3138 192.255 31.6189 193.644L31.2714 193.992L28.8392 198.856C28.4918 199.551 28.1443 199.899 28.1443 199.899C28.1443 200.246 28.1443 199.899 28.1443 200.941C27.7968 201.984 27.4494 202.331 27.1019 203.026C27.1019 203.026 27.1019 203.026 27.1019 203.373C26.407 206.848 25.7121 209.628 25.3646 211.712C24.3222 216.229 23.2799 219.357 23.6273 229.085C23.6273 233.255 23.9748 236.382 24.3222 240.204C24.3222 242.289 24.6697 244.374 24.6697 246.111C24.6697 247.153 24.6697 246.806 24.6697 247.153C24.6697 247.501 25.0172 247.848 25.3646 248.196C25.7121 249.586 25.7121 250.628 25.7121 251.67C25.7121 251.67 25.7121 252.018 25.7121 252.365C25.7121 253.06 26.0595 253.06 26.0595 253.408C26.407 253.755 26.407 254.103 26.7545 254.798C26.7545 255.84 26.7545 256.535 26.7545 257.23C26.7545 257.577 27.1019 257.925 27.1019 258.272L27.4494 259.314C28.4918 261.399 29.1867 263.484 29.8816 265.569C30.2291 266.611 30.5765 267.306 30.924 268.348L35.0935 278.772C35.441 279.467 35.441 279.815 35.7884 280.162C36.1359 280.162 36.1359 280.51 36.4834 280.857C36.8308 281.552 37.1783 281.899 37.1783 282.594C37.5257 282.594 37.5257 282.942 37.5257 283.289L43.4326 292.671C44.1275 293.366 44.8224 294.408 45.5173 295.45C46.2122 296.493 46.9072 297.535 47.6021 298.23C47.9495 298.578 47.9496 298.578 48.297 298.925C48.6445 299.272 48.9919 299.62 49.6869 299.967C50.0343 300.662 50.3818 300.662 50.3818 301.01C50.7292 301.357 51.0767 301.705 51.4242 302.052L54.8988 305.527C55.9411 306.222 56.9835 306.917 58.3734 307.612C59.0683 307.959 59.7632 308.306 60.1107 308.654L63.5853 310.391C64.6276 310.391 66.0175 310.391 67.7548 310.391C69.8395 310.391 71.9243 310.391 72.9667 310.391C74.3566 310.044 76.0938 309.001 77.8311 307.959C78.5261 307.612 79.221 307.264 79.5685 306.917L82.3481 305.527L90.3397 296.84L97.6364 286.416L104.238 273.908C104.933 272.518 105.281 270.781 105.628 269.043L105.975 268.001V267.654L107.713 263.484C107.713 263.137 108.06 262.789 108.06 262.789V262.442L109.45 258.62C109.45 258.272 109.45 258.272 109.45 257.925C109.45 257.23 109.45 256.535 110.145 255.145C110.492 254.45 110.492 254.103 110.84 253.755C110.84 253.408 110.492 254.103 110.492 253.06C110.492 250.975 111.187 248.891 111.535 246.806C111.882 244.721 112.23 242.289 112.577 239.857C112.577 233.255 112.925 226.653 112.577 220.051C112.23 213.797 110.84 207.195 108.755 201.289C108.408 200.594 108.408 200.246 108.06 199.899C108.06 199.551 108.06 199.551 107.713 198.856L107.365 197.467C105.975 195.034 104.933 192.95 103.543 190.865C102.501 189.475 101.458 188.433 100.764 187.39C100.069 186.695 99.0262 185.653 97.9838 184.611L93.8143 181.483C90.6872 179.399 88.9499 178.704 86.5177 177.661L84.4329 176.966C83.738 176.619 83.3905 176.271 83.0431 176.271C83.0431 175.924 83.0431 176.271 82.6956 176.271C80.6108 175.577 79.9159 175.229 79.5685 174.882C78.8735 174.882 76.7888 174.534 74.704 174.534C71.2294 174.534 67.7548 174.534 67.4073 174.534ZM207.781 311.781L210.908 313.518C212.646 314.561 214.036 315.256 215.078 315.951V316.298C215.426 316.298 216.12 316.646 216.468 316.646L228.282 321.857C228.629 322.205 228.976 322.205 229.324 322.205C229.671 322.205 230.366 322.552 231.409 322.9C232.104 322.9 232.799 323.247 233.493 323.247C234.536 323.247 235.578 323.595 236.621 323.942C239.053 324.985 242.875 324.637 246.002 324.637C246.697 324.637 247.392 324.637 248.087 324.637C249.477 324.637 250.519 324.29 251.561 323.942C251.909 323.942 252.256 323.595 252.951 323.595C255.383 322.9 257.816 321.857 259.9 320.468C261.985 319.078 264.07 317.34 266.155 315.603C266.502 315.603 266.85 315.256 266.85 314.908C267.197 314.908 267.197 314.561 267.545 314.561L273.451 306.917L274.841 305.179C274.841 304.832 275.536 304.137 275.884 303.442L277.968 300.315C279.011 299.272 281.096 296.493 283.528 293.366C285.613 290.586 287.697 287.806 288.392 286.416C289.087 285.027 289.782 283.984 290.477 283.289C291.172 282.247 291.867 281.552 292.562 280.51C292.909 279.467 293.257 278.772 293.952 278.077L299.511 269.391C305.418 261.052 311.325 252.365 317.231 243.679C317.579 243.331 317.926 242.984 317.926 242.636H318.274V242.289C320.359 239.162 322.096 236.73 324.181 233.602V233.255C324.528 232.907 324.528 232.908 324.528 232.56C324.876 232.56 324.528 232.56 324.876 232.56C326.265 230.823 328.003 227.696 330.087 224.568C331.13 222.484 332.52 220.746 333.562 219.009L339.816 208.933C340.859 207.543 341.554 206.501 342.249 205.111C343.291 204.068 343.986 203.026 344.681 201.984C344.681 201.636 344.681 201.636 344.681 201.636C344.681 201.289 344.681 201.289 345.028 201.289C345.028 200.941 345.028 200.941 345.028 200.941L345.376 200.594L345.723 199.899C345.723 199.899 346.071 199.551 346.766 198.856L353.367 188.78V188.433C355.105 186.348 356.147 184.958 357.189 183.221C357.537 182.526 357.884 181.831 358.579 180.788L368.308 165.848C368.308 165.848 368.308 165.5 368.656 165.153L369.003 164.458L369.35 164.11C375.605 156.466 382.554 144.653 388.113 136.314C389.503 133.881 390.893 131.797 392.283 129.712C393.673 127.28 395.41 125.195 396.452 123.11C397.495 121.373 398.19 120.33 398.885 119.288C399.927 118.246 400.622 117.203 399.58 114.771C399.232 114.424 398.885 113.729 398.885 113.034C398.19 111.644 397.495 109.907 396.8 109.212V108.864L396.105 108.517C394.368 107.127 392.63 106.432 390.893 106.779C389.156 107.127 387.071 108.169 385.334 110.254C384.986 110.601 384.986 110.601 384.639 110.949C384.291 111.296 384.291 111.644 383.944 111.991C383.249 112.339 383.249 112.686 382.901 112.686C382.901 113.034 382.554 113.034 382.207 113.381L381.512 114.424C378.732 117.898 376.3 121.373 373.173 124.5L357.537 141.873C357.189 142.22 357.189 142.22 356.842 142.568C356.842 142.915 356.494 142.915 356.147 143.61L347.113 153.339C346.766 153.687 346.766 154.034 346.418 154.034C345.723 154.381 345.376 155.076 345.376 155.424H345.028C342.943 157.856 340.511 160.636 338.427 163.068L325.918 177.661L325.223 178.356C324.528 179.051 324.528 179.051 324.181 179.399C323.833 179.746 323.486 180.094 323.138 180.441V180.788L320.359 183.916V184.263C317.926 186.695 315.494 189.128 313.409 191.907C310.977 194.687 308.892 197.119 306.808 199.899L283.18 227.001C281.443 229.085 279.358 230.823 277.621 232.908C275.536 234.992 273.104 237.424 271.367 239.857L270.672 240.899C270.324 241.247 270.324 241.247 270.324 241.247L264.765 246.806C264.417 247.153 264.417 247.153 264.417 247.501C264.07 247.848 263.723 247.848 263.375 248.543L235.578 280.162C235.578 280.51 235.231 280.51 235.231 280.857C234.883 281.204 234.536 281.899 234.188 282.247L233.841 282.594L218.553 299.62L218.205 299.967L217.858 300.315L212.298 306.917C211.603 307.264 211.256 307.959 210.908 308.654C209.866 309.696 209.171 310.739 207.781 311.781ZM368.308 165.848C368.308 166.195 368.308 166.543 368.308 166.195V165.848ZM298.816 311.781C303.68 311.781 312.367 311.781 316.536 311.434C317.579 311.434 318.274 311.434 318.621 311.434C321.053 311.434 323.486 311.434 326.265 311.434C327.308 311.434 328.698 311.434 330.087 311.434C332.172 311.086 333.91 311.086 335.647 310.739C337.732 310.739 339.469 310.391 341.901 310.391C346.766 310.391 351.63 310.044 356.147 309.696C358.927 309.349 361.359 309.349 364.486 309.001C365.876 309.001 367.613 308.654 369.003 308.654C371.088 308.306 373.52 307.959 375.605 307.959C377.69 307.959 381.164 307.612 384.639 306.917C389.156 306.222 393.325 305.527 396.105 304.832C399.927 304.484 403.749 303.789 407.571 303.442C411.046 303.095 413.478 302.4 416.605 301.705L416.953 301.357L424.597 299.62C424.944 299.62 425.987 299.62 426.681 299.62C428.766 299.272 431.198 298.925 433.283 298.23C434.673 297.883 435.715 297.535 436.758 297.535C437.8 297.535 438.495 297.188 439.19 297.188C440.232 296.493 440.58 296.493 441.275 296.493C441.275 296.493 441.622 296.493 441.97 296.145C442.317 296.145 442.317 296.145 442.317 296.145C442.665 295.798 443.012 295.45 444.054 295.45C445.097 295.103 445.792 295.103 446.139 295.103C446.487 295.103 446.834 295.103 447.182 295.103C447.529 294.755 447.877 294.408 448.919 294.061C449.961 293.713 451.351 293.366 452.394 293.366C453.783 293.018 455.173 292.671 456.216 292.323C457.953 291.628 459.69 291.281 461.08 291.281C462.122 290.933 463.165 290.933 463.86 290.586C463.86 289.891 463.512 288.849 462.817 287.806C462.47 287.111 462.47 286.069 462.122 285.374C461.775 285.027 461.775 284.679 461.775 284.332C461.428 283.984 461.427 283.637 461.08 282.594C460.733 281.899 460.385 281.204 460.038 280.857C459.343 279.815 458.995 278.772 458.648 277.382L456.216 270.781V270.433L455.868 270.086C455.173 268.696 455.173 268.349 455.173 267.306C455.173 267.306 454.826 266.959 454.826 266.611L452.394 260.357C451.699 259.315 451.699 258.272 451.351 257.23C451.351 256.535 451.004 256.187 451.004 255.84L450.656 255.145C450.656 254.45 451.351 254.45 450.656 254.103C450.656 254.103 449.961 254.103 448.572 254.103C447.877 254.103 446.834 254.103 445.444 254.103C444.749 254.103 443.707 254.103 442.665 254.103C439.19 254.45 435.021 254.45 432.241 253.755C431.893 253.408 430.504 253.06 429.809 252.365C429.114 252.018 428.419 251.67 428.071 251.323H427.724L425.639 248.543C424.597 246.806 423.902 244.721 423.902 242.636C423.902 240.899 424.249 239.162 424.944 237.772C425.987 236.035 427.029 234.645 428.766 233.602C431.198 231.865 434.326 230.823 438.843 230.823C439.19 230.823 439.538 230.823 440.232 230.823C440.927 230.823 441.622 230.823 442.317 231.17L441.97 230.475C441.622 228.738 440.927 227.001 440.927 227.001C440.927 226.653 440.927 226.653 440.927 226.653C440.58 226.653 440.58 226.653 440.232 226.306C440.232 225.958 440.232 225.958 440.232 225.611C436.41 215.882 432.936 205.806 429.461 195.729H429.114C428.419 192.95 427.376 190.517 426.334 187.738C425.292 184.958 424.249 182.178 423.207 179.051L421.122 174.187L420.08 173.839C419.037 173.839 418.342 173.492 417.647 173.144C416.258 172.797 414.52 172.449 412.436 172.102C411.393 171.754 410.003 171.407 408.613 171.06L402.359 170.017V169.67C401.664 169.67 401.317 169.67 401.317 169.322C400.622 169.322 400.275 169.322 399.58 168.975C398.537 168.627 397.842 168.627 397.147 168.28C396.452 168.28 396.105 167.932 395.41 167.932C394.368 169.67 392.978 171.754 391.935 173.492C391.588 173.839 391.241 174.187 390.893 174.534C390.893 174.882 390.546 175.229 390.546 175.229C390.198 175.577 390.198 175.577 390.198 175.924C389.851 175.924 389.851 176.271 389.503 176.619C389.156 177.314 388.808 177.661 388.461 178.356V178.704C387.418 179.746 386.724 180.788 386.029 181.831C384.986 183.916 383.596 186 382.207 187.39C381.512 188.085 381.512 188.433 381.164 189.127C380.817 189.475 380.817 189.822 380.469 190.517C380.122 190.865 379.774 191.56 379.427 191.907C379.079 192.602 378.732 193.297 378.384 193.992C377.342 195.729 376.3 197.119 374.91 198.856C373.867 199.899 372.825 201.289 372.478 202.331C370.74 205.458 367.961 209.628 365.181 213.797C363.096 216.924 361.011 220.051 359.969 221.789L355.452 228.043C359.274 228.391 362.749 228.391 366.223 228.738C370.045 229.085 373.52 229.085 376.995 229.085C379.079 229.085 381.164 229.433 382.901 229.433C384.639 229.433 386.376 229.78 388.113 229.78C389.503 229.78 390.893 229.78 392.63 229.78C398.885 230.128 406.181 230.128 408.961 236.73C409.656 238.814 410.003 240.899 409.656 242.984C409.656 245.069 408.961 247.153 407.571 248.543C406.181 250.281 405.139 251.323 403.402 252.018C402.012 253.06 400.274 253.408 398.19 253.408H397.842L364.486 252.018C361.359 251.67 357.884 251.67 354.41 251.67C350.24 251.67 346.071 251.67 342.249 250.975C340.164 250.975 339.816 251.67 338.774 253.408C338.079 254.798 337.384 256.187 336.342 257.577L325.918 273.213C325.57 273.56 325.223 273.908 325.223 273.908C324.876 274.603 324.528 274.95 324.528 274.95C324.181 275.298 323.833 275.993 323.486 276.34C323.138 277.035 322.791 277.73 322.096 278.425L321.748 278.772L317.579 284.679C317.231 285.027 317.579 284.679 317.231 285.027C313.757 288.501 302.638 306.569 298.816 311.781ZM322.096 278.772C322.096 278.425 322.096 278.425 322.096 278.425V278.772Z" fill="url(#paint0_linear_202_365)"/>
  <defs>
    <linearGradient id="paint0_linear_202_365" x1="0" y1="186.348" x2="607.708" y2="186.348" gradientUnits="userSpaceOnUse">
      <stop stop-color="#FF5C77"/>
      <stop offset="1" stop-color="#0097A7"/>
    </linearGradient>
  </defs>
</svg>