<svg xmlns="http://www.w3.org/2000/svg" width="672" height="670" viewBox="0 0 672 670" fill="none">
  <path fill-rule="evenodd" clip-rule="evenodd" d="M461.806 60.4172C463.141 63.0882 469.819 69.2316 472.223 71.9026C474.093 73.7724 475.695 75.375 477.565 77.2447C479.702 79.1144 481.572 80.7171 483.441 82.5868C486.112 85.2579 502.94 103.688 505.878 105.024C506.679 107.16 522.438 121.584 525.377 124.522C528.582 127.994 531.52 131.2 534.992 134.672C538.465 138.144 541.136 140.548 544.875 144.555L564.641 164.054C567.846 166.992 582.804 182.484 584.941 183.819C586.009 186.223 597.495 196.907 600.7 200.113C603.371 202.784 615.658 214.536 616.993 216.673C613.254 216.406 609.514 215.605 605.775 216.406C602.303 214.269 563.573 216.673 555.025 217.207C549.95 217.741 544.341 218.543 539.266 219.344C533.39 220.412 529.65 220.145 523.507 221.748C512.556 224.686 490.92 228.96 482.907 233.501C468.216 236.973 439.636 252.198 427.349 261.279C419.069 267.69 412.392 274.1 405.447 280.778L385.414 301.345C382.476 302.948 373.662 312.831 370.723 315.769C360.841 326.186 341.609 343.815 334.397 352.095C332.26 354.766 329.055 356.368 327.185 359.039L322.645 362.779C317.57 360.108 313.029 351.561 307.42 348.622L307.954 348.088C308.221 348.088 308.221 347.821 308.488 347.821L369.655 286.387C372.593 284.517 376.867 279.442 379.805 276.504L399.838 257.006C403.043 253.8 405.447 249.794 408.385 245.787C428.685 219.878 450.32 160.848 452.457 130.933C453.259 118.379 454.861 106.893 455.395 94.0723C455.662 80.45 455.128 68.1632 454.861 54.808C456.731 55.8764 456.731 56.4106 458.333 58.0132C459.402 59.0817 460.203 59.6159 461.806 60.4172ZM231.028 425.281C229.158 427.952 217.673 438.637 214.468 441.842C209.125 446.65 203.249 452.793 198.441 458.135L213.399 472.826L233.165 453.06C234.767 450.389 243.582 442.109 247.054 439.438C243.849 436.233 234.233 427.685 232.363 424.747C232.096 424.747 231.028 425.014 231.028 425.281ZM188.291 350.492C173.334 353.43 177.607 375.333 192.298 372.662C206.187 369.991 202.982 347.821 188.291 350.492ZM242.781 296.003C226.754 300.009 233.165 320.576 246.787 318.173C261.478 315.501 257.204 292.798 242.781 296.003ZM132.467 405.783C118.043 409.255 123.118 432.226 138.343 427.418C143.151 425.815 148.226 420.741 146.089 413.796C145.555 412.193 142.884 408.187 141.815 406.851C139.946 405.249 135.138 405.248 132.467 405.783ZM253.465 403.112L267.621 418.069C272.429 413.796 299.941 385.216 302.078 384.681C299.407 382.545 297.27 379.606 294.599 377.203C292.462 375.066 288.455 371.86 287.387 369.457C285.784 370.258 287.12 369.457 286.051 370.258C285.517 370.792 285.25 371.059 284.983 371.326C284.182 372.128 283.915 372.662 283.113 373.463L253.465 403.112ZM505.878 63.8895L473.291 29.9673C469.819 27.0292 465.011 20.3516 461.806 19.016C459.936 15.8108 453.526 10.4687 450.587 7.26346C447.382 4.05821 442.841 -0.482542 435.63 0.31877C421.74 2.1885 421.473 12.3385 423.343 25.9608C424.946 36.3778 425.213 52.4041 425.48 63.6224C426.548 95.6749 424.678 138.946 412.926 168.861C405.447 187.292 400.639 205.989 387.818 223.351C384.613 227.891 383.01 231.631 379.538 235.103C377.668 236.706 370.456 243.651 369.655 245.52C365.648 247.39 362.443 252.465 359.238 255.403C356.834 257.54 355.766 258.341 353.896 260.478L333.596 280.778C331.459 282.915 330.391 284.517 328.254 286.387C322.645 292.263 306.886 306.954 302.345 312.296C297.003 318.173 291.126 322.179 287.12 327.788C285.25 324.85 282.579 322.98 279.374 320.309C273.23 314.7 286.586 308.824 271.094 284.785C269.758 282.648 269.491 282.381 267.621 281.045C262.012 277.039 261.211 275.169 251.595 273.032C242.246 270.895 233.165 274.1 226.754 278.107C223.015 280.511 221.946 282.381 219.275 286.12C217.139 289.058 215.002 291.729 213.399 296.003C207.79 312.563 215.269 329.658 229.96 337.938C243.048 344.883 255.067 339.541 256.403 339.808C258.273 340.876 264.416 347.287 265.484 349.157L232.631 382.545L230.761 381.476L221.946 372.662C224.35 364.382 224.885 356.101 221.412 348.088C209.66 321.111 176.005 324.85 166.389 337.938C160.78 345.15 159.177 345.684 157.04 357.17C153.835 375.066 170.662 403.112 201.914 394.297L210.728 403.646L181.347 433.294C180.011 434.63 178.676 435.698 177.073 437.301C176.539 436.767 176.005 436.233 175.737 435.965C174.135 432.493 169.06 430.89 167.724 427.952C166.122 424.747 175.203 411.125 160.245 392.962C151.164 382.01 129.528 377.47 115.639 388.421C104.955 396.701 96.4076 414.33 105.222 431.959C110.831 442.91 120.714 449.588 133.001 450.389C136.74 450.389 145.555 449.054 146.89 449.321C147.692 449.855 155.17 457.334 155.972 458.135C154.102 460.539 151.965 462.676 149.828 464.546C147.157 466.682 146.623 468.819 143.685 470.956C138.343 474.963 136.206 479.236 134.603 480.572L127.926 486.448C126.59 487.784 126.323 488.585 124.988 489.92C123.652 491.523 122.851 491.523 121.782 492.592L93.7365 520.905C89.73 525.712 85.4563 529.452 81.1826 533.458C76.909 537.732 73.1695 540.937 68.8959 546.012C65.4235 549.752 59.013 554.293 56.342 558.299L53.1367 557.498C48.863 554.025 40.0486 554.025 33.9052 554.827C26.9605 555.628 23.4882 557.765 18.1461 560.703C9.59875 565.244 2.38695 574.592 0.784325 587.413C-1.61961 603.44 13.8724 616.795 22.1527 624.808L52.0683 654.457C54.4722 657.395 59.013 661.401 62.4854 663.805C64.6222 665.408 66.759 666.476 68.8959 667.545C71.2998 668.613 75.0392 668.88 77.1761 669.949H84.655C87.0589 668.88 91.0655 668.613 93.7365 667.278C107.359 660.867 116.173 649.382 116.707 633.622C117.242 624.274 114.838 621.336 113.235 614.124L154.903 572.99C158.109 570.853 162.649 564.977 165.855 562.306C170.662 599.166 197.373 626.411 233.165 632.02C246.787 634.157 260.944 632.287 273.498 628.013C281.778 625.342 299.139 613.857 301.811 608.782C303.947 607.713 323.713 587.146 327.453 583.674C336 574.86 344.28 566.846 353.095 558.299L378.469 532.657C379.805 531.589 380.873 530.52 382.209 529.452C383.544 528.116 383.811 527.315 385.147 526.247C387.551 524.11 388.886 521.973 391.558 520.103C393.961 517.966 402.509 509.152 404.111 507.015L441.239 469.888C446.047 464.011 452.991 454.396 455.662 447.184C467.148 414.864 462.073 386.284 440.972 362.512C419.871 339.274 394.496 339.007 391.558 337.137C404.913 323.248 419.069 310.159 432.424 296.003C438.301 289.859 446.314 283.449 455.93 278.641L476.229 267.957C480.236 266.087 482.106 265.553 483.441 264.218C485.044 264.218 505.611 257.273 509.617 255.937C517.631 253.266 528.582 250.862 537.396 249.26C547.813 247.39 559.032 247.924 568.647 246.054C577.462 244.185 593.221 244.986 602.837 245.253C616.192 245.52 629.814 246.856 642.902 247.924C649.58 248.191 656.792 251.129 662.134 247.924C669.88 243.918 669.079 240.178 671.215 235.637V231.097C669.613 228.159 669.613 226.823 667.476 224.152C665.339 220.947 654.388 211.331 650.916 207.859C643.437 200.38 636.492 193.168 629.013 185.689C625.541 181.949 621.801 178.744 618.062 175.272C612.453 169.396 588.413 144.288 584.674 142.151C583.071 139.48 577.996 134.939 575.325 132.268L555.826 112.502C552.354 109.03 549.149 106.092 545.944 102.62C539.266 95.942 532.855 89.5315 526.178 83.121C523.507 80.1829 507.481 64.4237 505.878 63.8895ZM52.3354 613.857L35.5079 596.495C33.371 594.625 31.2342 593.824 31.2342 589.283C33.371 586.345 36.0421 583.407 41.3841 584.475C45.3907 585.01 48.0617 588.482 52.0683 589.817C60.0814 595.961 68.8959 587.146 72.1011 583.941C77.1761 578.866 81.984 574.325 87.0589 569.25C89.4629 566.579 91.8668 564.443 94.5378 562.039C101.75 555.361 108.16 546.814 116.707 539.869C119.379 537.999 121.782 535.061 124.186 532.657L153.568 503.009C157.841 498.735 174.402 482.976 175.47 480.839L176.539 479.771C178.408 480.572 190.161 491.79 191.497 493.927L171.197 515.562C167.724 518.768 155.972 529.719 154.636 532.39C151.965 533.726 141.281 544.944 138.61 548.149C133.802 553.491 127.659 558.299 122.584 563.374C119.913 566.312 118.043 568.716 114.838 571.654C112.167 574.325 109.763 576.195 107.092 579.133C102.017 584.475 96.4076 589.283 91.3326 594.625C86.7918 599.433 79.0458 604.508 80.6484 614.658C81.9839 622.671 90.5313 629.616 85.4563 637.629C80.9155 645.375 74.505 635.759 68.0945 629.349C63.0196 624.007 58.2117 618.665 52.3354 613.857ZM387.818 367.32C400.372 369.724 405.981 371.326 413.46 378.004C415.864 380.141 420.672 384.949 422.542 387.352C424.411 390.291 427.349 395.633 428.685 399.639C431.623 409.255 431.89 414.597 430.822 424.213L426.281 438.369C425.213 440.506 424.144 442.91 422.809 444.513L413.994 454.93L403.844 444.78C401.975 441.842 392.092 433.027 389.154 429.822C384.079 424.48 379.271 419.939 374.196 414.597C372.86 413.262 371.792 411.926 370.723 410.858C369.121 409.522 368.052 408.721 366.717 407.385C363.779 404.447 362.176 402.043 359.238 399.639C356.033 396.968 346.15 387.62 344.28 384.147C352.827 377.47 349.088 377.47 361.909 371.059C369.121 367.587 378.737 366.251 387.818 367.32ZM327.185 410.056L347.218 430.891C349.355 433.294 354.163 435.698 360.573 443.177C365.916 449.321 366.984 450.122 372.593 455.197C374.73 457.067 374.997 457.601 376.867 459.738C377.668 460.539 377.935 460.539 379.004 461.34C381.14 463.477 384.88 468.819 389.154 472.292C390.756 473.36 392.626 474.696 393.961 476.031C392.359 477.634 391.558 477.901 389.688 479.771C388.085 481.373 387.017 482.174 385.414 483.777C381.675 487.784 377.935 490.455 376.6 492.057C371.525 497.934 365.381 504.878 359.772 509.686C353.896 504.611 349.355 499.002 343.746 493.927C339.472 489.921 329.857 479.236 327.453 477.634L289.257 439.438L314.097 414.33C316.501 411.926 319.974 408.187 322.645 406.05L327.185 410.056ZM327.453 518.768C329.589 521.973 337.335 527.315 338.671 531.055C326.918 540.67 321.843 548.416 313.296 556.162C311.159 558.032 306.351 563.107 304.482 564.443L301.811 562.306C300.208 559.368 288.455 548.149 285.25 544.944L251.595 511.556C247.054 507.015 239.308 497.934 234.5 494.728C235.302 492.592 249.191 479.503 251.061 477.367L268.155 460.539L282.579 474.963C287.654 480.038 292.462 484.578 297.27 489.653C301.543 493.927 324.247 516.898 327.453 518.768ZM232.898 534.26C233.432 535.328 237.706 539.869 238.774 540.937C240.911 543.341 242.781 544.944 245.185 547.081C248.39 550.286 282.579 582.606 283.915 585.277L274.833 593.557C265.217 600.502 244.383 606.378 233.165 601.837C215.536 597.563 202.181 583.674 196.839 566.579C190.161 545.211 202.715 523.843 213.132 515.028C214.2 515.83 217.406 519.035 217.94 519.569L227.823 529.185C229.693 531.589 230.761 532.924 232.898 534.26Z" fill="url(#paint0_linear_202_360)"/>
  <defs>
    <linearGradient id="paint0_linear_202_360" x1="0.517221" y1="335" x2="671.215" y2="335" gradientUnits="userSpaceOnUse">
      <stop stop-color="#FF5C77"/>
      <stop offset="1" stop-color="#0097A7"/>
    </linearGradient>
  </defs>
</svg>